<?xml version="1.0" encoding="UTF-8"?>
<svg width="16px" height="16px" viewBox="0 0 16 16" version="1.1" xmlns="http://www.w3.org/2000/svg" xmlns:xlink="http://www.w3.org/1999/xlink">
    <!-- Generator: Sketch 64 (93537) - https://sketch.com -->
    <title>favicon-logo-coterie-de-troo</title>
    <desc>Created with Sketch.</desc>
    <g id="favicon-logo-coterie-de-troo" stroke="none" stroke-width="1" fill="none" fill-rule="evenodd">
        <circle id="Oval" fill="#034F4A" cx="8" cy="8" r="7"></circle>
        <g id="Group-9" transform="translate(1.000000, 1.000000)" fill="#F7F7F7">
            <path d="M7.59403077,5.80583385 C7.59452308,5.80448 7.59513846,5.80312615 7.59575385,5.80177231 C7.59427692,5.80238769 7.59292308,5.80288 7.59156923,5.80337231 L7.59033846,5.80201846 C7.58824615,5.80349538 7.5864,5.80509538 7.58443077,5.80657231 C7.44806154,5.87266462 7.31021538,5.90183385 7.16830769,5.93432615 C7.02332308,5.96632615 6.87612308,5.98737231 6.72941538,6.00940308 C6.43452308,6.05346462 6.14061538,6.07291077 5.84129231,6.10921846 L5.72695385,6.12768 C5.68916923,6.13506462 5.65298462,6.15044923 5.61593846,6.16152615 C5.54024615,6.18060308 5.47353846,6.22318769 5.40461538,6.25888 C5.27464615,6.34540308 5.16326154,6.45678769 5.07661538,6.58491077 C4.95723077,6.77038769 4.88523077,6.97826462 4.84707692,7.19155692 C4.86578462,7.19291077 4.884,7.19401846 4.90295385,7.19549538 C4.94923077,6.99291077 5.02738462,6.79832615 5.14049231,6.62860308 C5.22430769,6.50995692 5.32941538,6.40952615 5.44953846,6.33223385 C5.51415385,6.30183385 5.57409231,6.26158769 5.644,6.24374154 C5.67833846,6.23328 5.7112,6.21863385 5.7464,6.21149538 L5.85286154,6.19364923 C5.99612308,6.17038769 6.14910769,6.16435692 6.29593846,6.14158769 C6.44424615,6.12238769 6.59218462,6.09924923 6.73963077,6.07328 C6.88695385,6.04620308 7.03341538,6.01457231 7.17815385,5.97494154 C7.25052308,5.95524923 7.32215385,5.93260308 7.39243077,5.90614154 C7.44055385,5.88731077 7.49310769,5.86761846 7.53864615,5.84238769 C7.34283077,5.99623385 7.14972308,6.14921846 6.94775385,6.29161846 C6.73027692,6.44891077 6.51021538,6.60324923 6.28473846,6.75155692 C6.172,6.82552615 6.0568,6.89617231 5.93618462,6.95648 C5.81606154,7.01752615 5.68990769,7.06675692 5.56646154,7.12017231 C5.48732308,7.15598769 5.40867692,7.19303385 5.33003077,7.22983385 C5.37643077,7.23389538 5.42332308,7.23808 5.47046154,7.24238769 C5.51243077,7.22269538 5.55464615,7.20324923 5.596,7.18232615 C5.71513846,7.11771077 5.83095385,7.04681846 5.94873846,6.98023385 C6.06738462,6.91537231 6.18701538,6.85260308 6.30750769,6.79057231 C6.54984615,6.66884923 6.77913846,6.52177231 6.99956923,6.36275692 C7.21175385,6.20324923 7.40843077,6.02195692 7.58307692,5.82208 C7.31095385,6.33863385 6.96941538,6.84300308 6.49150769,7.18183385 C6.41987692,7.23328 6.3448,7.28078769 6.26750769,7.32435692 C6.29975385,7.32804923 6.33224615,7.33174154 6.36498462,7.33568 C6.42123077,7.30528 6.47686154,7.27364923 6.53015385,7.23820308 C6.65532308,7.15266462 6.772,7.05494154 6.87895385,6.94774154 C6.98356923,6.83820308 7.08264615,6.72349538 7.17015385,6.60029538 C7.34332308,6.35635692 7.48449231,6.09789538 7.59083077,5.81371077 C7.59243077,5.81174154 7.59427692,5.80989538 7.596,5.80792615 L7.59403077,5.80583385 Z" id="Fill-42"></path>
            <path d="M8.17816615,4.39272615 C8.10862769,4.67949538 7.97496615,4.95371077 7.78050462,5.16872615 C7.68019692,5.27358769 7.56155077,5.35740308 7.43145846,5.41598769 C7.36302769,5.43654154 7.29792,5.46743385 7.22604308,5.47481846 C7.19072,5.47998769 7.15588923,5.48971077 7.12007385,5.49143385 L7.01213538,5.49328 C6.86715077,5.49512615 6.71490462,5.47838769 6.56622769,5.47912615 C6.41668923,5.47604923 6.26715077,5.47703385 6.11748923,5.48084923 C5.96782769,5.48577231 5.81828923,5.49537231 5.66936615,5.51321846 C5.59490462,5.52183385 5.52068923,5.53364923 5.44733538,5.54940308 C5.39687385,5.56097231 5.34210462,5.57266462 5.29348923,5.59075692 C5.50948923,5.46755692 5.72315077,5.34497231 5.94358154,5.23408 C6.18173538,5.11075692 6.42185846,4.99063385 6.66678154,4.87752615 C6.78912,4.82103385 6.91342769,4.76823385 7.04155077,4.72638769 C7.16942769,4.68392615 7.30136615,4.65389538 7.43133538,4.61931077 C7.68130462,4.54854154 7.92942769,4.47272615 8.17828923,4.39272615 L8.17816615,4.39272615 Z M6.52524308,4.42128 C6.78604308,4.28761846 7.07416615,4.19481846 7.37115077,4.18669538 C7.51908923,4.18054154 7.66788923,4.19395692 7.81188923,4.22731077 C7.88425846,4.24269538 7.95502769,4.26509538 8.02296615,4.29291077 C8.05718154,4.30657231 8.09016615,4.32257231 8.12192,4.33992615 C8.13705846,4.34915692 8.15342769,4.35814154 8.16598154,4.36872615 C8.17188923,4.37254154 8.17484308,4.37623385 8.17804308,4.37980308 C7.91662769,4.40971077 7.66025846,4.47112615 7.41127385,4.55358769 C7.28376615,4.59974154 7.15896615,4.65278769 7.03268923,4.70115692 C6.90592,4.74768 6.77828923,4.79198769 6.65004308,4.83555692 C6.39244308,4.91998769 6.14419692,5.03137231 5.90284308,5.15604923 C5.66948923,5.28244923 5.44832,5.43248 5.24647385,5.60429538 C5.59108923,5.13377231 6.00302769,4.68552615 6.52524308,4.42128 L6.52524308,4.42128 Z M8.21730462,4.35728 C8.20893538,4.34829538 8.19995077,4.33943385 8.19170462,4.33451077 C8.17508923,4.32195692 8.15798154,4.31358769 8.14087385,4.30423385 C8.10641231,4.28724923 8.07145846,4.27223385 8.03576615,4.25968 C7.96425846,4.23481846 7.89176615,4.21401846 7.81804308,4.19888 C7.67096615,4.16761846 7.52032,4.15728 7.37053538,4.15801846 C7.07035077,4.16380308 6.77004308,4.23100308 6.49533538,4.35974154 C6.35908923,4.42583385 6.22924308,4.50509538 6.10776615,4.59531077 C5.98825846,4.68811077 5.87342769,4.78694154 5.76893538,4.89586462 C5.56192,5.11137231 5.38432,5.34608 5.23748923,5.61143385 C5.23564308,5.61315692 5.23342769,5.61463385 5.23158154,5.61635692 L5.23318154,5.61869538 C5.23244308,5.62004923 5.23170462,5.62128 5.23096615,5.62263385 C5.23232,5.62214154 5.23379692,5.62189538 5.23515077,5.62140308 L5.23638154,5.62312615 C5.23847385,5.62177231 5.24068923,5.62066462 5.24278154,5.61943385 C5.38727385,5.57426462 5.52795077,5.56589538 5.67305846,5.55481846 C5.82112,5.54460308 5.96992,5.54558769 6.11822769,5.54558769 C6.41632,5.54571077 6.70985846,5.57008 7.01127385,5.57857231 L7.12696615,5.57721846 C7.16536615,5.57549538 7.20352,5.56577231 7.24192,5.56023385 C7.31945846,5.55248 7.39170462,5.52035692 7.46505846,5.49524923 C7.60635077,5.42891077 7.73275077,5.33524923 7.83724308,5.22140308 C8.04155077,4.98829538 8.16081231,4.69820308 8.22222769,4.40183385 L8.22481231,4.38755692 C8.22690462,4.38669538 8.22321231,4.36281846 8.21730462,4.35728 L8.21730462,4.35728 Z" id="Fill-43"></path>
            <path d="M4.66507077,3.70642462 C4.40304,3.57534769 4.15737846,3.39762462 3.97411692,3.16267077 C3.88119385,3.04685538 3.80328615,2.91848615 3.74420923,2.78224 C3.71344,2.71454769 3.68919385,2.64414769 3.67097846,2.57251692 C3.66150154,2.53694769 3.65460923,2.50064 3.64956308,2.46470154 C3.64784,2.44697846 3.64537846,2.42851692 3.64636308,2.41190154 C3.64599385,2.40488615 3.64710154,2.40033231 3.64796308,2.39553231 C3.82740923,2.58900923 4.02925538,2.75971692 4.24328615,2.91184 C4.35614769,2.98728615 4.47282462,3.05670154 4.58654769,3.12980923 C4.69928615,3.20464 4.81067077,3.28131692 4.92180923,3.35910154 C5.14260923,3.51688615 5.37953231,3.65128615 5.62260923,3.77202462 C5.86248615,3.88537846 6.11405538,3.97473231 6.37153231,4.03565538 C5.79048615,4.03713231 5.18704,3.97116308 4.66507077,3.70642462 L4.66507077,3.70642462 Z M3.65817846,2.38777846 C3.92882462,2.27331692 4.22740923,2.21805538 4.51504,2.24722462 C4.65854769,2.26568615 4.79602462,2.31171692 4.92045538,2.38211692 C4.97756308,2.42507077 5.04107077,2.45928615 5.08968615,2.51307077 C5.11479385,2.53854769 5.14334769,2.56082462 5.16599385,2.58876308 L5.23171692,2.67479385 C5.31947077,2.79097846 5.39664,2.92390154 5.48587077,3.04365538 C5.57239385,3.16624 5.66236308,3.28660923 5.75454769,3.40513231 C5.84734769,3.52316308 5.94420923,3.63836308 6.04697846,3.74814769 C6.09842462,3.80304 6.15184,3.85596308 6.20808615,3.90593231 C6.24734769,3.93977846 6.28931692,3.97719385 6.33288615,4.00574769 C6.10580923,3.90433231 5.88070154,3.80476308 5.66076308,3.69264 C5.42051692,3.57362462 5.18150154,3.45091692 4.94531692,3.32045538 C4.82740923,3.25522462 4.71122462,3.18617846 4.60156308,3.10753231 C4.49140923,3.02950154 4.38900923,2.94088615 4.28390154,2.85645538 C4.07848615,2.69645538 3.87036308,2.54125538 3.65817846,2.38777846 Z M6.39196308,4.03454769 L6.39257846,4.03257846 C6.39036308,4.03159385 6.38814769,4.03048615 6.38580923,4.02950154 C6.26371692,3.93965538 6.17325538,3.83097846 6.07799385,3.72033231 C5.98174769,3.60673231 5.89399385,3.48587077 5.80574769,3.36599385 C5.62839385,3.12513231 5.47294769,2.87344 5.30039385,2.62482462 L5.23048615,2.53202462 C5.20611692,2.50199385 5.17559385,2.47713231 5.14851692,2.44944 C5.09608615,2.39122462 5.02740923,2.35196308 4.96365538,2.30765538 C4.82654769,2.23307077 4.67651692,2.18654769 4.52340923,2.16993231 C4.21559385,2.14371692 3.91270154,2.21990154 3.63922462,2.34667077 L3.62654769,2.35307077 C3.62445538,2.35196308 3.60759385,2.36919385 3.60660923,2.37731692 C3.60451692,2.38937846 3.60279385,2.40193231 3.60377846,2.41153231 C3.60365538,2.43245538 3.60710154,2.45116308 3.60980923,2.47060923 C3.61670154,2.50864 3.62556308,2.54580923 3.63688615,2.58211692 C3.65953231,2.65460923 3.68599385,2.72562462 3.71787077,2.79405538 C3.78051692,2.93165538 3.86174769,3.05953231 3.95159385,3.18027077 C4.13485538,3.41928615 4.36747077,3.62199385 4.63368615,3.76734769 C4.76771692,3.83811692 4.90839385,3.89571692 5.05264,3.94027077 C5.19799385,3.98150154 5.34519385,4.01547077 5.49448615,4.03516308 C5.78999385,4.07405538 6.08316308,4.07799385 6.38260923,4.03848615 C6.38519385,4.03910154 6.38753231,4.03984 6.39011692,4.04045538 L6.39085538,4.03762462 C6.39245538,4.03737846 6.39393231,4.03737846 6.39540923,4.03725538 C6.39417846,4.03639385 6.39319385,4.03528615 6.39196308,4.03454769 L6.39196308,4.03454769 Z" id="Fill-44"></path>
            <path d="M2.52889846,5.82788923 C2.53037538,5.82739692 2.53172923,5.82715077 2.53308308,5.82665846 L2.53123692,5.82395077 C2.53049846,5.82530462 2.52963692,5.82653538 2.52889846,5.82788923" id="Fill-45"></path>
            <path d="M5.49091692,4.53671385 L5.49313231,4.52243692 C5.49522462,4.52145231 5.49091692,4.49769846 5.48488615,4.49240615 C5.47639385,4.48342154 5.46716308,4.47492923 5.45879385,4.47012923 C5.44193231,4.45794462 5.42457846,4.45006769 5.40722462,4.44108308 C5.37239385,4.42496 5.33707077,4.41068308 5.30100923,4.39911385 C5.22900923,4.37585231 5.15602462,4.35677538 5.08217846,4.34348308 C4.93424,4.31579077 4.78359385,4.30877538 4.63356308,4.31320615 C4.33374769,4.32600615 4.03504,4.40034462 3.76353231,4.53548308 C3.62876308,4.60477538 3.50088615,4.68711385 3.38137846,4.78016 C3.26420923,4.87566769 3.15171692,4.97732923 3.04980923,5.08859077 C2.84784,5.30902154 2.67577846,5.54779077 2.53522462,5.81659077 C2.53817846,5.81400615 2.54113231,5.81179077 2.54396308,5.80920615 C2.87774769,5.33068308 3.27885538,4.87271385 3.79491692,4.59628308 C4.05239385,4.45646769 4.33842462,4.35689846 4.63504,4.34176 C4.78260923,4.33203692 4.93177846,4.34200615 5.07664,4.37203692 C5.14925538,4.38569846 5.22051692,4.40637538 5.28907077,4.43259077 C5.32365538,4.44539077 5.35700923,4.46052923 5.38913231,4.47726769 C5.40451692,4.48600615 5.42100923,4.49462154 5.43393231,4.50496 C5.43984,4.50865231 5.44279385,4.51222154 5.44624,4.51579077 C5.44722462,4.51566769 5.44796308,4.51542154 5.44894769,4.51529846 C5.44907077,4.51283692 5.44968615,4.51099077 5.44931692,4.51517538 L5.44931692,4.51529846 C5.45657846,4.51419077 5.46359385,4.51271385 5.47085538,4.51172923 L5.47270154,4.51985231 C5.46396308,4.52280615 5.45534769,4.52563692 5.44673231,4.52859077 L5.44673231,4.52871385 C5.38371692,4.81696 5.25657846,5.09425231 5.06716308,5.31382154 C4.96944,5.42114462 4.85264,5.50766769 4.72402462,5.56932923 C4.65608615,5.59148308 4.59159385,5.62385231 4.51996308,5.63296 C4.48476308,5.63899077 4.45030154,5.64957538 4.41448615,5.65216 L4.30679385,5.65646769 C4.16168615,5.66176 4.00919385,5.64859077 3.86051692,5.65289846 C3.71097846,5.65339077 3.56131692,5.65782154 3.41177846,5.66520615 C3.26248615,5.67369846 3.11319385,5.68686769 2.96464,5.70816 C2.89042462,5.71862154 2.81657846,5.73203692 2.74347077,5.74951385 C2.69350154,5.76231385 2.63885538,5.77523692 2.59060923,5.79456 C2.57399385,5.80465231 2.55737846,5.81437538 2.54064,5.82446769 C2.68402462,5.77585231 2.82457846,5.76416 2.96944,5.74963692 C3.11713231,5.73597538 3.26580923,5.73351385 3.41424,5.72994462 C3.71220923,5.72305231 4.00624,5.74040615 4.30777846,5.74176 L4.42334769,5.73769846 C4.46187077,5.73511385 4.49965538,5.72440615 4.53780923,5.71800615 C4.61534769,5.70852923 4.68673231,5.67468308 4.75959385,5.64772923 C4.89904,5.57806769 5.02334769,5.48145231 5.12513231,5.36526769 C5.32390154,5.12736 5.43651692,4.83443692 5.49091692,4.53671385" id="Fill-46"></path>
            <path d="M2.52937846,5.82163692 L2.53122462,5.82397538 C2.53245538,5.82151385 2.53393231,5.81905231 2.53528615,5.81659077 C2.53331692,5.81831385 2.53134769,5.81991385 2.52937846,5.82163692" id="Fill-47"></path>
            <path d="M5.44932923,4.51526154 C5.44920615,4.51526154 5.44908308,4.51526154 5.44896,4.51526154 C5.44883692,4.51587692 5.44896,4.51649231 5.44896,4.51710769 L5.44932923,4.51526154 Z" id="Fill-48"></path>
            <path d="M2.59054769,5.79459692 C2.80384,5.66635077 3.01442462,5.53872 3.23239385,5.42265846 C3.46747077,5.29367385 3.70488615,5.16801231 3.94697846,5.04912 C4.06796308,4.98979692 4.19104,4.93404308 4.31805538,4.88924308 C4.44494769,4.84358154 4.57614769,4.81047385 4.70525538,4.77293538 C4.95350154,4.69625846 5.19965538,4.61465846 5.44667077,4.52862769 L5.44876308,4.51792 C5.44802462,4.51730462 5.44691692,4.51644308 5.44617846,4.51570462 C5.18550154,4.55176615 4.93073231,4.61933538 4.68359385,4.70758154 C4.55719385,4.75681231 4.43374769,4.81268923 4.30870154,4.86413538 C4.18291692,4.91361231 4.05639385,4.96099692 3.92925538,5.00739692 C3.67374769,5.09798154 3.42808615,5.21527385 3.18968615,5.34561231 C2.95940923,5.47742769 2.74180923,5.63275077 2.54390154,5.80924308 C2.54094769,5.81355077 2.53774769,5.81773538 2.53479385,5.82204308 C2.55165538,5.81133538 2.57073231,5.80259692 2.59054769,5.79459692" id="Fill-49"></path>
            <path d="M2.53430154,5.82824615 C2.53651692,5.82701538 2.53860923,5.82566154 2.54070154,5.82443077 C2.53811692,5.82529231 2.53577846,5.82578462 2.53307077,5.82664615 L2.53430154,5.82824615 Z" id="Fill-50"></path>
            <path d="M5.45016615,4.51922462 C5.44979692,4.51885538 5.44930462,4.51848615 5.44893538,4.51811692 C5.44905846,4.51922462 5.44930462,4.51996308 5.45016615,4.51922462" id="Fill-51"></path>
            <path d="M2.53478154,5.82199385 C2.53773538,5.81768615 2.54093538,5.81350154 2.54388923,5.80919385 C2.54118154,5.81177846 2.53810462,5.81411692 2.53527385,5.81657846 C2.53392,5.81916308 2.53244308,5.82150154 2.53121231,5.82396308 L2.53305846,5.82667077 C2.53576615,5.82580923 2.53810462,5.82531692 2.54068923,5.82445538 C2.55742769,5.81436308 2.57392,5.80464 2.59053538,5.79454769 C2.57072,5.80254769 2.55164308,5.81128615 2.53478154,5.82199385" id="Fill-52"></path>
            <path d="M5.44896,4.51707077 C5.44896,4.51645538 5.44883692,4.51596308 5.44896,4.51534769 C5.44797538,4.51547077 5.44711385,4.51559385 5.44625231,4.51571692 C5.44686769,4.51645538 5.44797538,4.51731692 5.44871385,4.51793231 L5.44896,4.51707077 Z" id="Fill-53"></path>
            <path d="M5.44896,4.51707077 L5.44871385,4.51793231 C5.44883692,4.51805538 5.44883692,4.51805538 5.44896,4.51817846 L5.44896,4.51707077 Z" id="Fill-54"></path>
            <path d="M5.44896,4.51815385 C5.44932923,4.5184 5.44982154,4.51889231 5.45019077,4.51926154 C5.44932923,4.52 5.44908308,4.51926154 5.44896,4.51815385 C5.44883692,4.51815385 5.44883692,4.51803077 5.44871385,4.51803077 L5.44662154,4.52861538 C5.45536,4.52566154 5.46397538,4.52283077 5.47259077,4.51987692 L5.47086769,4.51175385 C5.46360615,4.51273846 5.45659077,4.51421538 5.44932923,4.51532308 L5.44896,4.51704615 L5.44896,4.51815385 Z" id="Fill-55"></path>
            <path d="M4.62072615,6.96327385 C4.58183385,6.81152 4.51352615,6.66924308 4.42146462,6.54518154 C4.23106462,6.30050462 3.96940308,6.12918154 3.69088,6.01398154 L3.67746462,6.00893538 C3.67697231,6.00659692 3.65297231,6.00598154 3.64644923,6.01078154 C3.63611077,6.01730462 3.62589538,6.02468923 3.61949538,6.03182769 C3.60423385,6.04610462 3.59291077,6.06136615 3.58060308,6.07650462 C3.55758769,6.10752 3.53654154,6.13939692 3.51783385,6.17238154 C3.48029538,6.23847385 3.44669538,6.30628923 3.41838769,6.37632 C3.36091077,6.51613538 3.32300308,6.66296615 3.29617231,6.81139692 C3.27918769,6.91465846 3.27192615,7.01952 3.26934154,7.12450462 C3.28140308,7.12462769 3.29321846,7.12475077 3.30528,7.12487385 C3.30281846,7.02185846 3.30823385,6.91847385 3.32435692,6.81595077 C3.34552615,6.66862769 3.38601846,6.52388923 3.44497231,6.38764308 C3.47340308,6.31896615 3.50835692,6.25312 3.54798769,6.19108923 C3.56743385,6.15970462 3.58921846,6.13004308 3.61198769,6.10185846 C3.62368,6.08856615 3.63549538,6.07416615 3.64829538,6.06358154 C3.65309538,6.05841231 3.65715692,6.05632 3.66134154,6.05361231 C3.64251077,6.31761231 3.65543385,6.58235077 3.69026462,6.84364308 C3.70601846,6.94112 3.72534154,7.03798154 3.74404923,7.13472 C3.75635692,7.13521231 3.76891077,7.13558154 3.78134154,7.13595077 C3.77198769,7.03601231 3.76571077,6.93582769 3.75832615,6.83588923 C3.73506462,6.57570462 3.70651077,6.31662769 3.67401846,6.05582769 L3.67401846,6.05595077 C3.94134154,6.17742769 4.18491077,6.35982769 4.35943385,6.59158154 C4.44349538,6.70985846 4.50368,6.84265846 4.53703385,6.98210462 C4.54380308,7.04561231 4.55808,7.10813538 4.55697231,7.17213538 C4.58540308,7.17385846 4.61481846,7.17607385 4.64349538,7.17792 C4.64632615,7.10579692 4.63094154,7.03453538 4.62072615,6.96327385" id="Fill-56"></path>
            <path d="M5.82312615,0.0590153846 C5.82103385,0.0512615385 5.81820308,0.0437538462 5.81598769,0.036 C5.78780308,0.0409230769 5.75974154,0.0460923077 5.73180308,0.0512615385 C5.73401846,0.0601230769 5.73734154,0.0688615385 5.73943385,0.0778461538 C5.74706462,0.149230769 5.76528,0.219261538 5.75912615,0.291630769 C5.75789538,0.327569231 5.76097231,0.363753846 5.75604923,0.399446154 L5.73808,0.5064 C5.71309538,0.650153846 5.66891077,0.797476923 5.64232615,0.944676923 C5.61180308,1.092 5.58534154,1.24006154 5.56171077,1.38873846 C5.53894154,1.53753846 5.52097231,1.6872 5.51100308,1.8376 C5.50583385,1.91292308 5.50361846,1.98824615 5.50558769,2.06381538 C5.50768,2.11563077 5.50903385,2.172 5.51789538,2.22356923 C5.43715692,1.98726154 5.35641846,1.75366154 5.28848,1.51526154 C5.21168,1.25716923 5.13844923,0.9976 5.07272615,0.734830769 C5.04011077,0.603507692 5.01118769,0.470953846 4.99395692,0.336676923 C4.98915692,0.301230769 4.98681846,0.265538462 4.98361846,0.229969231 C4.97180308,0.233415385 4.95998769,0.236492308 4.94829538,0.240061538 C4.95469538,0.273538462 4.96146462,0.307138462 4.96761846,0.340738462 C4.98977231,0.474646154 5.00971077,0.608923077 5.02866462,0.743692308 C5.06386462,1.01384615 5.12724923,1.27981538 5.20478769,1.54123077 C5.28540308,1.79501538 5.39149538,2.04129231 5.52244923,2.27243077 C5.12577231,1.84523077 4.76331077,1.35587692 4.60072615,0.790953846 C4.56232615,0.659630769 4.53414154,0.524123077 4.51900308,0.387138462 C4.50398769,0.3928 4.48921846,0.399076923 4.47432615,0.404861538 C4.48232615,0.540984615 4.50128,0.676615385 4.53512615,0.809292308 C4.57463385,0.956246154 4.62841846,1.09901538 4.69426462,1.23575385 C4.76306462,1.37089231 4.83863385,1.50246154 4.92589538,1.62578462 C5.09857231,1.87009231 5.29537231,2.0888 5.52786462,2.28252308 C5.52897231,2.28473846 5.53020308,2.2872 5.53143385,2.28941538 L5.53401846,2.28806154 C5.53524923,2.28904615 5.53623385,2.29015385 5.53746462,2.29101538 C5.53721846,2.28966154 5.53734154,2.28818462 5.53709538,2.28670769 L5.53881846,2.28584615 C5.53820308,2.28350769 5.53734154,2.28116923 5.53648,2.27883077 C5.51888,2.12769231 5.53648,1.98713846 5.55235692,1.84153846 C5.56946462,1.69335385 5.59789538,1.54652308 5.62509538,1.39981538 C5.67998769,1.10516923 5.75764923,0.819384615 5.82115692,0.523015385 L5.84109538,0.408307692 C5.84651077,0.370030769 5.84392615,0.330646154 5.84564923,0.291753846 C5.85229538,0.213476923 5.83420308,0.136184615 5.82312615,0.0590153846" id="Fill-57"></path>
            <path d="M2.85773538,1.57229538 C2.98376615,1.66423385 3.12665846,1.73008 3.27619692,1.76675692 C3.57810462,1.83321846 3.88825846,1.79740308 4.17576615,1.70768 L4.18930462,1.70300308 C4.19115077,1.70448 4.21010462,1.68958769 4.21207385,1.68171077 C4.21588923,1.66989538 4.21921231,1.65771077 4.21933538,1.64823385 C4.22228923,1.62743385 4.22118154,1.60835692 4.22105846,1.58878769 C4.21921231,1.55014154 4.21527385,1.51211077 4.20875077,1.47469538 C4.19570462,1.39974154 4.17859692,1.32589538 4.15607385,1.25377231 C4.11176615,1.10915692 4.04788923,0.971803077 3.97441231,0.840233846 C3.94155077,0.783126154 3.90487385,0.727987692 3.86684308,0.673956923 C3.85699692,0.67888 3.84739692,0.684049231 3.83755077,0.689095385 C3.87804308,0.742018462 3.91595077,0.796910769 3.94992,0.854756923 C4.02696615,0.981772308 4.08752,1.11924923 4.12838154,1.26214154 C4.15004308,1.33328 4.16493538,1.40626462 4.17367385,1.47961846 C4.17847385,1.51617231 4.18056615,1.55309538 4.18093538,1.58940308 C4.18019692,1.60724923 4.18032,1.62583385 4.17724308,1.64208 C4.17675077,1.64921846 4.17490462,1.65352615 4.17342769,1.65808 C4.17392,1.65894154 4.17453538,1.65955692 4.17515077,1.66029538 C4.17736615,1.65943385 4.17921231,1.65894154 4.17527385,1.66054154 C4.17945846,1.66657231 4.18413538,1.67223385 4.18844308,1.67814154 L4.18216615,1.68355692 C4.17539692,1.67728 4.16887385,1.67075692 4.16235077,1.66448 C3.87915077,1.74226462 3.57588923,1.75789538 3.29453538,1.69118769 C3.15472,1.65389538 3.02438154,1.59026462 2.91028923,1.50411077 C2.86179692,1.45672615 2.80727385,1.41574154 2.76653538,1.36084923 C2.74352,1.37832615 2.72136615,1.39678769 2.69847385,1.41451077 C2.74253538,1.47543385 2.80247385,1.52195692 2.85773538,1.57229538" id="Fill-58"></path>
            <path d="M4.17528615,1.66057846 C4.17528615,1.66057846 4.17516308,1.66045538 4.17516308,1.66033231 C4.17454769,1.66057846 4.17405538,1.66082462 4.17356308,1.66107077 L4.17528615,1.66057846 Z" id="Fill-59"></path>
            <path d="M3.60280615,1.11755077 C3.78569846,1.30315077 3.97191385,1.48444308 4.16231385,1.66450462 L4.17277538,1.66130462 C4.17302154,1.66044308 4.17314462,1.65908923 4.17351385,1.65810462 C4.02077538,1.44272 3.84280615,1.24702769 3.65043692,1.06807385 C3.58520615,1.01072 3.51825231,0.955704615 3.45154462,0.900566154 C3.43960615,0.907704615 3.42729846,0.914350769 3.41548308,0.921489231 C3.47862154,0.986227692 3.54052923,1.05232 3.60280615,1.11755077" id="Fill-60"></path>
            <path d="M4.17228308,1.66322462 C4.17240615,1.66273231 4.17252923,1.66211692 4.17265231,1.66162462 C4.17166769,1.66224 4.17117538,1.66285538 4.17228308,1.66322462" id="Fill-61"></path>
            <path d="M4.17264,1.6616 C4.17251692,1.66209231 4.17239385,1.66270769 4.17227077,1.6632 C4.17116308,1.66283077 4.17165538,1.66221538 4.17264,1.6616 C4.17264,1.6616 4.17264,1.66147692 4.17276308,1.66135385 L4.16230154,1.66443077 C4.16894769,1.67083077 4.17534769,1.67723077 4.18211692,1.68350769 L4.18839385,1.67821538 C4.18420923,1.67218462 4.17953231,1.66664615 4.17522462,1.66061538 L4.17362462,1.66110769 L4.17264,1.6616 Z" id="Fill-62"></path>
            <path d="M4.1736,1.66112 L4.17273846,1.66136615 C4.17261538,1.66148923 4.17261538,1.66161231 4.17261538,1.66161231 L4.1736,1.66112 Z" id="Fill-63"></path>
            <path d="M4.1736,1.66112 C4.17409231,1.66087385 4.17458462,1.66050462 4.1752,1.66038154 C4.17458462,1.65952 4.17396923,1.65890462 4.17347692,1.65816615 C4.17310769,1.65902769 4.17298462,1.66050462 4.17273846,1.66136615 L4.1736,1.66112 Z" id="Fill-64"></path>
            <path d="M2.69259077,4.54717538 C2.51966769,4.78459077 2.30391385,4.99800615 2.04249846,5.13979077 C1.91326769,5.21228308 1.77431385,5.26766769 1.63068308,5.30311385 C1.55929846,5.32206769 1.48606769,5.33412923 1.41296,5.34003692 C1.37640615,5.3434928 1.33972923,5.34409846 1.30354462,5.34299077 C1.28582154,5.34176 1.26736,5.34102154 1.25123692,5.33720615 C1.24422154,5.33646769 1.24016,5.33449846 1.23548308,5.33277538 C1.45566769,5.18779077 1.65702154,5.01671385 1.84249846,4.83037538 C1.93554462,4.73142154 2.02329846,4.62742154 2.11425231,4.52711385 C2.20668308,4.42816 2.30071385,4.33080615 2.39572923,4.23382154 C2.58785231,4.04169846 2.75966769,3.82963692 2.91929846,3.60908308 C3.07092923,3.39074462 3.20126769,3.15652923 3.30465231,2.91160615 C3.20754462,3.48785231 3.04052923,4.07468308 2.69259077,4.54717538 L2.69259077,4.54717538 Z M1.23732923,4.44834462 C1.27979077,4.30926769 1.34809846,4.18065231 1.43819077,4.06939077 C1.49000615,4.02016 1.53431385,3.96305231 1.59511385,3.92391385 C1.62428308,3.90336 1.65111385,3.87886769 1.68225231,3.86114462 L1.77776,3.81056 C1.90649846,3.74323692 2.04988308,3.68932923 2.18231385,3.62126769 C2.31708308,3.55628308 2.45025231,3.48760615 2.58219077,3.41634462 C2.71363692,3.34422154 2.84286769,3.26779077 2.96779077,3.18459077 C3.03031385,3.14299077 3.09136,3.09892923 3.14994462,3.05166769 C3.18957538,3.01856 3.23339077,2.98323692 3.26883692,2.94496 C3.13099077,3.15283692 2.99511385,3.35899077 2.84791385,3.55788308 C2.69049846,3.77585231 2.52988308,3.99197538 2.36188308,4.20379077 C2.27806769,4.30963692 2.19068308,4.41314462 2.09505231,4.50852923 C1.99991385,4.60440615 1.89554462,4.69092923 1.79499077,4.78065231 C1.60348308,4.95714462 1.41603692,5.13708308 1.22957538,5.32145231 C1.16348308,5.03382154 1.15991385,4.72846769 1.23732923,4.44834462 L1.23732923,4.44834462 Z M3.30994462,2.89277538 C3.31006769,2.89129846 3.31019077,2.88982154 3.31031385,2.88822154 C3.30920615,2.88932923 3.30797538,2.89019077 3.30686769,2.89117538 L3.30526769,2.89031385 C3.30379077,2.89240615 3.30243692,2.89437538 3.30096,2.89646769 C3.19228308,3.00219077 3.07043692,3.07345231 2.94588308,3.14914462 C2.81825231,3.22520615 2.68496,3.29166769 2.55252923,3.35899077 C2.28631385,3.49376 2.01332923,3.60514462 1.74046769,3.73400615 L1.63769846,3.78766769 C1.60409846,3.80649846 1.57456,3.83259077 1.54280615,3.85486769 C1.47683692,3.89696 1.42686769,3.95825231 1.37246769,4.01400615 C1.27622154,4.13708308 1.20520615,4.27800615 1.16286769,4.42692923 C1.08496,4.72760615 1.10834462,5.04071385 1.18625231,5.33326769 L1.19031385,5.34705231 C1.18883692,5.34877538 1.20286769,5.36846769 1.21062154,5.37068308 C1.22219077,5.37499077 1.23412923,5.37880615 1.24372923,5.37942154 C1.26428308,5.38311385 1.28311385,5.38286769 1.30256,5.38336 C1.34108308,5.38299077 1.37899077,5.38052923 1.41652923,5.37548308 C1.49136,5.36539077 1.56545231,5.35111385 1.63794462,5.33129846 C1.78329846,5.29240615 1.92237538,5.23357538 2.05591385,5.16502154 C2.32126769,5.02385231 2.55942154,4.82779077 2.74686769,4.58852923 C2.83892923,4.46779077 2.91942154,4.33819077 2.98748308,4.20256 C3.05259077,4.06557538 3.11068308,3.92539077 3.15536,3.78077538 C3.24372923,3.49462154 3.29714462,3.20452923 3.30932923,2.90114462 C3.31031385,2.89880615 3.31142154,2.89646769 3.31240615,2.89412923 L3.30994462,2.89277538 Z" id="Fill-65"></path>
            <path d="M2.95918769,2.22929231 C2.95414154,2.21796923 2.94848,2.20664615 2.94232615,2.19938462 C2.93051077,2.18203077 2.91697231,2.16873846 2.90392615,2.15421538 C2.87660308,2.12701538 2.84841846,2.10141538 2.81838769,2.07815385 C2.75881846,2.03138462 2.69678769,1.98818462 2.63192615,1.95015385 C2.51561846,1.88073846 2.39143385,1.82695385 2.26417231,1.78203077 C2.25666462,1.78904615 2.24940308,1.79643077 2.24177231,1.80356923 C2.37321846,1.84504615 2.49998769,1.90227692 2.61703385,1.97501538 C2.68041846,2.01292308 2.74035692,2.05710769 2.79586462,2.10547692 C2.82380308,2.12935385 2.85001846,2.1552 2.87438769,2.18190769 C2.88583385,2.19544615 2.89838769,2.20935385 2.90700308,2.22338462 C2.91131077,2.22904615 2.91291077,2.23335385 2.91500308,2.23790769 C2.65777231,2.18153846 2.39537231,2.15667692 2.13321846,2.15421538 C2.04928,2.15569231 1.96558769,2.15987692 1.88189538,2.16418462 C1.86946462,2.17747692 1.85678769,2.19027692 1.84448,2.20369231 C1.94023385,2.20873846 2.03574154,2.21636923 2.13112615,2.22301538 C2.39057231,2.23692308 2.64952615,2.24541538 2.91081846,2.25009231 C2.75315692,2.49907692 2.53900308,2.71544615 2.28595692,2.85612308 C2.15746462,2.92307692 2.01826462,2.96406154 1.87635692,2.97735385 C1.80509538,2.97464615 1.73346462,2.98289231 1.66318769,2.96664615 C1.62811077,2.96 1.59204923,2.95803077 1.55746462,2.94806154 L1.45469538,2.91483077 C1.40731077,2.89932308 1.35955692,2.88110769 1.31180308,2.86227692 C1.29518769,2.88541538 1.27881846,2.90867692 1.26257231,2.93206154 C1.31697231,2.95335385 1.37137231,2.97464615 1.42663385,2.9952 L1.53654154,3.03150769 C1.57358769,3.04233846 1.61272615,3.04541538 1.65075692,3.05255385 C1.72681846,3.0704 1.80546462,3.06338462 1.88300308,3.06326154 C2.03783385,3.04615385 2.18749538,2.9984 2.32288,2.92443077 C2.59081846,2.76984615 2.79672615,2.53378462 2.94971077,2.27298462 L2.95660308,2.26043077 C2.95894154,2.26018462 2.96300308,2.23630769 2.95918769,2.22929231" id="Fill-66"></path>
            <path d="M0.686646154,4.48944 C0.669538462,4.36094769 0.638892308,4.23454769 0.599384615,4.11060923 C0.591876923,4.12796308 0.583753846,4.14507077 0.576246154,4.16242462 C0.614030769,4.26962462 0.642338462,4.38014769 0.658461538,4.49350154 C0.681353846,4.64033231 0.685292308,4.79073231 0.668676923,4.93842462 C0.661661538,5.01239385 0.647630769,5.08574769 0.628061538,5.15688615 C0.618584615,5.19257846 0.606523077,5.22728615 0.592984615,5.26100923 C0.5856,5.27725538 0.578707692,5.29448615 0.569476923,5.30839385 C0.5664,5.31467077 0.5632,5.31799385 0.56,5.32168615 C0.512492308,5.11553231 0.445046154,4.91528615 0.363569231,4.72082462 C0.352369231,4.75454769 0.340430769,4.78790154 0.3296,4.82187077 C0.400123077,4.98937846 0.472246154,5.15639385 0.547323077,5.32328615 C0.432738462,5.30888615 0.319138462,5.28377846 0.208984615,5.24894769 C0.204184615,5.26839385 0.200123077,5.28796308 0.195569231,5.30728615 C0.309784615,5.33768615 0.426461538,5.35774769 0.543261538,5.36845538 L0.557661538,5.36931692 C0.558769231,5.37128615 0.581907692,5.36476308 0.586707692,5.35824 C0.594584615,5.34888615 0.602338462,5.33891692 0.606276923,5.33017846 C0.616738462,5.31208615 0.623015385,5.29399385 0.630276923,5.27590154 C0.6432,5.23947077 0.654030769,5.20279385 0.662276923,5.16574769 C0.678646154,5.09140923 0.691076923,5.01670154 0.697476923,4.94137846 C0.711507692,4.79073231 0.704615385,4.63922462 0.686646154,4.48944" id="Fill-67"></path>
            <path d="M2.99271385,6.16153846 L2.99271385,6.15710769 C2.99172923,6.15821538 2.99062154,6.15907692 2.98963692,6.16018462 L2.98779077,6.15932308 C2.98656,6.16153846 2.98532923,6.16363077 2.98422154,6.16584615 C2.88219077,6.27809231 2.76489846,6.35686154 2.64514462,6.44018462 C2.52256,6.52412308 2.39369846,6.59870769 2.26557538,6.67427692 C2.00822154,6.82541538 1.74274462,6.95353846 1.47825231,7.09926154 L1.37905231,7.1592 C1.36317538,7.16941538 1.34840615,7.18147692 1.33376,7.19390769 C1.39136,7.18849231 1.45080615,7.18344615 1.51185231,7.17852308 L1.52022154,7.17335385 C1.64452923,7.09815385 1.78434462,7.03526154 1.91234462,6.95907692 C2.04280615,6.88584615 2.17154462,6.80892308 2.29868308,6.72953846 C2.42545231,6.64941538 2.54963692,6.56510769 2.66926769,6.47427692 C2.72908308,6.42886154 2.78729846,6.38098462 2.84280615,6.33015385 C2.88034462,6.29458462 2.92194462,6.25655385 2.95480615,6.21618462 C2.83012923,6.43230769 2.70742154,6.64658462 2.57277538,6.85433846 C2.51406769,6.94713846 2.45437538,7.03932308 2.39443692,7.13138462 C2.42754462,7.13052308 2.46151385,7.12978462 2.49523692,7.12892308 C2.54729846,7.05384615 2.59825231,6.97815385 2.64711385,6.90098462 C2.78508308,6.67341538 2.90052923,6.43156923 2.98865231,6.18073846 C2.95517538,6.49716923 2.90003692,6.81741538 2.80637538,7.12363077 C2.82902154,7.12338462 2.85166769,7.12326154 2.87443692,7.12313846 C2.88046769,7.10123077 2.88797538,7.07956923 2.89326769,7.05753846 C2.96379077,6.76633846 2.99923692,6.47353846 2.99259077,6.17003077 C2.99345231,6.16756923 2.99456,6.16523077 2.99529846,6.16276923 L2.99271385,6.16153846 Z" id="Fill-68"></path>
            <path d="M1.85858462,5.95324308 C1.85710769,5.95336615 1.85575385,5.95324308 1.85427692,5.95336615 L1.85341538,5.95152 C1.85095385,5.95225846 1.84873846,5.95299692 1.84627692,5.95373538 C1.69563077,5.96616615 1.55643077,5.94376615 1.41230769,5.92272 C1.26572308,5.90044308 1.12073846,5.86684308 0.975876923,5.83459692 C0.690953846,5.77059692 0.415138462,5.68518154 0.129230769,5.61207385 C0.123938462,5.63976615 0.119507692,5.66782769 0.114461538,5.69564308 C0.249353846,5.72592 0.386584615,5.77145846 0.524184615,5.80161231 C0.669415385,5.83718154 0.815753846,5.86893538 0.962707692,5.89785846 C1.10978462,5.92567385 1.25784615,5.94905846 1.40701538,5.96432 C1.4816,5.97195077 1.55655385,5.97675077 1.63163077,5.97736615 C1.6832,5.97712 1.73932308,5.97773538 1.79076923,5.97059692 C1.55323077,6.04358154 1.31827692,6.11668923 1.07901538,6.17675077 C0.820061538,6.24518154 0.559507692,6.30979692 0.296123077,6.36678154 C0.205538462,6.38635077 0.114338462,6.40222769 0.0226461538,6.41552 C0.0219076923,6.42536615 0.0211692308,6.43508923 0.0204307692,6.44493538 C0.114584615,6.43336615 0.208861538,6.42167385 0.303384615,6.41145846 C0.573046154,6.38524308 0.839630769,6.33072 1.10203077,6.26179692 C1.35704615,6.18942769 1.60516923,6.09133538 1.83963077,5.96776615 C1.40135385,6.35164308 0.902523077,6.69933538 0.335630769,6.84308923 C0.226338462,6.87139692 0.114338462,6.89268923 0.00123076923,6.90524308 C0.00123076923,6.92161231 -6.99611309e-15,6.93761231 -6.99611309e-15,6.95398154 C0.118030769,6.94807385 0.235692308,6.93527385 0.351630769,6.90967385 C0.498953846,6.87496615 0.642707692,6.82585846 0.7808,6.76444308 C0.917538462,6.69995077 1.05095385,6.62844308 1.17649231,6.54512 C1.42523077,6.37982769 1.64923077,6.18955077 1.84972308,5.96259692 C1.85193846,5.96136615 1.8544,5.96038154 1.85661538,5.95915077 L1.85563077,5.95644308 C1.85649231,5.95533538 1.8576,5.95435077 1.85858462,5.95324308" id="Fill-69"></path>
            <path d="M7.76603077,1.46814769 C7.47852308,1.52328615 7.176,1.53140923 6.88861538,1.45596308 C6.74498462,1.42027077 6.60566154,1.36562462 6.47667692,1.29313231 C6.41156923,1.25793231 6.34978462,1.21657846 6.29218462,1.17079385 C6.26313846,1.14814769 6.23593846,1.12353231 6.21021538,1.09793231 C6.19827692,1.08488615 6.18510769,1.07159385 6.176,1.05793231 C6.17144615,1.05251692 6.1696,1.04820923 6.16750769,1.04390154 C6.42683077,1.08857846 6.69009231,1.10162462 6.95212308,1.09239385 C7.08726154,1.08377846 7.22190769,1.06790154 7.35655385,1.05694769 C7.4912,1.04784 7.62596923,1.04119385 7.76123077,1.03528615 C8.032,1.02654769 8.30153846,0.989255385 8.56775385,0.93744 C8.82683077,0.881563077 9.08086154,0.799593846 9.32246154,0.691286154 C8.86092308,1.04624 8.34092308,1.36107077 7.76603077,1.46814769 L7.76603077,1.46814769 Z M6.17095385,1.03147077 C6.31741538,0.775716923 6.52184615,0.549870769 6.76836923,0.397993846 C6.89366154,0.325378462 7.03076923,0.27824 7.17218462,0.258547692 C7.24356923,0.257932308 7.31458462,0.246609231 7.3856,0.259778462 C7.42104615,0.264701538 7.45710769,0.265193846 7.49193846,0.273563077 L7.59606154,0.301993846 C7.73587692,0.341009231 7.87741538,0.39984 8.02030769,0.440824615 C8.1632,0.485870769 8.30707692,0.526855385 8.45181538,0.565255385 C8.59692308,0.602424615 8.74313846,0.635286154 8.89107692,0.660147692 C8.96492308,0.672578462 9.03950769,0.682055385 9.11433846,0.687593846 C9.16590769,0.690670769 9.22190769,0.694855385 9.27372308,0.691163077 C9.03187692,0.74864 8.79286154,0.806486154 8.55027692,0.850916923 C8.28726154,0.902609231 8.02338462,0.950363077 7.75692308,0.990363077 C7.62375385,1.01017846 7.48972308,1.02593231 7.35507692,1.03011692 C7.22030769,1.03504 7.08553846,1.02679385 6.95101538,1.02359385 C6.69132308,1.02137846 6.43212308,1.02445538 6.17083077,1.03147077 L6.17095385,1.03147077 Z M9.3424,0.678116923 C9.34092308,0.678116923 9.33944615,0.677993846 9.33796923,0.677993846 L9.33747692,0.676024615 C9.33501538,0.67664 9.33267692,0.677255385 9.33021538,0.677747692 C9.17883077,0.680578462 9.04147692,0.649193846 8.89895385,0.61904 C8.75396923,0.587286154 8.61156923,0.544455385 8.46904615,0.502855385 C8.18289231,0.41904 7.90769231,0.313193846 7.62067692,0.220393846 L7.50916923,0.189132308 C7.47175385,0.180024615 7.43249231,0.178793846 7.39421538,0.173255385 C7.31741538,0.158855385 7.23926154,0.16944 7.16172308,0.173009231 C7.00787692,0.197009231 6.86043077,0.251409231 6.72836923,0.331409231 C6.46756923,0.497809231 6.27236923,0.742855385 6.13107692,1.01030154 L6.1248,1.02322462 C6.12246154,1.02347077 6.11938462,1.04747077 6.12356923,1.05448615 C6.12910769,1.06556308 6.13526154,1.07639385 6.14178462,1.08353231 C6.15433846,1.10027077 6.16849231,1.11307077 6.18215385,1.12685538 C6.21058462,1.15282462 6.24,1.17707077 6.27089231,1.19910154 C6.33255385,1.24304 6.39630769,1.28353231 6.46289231,1.31860923 C6.59556923,1.38987077 6.73723077,1.44230154 6.88147692,1.48353231 C7.1712,1.56230154 7.47827692,1.58211692 7.77772308,1.53559385 C7.92701538,1.51048615 8.0736,1.47073231 8.21526154,1.41830154 C8.35581538,1.36279385 8.49341538,1.30002462 8.62412308,1.22482462 C8.88270769,1.07590154 9.1184,0.900516923 9.33292308,0.686855385 C9.33538462,0.685870769 9.33784615,0.685009231 9.34018462,0.683901538 L9.33907692,0.681070769 C9.34018462,0.680086154 9.34141538,0.679101538 9.3424,0.678116923 L9.3424,0.678116923 Z" id="Fill-70"></path>
            <path d="M11.1070646,1.29721846 C11.1017723,1.37438769 11.0914338,1.45106462 11.0754338,1.52663385 C11.06128,1.59961846 11.0402338,1.67112615 11.0137723,1.74004923 C11.0008492,1.77463385 10.9854646,1.80811077 10.9688492,1.84023385 C10.9598646,1.85574154 10.9512492,1.87223385 10.9409108,1.88515692 C10.9370954,1.89106462 10.9335262,1.89401846 10.93008,1.89746462 C10.8959877,1.63506462 10.8306338,1.37832615 10.7443569,1.12921846 C10.7304492,1.09217231 10.7151877,1.05574154 10.7002954,1.01906462 C10.6771569,1.00429538 10.6545108,0.988910769 10.6310031,0.974387692 C10.6472492,1.03321846 10.66288,1.09204923 10.6792492,1.15051077 C10.7538338,1.40072615 10.8333415,1.64884923 10.91728,1.89783385 C10.63088,1.83248 10.3560492,1.70288 10.1389415,1.51088 C10.0329723,1.41192615 9.94768,1.29401846 9.88712615,1.16404923 C9.86571077,1.09561846 9.83383385,1.03063385 9.82534154,0.958510769 C9.81955692,0.923064615 9.80934154,0.888233846 9.80700308,0.852295385 L9.80331077,0.743987692 C9.80134154,0.676664615 9.80343385,0.607864615 9.80577231,0.538695385 C9.77844923,0.526387692 9.75149538,0.513341538 9.72392615,0.501403077 C9.72158769,0.582018462 9.71937231,0.66288 9.71851077,0.744356923 L9.72183385,0.860664615 C9.72404923,0.899433846 9.73451077,0.937464615 9.74066462,0.975864615 C9.74952615,1.05389538 9.78275692,1.12589538 9.80909538,1.19937231 C9.87728,1.34017231 9.97254154,1.46571077 10.0874954,1.56897231 C10.3226954,1.77032615 10.6131569,1.88540308 10.9089108,1.94226462 L10.9229415,1.94448 C10.9239262,1.94669538 10.94768,1.94251077 10.9530954,1.93648 C10.9619569,1.92786462 10.9704492,1.91875692 10.9752492,1.91038769 C10.9874338,1.89340308 10.9954338,1.87604923 11.0045415,1.85881846 C11.0207877,1.82374154 11.0353108,1.78829538 11.04688,1.75223385 C11.0705108,1.67998769 11.09008,1.60675692 11.1037415,1.53241846 C11.1176492,1.46041846 11.1263877,1.38768 11.13168,1.31469538 C11.1235569,1.30866462 11.1151877,1.30312615 11.1070646,1.29721846" id="Fill-71"></path>
            <path d="M12.8258831,3.81676308 C12.8248985,3.81442462 12.8237908,3.81220923 12.8229292,3.80999385 C12.79216,3.66094769 12.7972062,3.51928615 12.80016,3.37294769 C12.8026215,3.28531692 12.8090215,3.19768615 12.8167754,3.11017846 C12.7991754,3.08322462 12.78256,3.05553231 12.7647138,3.02882462 C12.7592985,3.14328615 12.7560985,3.25799385 12.75856,3.37282462 C12.76016,3.44814769 12.7645908,3.52347077 12.7730831,3.59854769 C12.7798523,3.64999385 12.7861292,3.70611692 12.7992985,3.75657846 C12.6982523,3.52839385 12.5973292,3.30291692 12.5087138,3.07140923 C12.41296,2.83005538 12.3207754,2.58685538 12.2347446,2.34020923 C12.2117292,2.31374769 12.1893292,2.28642462 12.1658215,2.26020923 C12.1709908,2.28224 12.1767754,2.30402462 12.1819446,2.32605538 C12.2407754,2.59202462 12.3271754,2.85134769 12.4274831,3.10476308 C12.5302523,3.35042462 12.6575138,3.58624 12.80816,3.80482462 C12.3756677,3.41467077 11.97136,2.95940923 11.7599138,2.41122462 C11.6719138,2.18697846 11.6138215,1.94685538 11.6066831,1.70353231 C11.5968369,1.69467077 11.5867446,1.68617846 11.5767754,1.67756308 C11.57296,1.93380923 11.6103754,2.19165538 11.6960369,2.43534769 C11.7484677,2.57811692 11.81456,2.71559385 11.8920985,2.84593231 C11.9724677,2.97442462 12.05936,3.09885538 12.1570831,3.21393231 C12.3506831,3.44187077 12.5659446,3.64211692 12.8144369,3.81442462 C12.8160369,3.81651692 12.8173908,3.81885538 12.8187446,3.82094769 L12.8213292,3.81947077 C12.82256,3.82033231 12.8235446,3.82119385 12.8248985,3.82205538 C12.8245292,3.82057846 12.8244062,3.81922462 12.82416,3.81774769 L12.8258831,3.81676308 Z" id="Fill-72"></path>
            <path d="M7.99500308,0.0921846154 C8.11734154,0.189169231 8.25740308,0.2608 8.40546462,0.303507692 C8.67081846,0.373292308 8.94601846,0.362584615 9.20792615,0.304861538 C9.17432615,0.293415385 9.14121846,0.281476923 9.10737231,0.270646154 C8.87881846,0.300430769 8.64509538,0.289846154 8.42688,0.228676923 C8.28854154,0.185846154 8.16078769,0.116923077 8.05014154,0.0262153846 C8.04755692,0.0233846154 8.04472615,0.0208 8.04201846,0.0179692308 C7.99537231,0.0108307692 7.94786462,0.00615384615 7.90084923,0 C7.93112615,0.0316307692 7.96386462,0.0614153846 7.99500308,0.0921846154" id="Fill-73"></path>
            <path d="M5.75593846,2.68587077 C5.75606154,2.68599385 5.75618462,2.68599385 5.75630769,2.68599385 C5.7568,2.68562462 5.75704615,2.68525538 5.75741538,2.68476308 L5.75593846,2.68587077 Z" id="Fill-74"></path>
            <path d="M5.75773538,2.68227692 C5.75785846,2.68276923 5.75798154,2.68338462 5.75810462,2.68387692 C5.75872,2.68289231 5.75884308,2.68227692 5.75773538,2.68227692" id="Fill-75"></path>
            <path d="M5.75810462,2.68388923 C5.75798154,2.68339692 5.75785846,2.68278154 5.75773538,2.68228923 C5.75884308,2.68216615 5.75872,2.68290462 5.75810462,2.68388923 L5.75810462,2.68413538 L5.76647385,2.67724308 C5.75785846,2.67404308 5.74948923,2.67072 5.74075077,2.66752 L5.73705846,2.67490462 C5.74333538,2.67872 5.74985846,2.68204308 5.75588923,2.68585846 L5.75736615,2.68475077 C5.75761231,2.68438154 5.75785846,2.68413538 5.75810462,2.68388923" id="Fill-76"></path>
            <path d="M5.75737846,2.68473846 L5.75811692,2.68412308 L5.75811692,2.68387692 C5.75787077,2.68424615 5.75762462,2.68449231 5.75737846,2.68473846" id="Fill-77"></path>
            <path d="M7.08754462,3.67667692 C6.80016,3.62092308 6.51609846,3.51581538 6.27696,3.33870769 C6.15671385,3.25218462 6.04742154,3.14953846 5.95425231,3.03409231 C5.90662154,2.97723077 5.86452923,2.91581538 5.82797538,2.85181538 C5.80914462,2.82006154 5.79289846,2.78695385 5.77849846,2.7536 C5.77222154,2.73698462 5.76496,2.71987692 5.76151385,2.70363077 C5.75917538,2.69698462 5.75917538,2.69230769 5.75868308,2.68738462 C5.75782154,2.68701538 5.75696,2.68652308 5.75634462,2.68603077 C5.75462154,2.68787692 5.75302154,2.68898462 5.75597538,2.68590769 L5.75597538,2.68590769 C5.74982154,2.68209231 5.74329846,2.67876923 5.73702154,2.67483077 L5.74083692,2.66744615 C5.74945231,2.67064615 5.75782154,2.67409231 5.76656,2.67716923 L5.76656,2.67716923 C5.99671385,2.49415385 6.26969846,2.36049231 6.55462154,2.31113846 C6.69776,2.29033846 6.84262154,2.2976 6.98108308,2.33193846 C7.04754462,2.35803077 7.11782154,2.37390769 7.17899077,2.41255385 C7.21000615,2.43027692 7.24336,2.44418462 7.27265231,2.46498462 L7.35880615,2.53021538 C7.47449846,2.61846154 7.58416,2.72578462 7.70194462,2.81710769 C7.81800615,2.912 7.93652923,3.00369231 8.05702154,3.09316923 C8.17788308,3.18178462 8.30182154,3.26670769 8.43006769,3.34486154 C8.49419077,3.384 8.55991385,3.42055385 8.62748308,3.45353846 C8.67425231,3.47556923 8.72459077,3.50018462 8.77406769,3.51606154 C8.52828308,3.47950769 8.28496,3.44418462 8.04323692,3.39532308 C7.77997538,3.34535385 7.51708308,3.29156923 7.25480615,3.22941538 C7.12385231,3.19827692 6.99351385,3.16307692 6.86699077,3.1168 C6.74009846,3.07126154 6.61776,3.01341538 6.49419077,2.96036923 C6.25369846,2.86153846 6.01172923,2.768 5.76656,2.67716923 L5.75806769,2.68418462 C5.75819077,2.68504615 5.75856,2.68652308 5.75868308,2.68738462 C5.98305231,2.8256 6.22292923,2.93563077 6.46969846,3.02461538 C6.59843692,3.06695385 6.72939077,3.1024 6.85849846,3.14227692 C6.98699077,3.184 7.11462154,3.22793846 7.24237538,3.27286154 C7.49714462,3.36553846 7.76114462,3.43126154 8.02772923,3.48209231 C8.28889846,3.52664615 8.55511385,3.54510769 8.81936,3.5344 C8.25985231,3.69230769 7.66096,3.79126154 7.08754462,3.67667692 M8.83880615,3.52787692 L8.83880615,3.52578462 C8.83634462,3.52541538 8.83388308,3.52516923 8.83142154,3.5248 C8.69000615,3.47101538 8.57382154,3.39064615 8.45259077,3.30966154 C8.32963692,3.22621538 8.21308308,3.13341538 8.09591385,3.04172308 C7.86083692,2.85723077 7.64422154,2.65661538 7.41185231,2.46350769 L7.31966769,2.39298462 C7.28828308,2.37058462 7.25234462,2.35470769 7.21862154,2.33538462 C7.15265231,2.29341538 7.07609846,2.27409231 7.00299077,2.24861538 C6.85099077,2.21366154 6.69406769,2.20923077 6.54194462,2.23433846 C6.23856,2.29193846 5.96705231,2.44701538 5.73714462,2.64270769 L5.72656,2.65243077 C5.72434462,2.65181538 5.71265231,2.67298462 5.71400615,2.68098462 C5.71511385,2.69329231 5.71671385,2.70572308 5.72028308,2.71470769 C5.72582154,2.73489231 5.73406769,2.75212308 5.74182154,2.77009231 C5.75856,2.8048 5.77702154,2.83827692 5.79769846,2.87015385 C5.83880615,2.93403077 5.88311385,2.9952 5.93197538,3.05267692 C6.02896,3.16836923 6.14132923,3.26966154 6.25997538,3.36172308 C6.50034462,3.54276923 6.77825231,3.67544615 7.07363692,3.74375385 C7.22145231,3.77587692 7.37222154,3.7936 7.52323692,3.79766154 C7.67425231,3.79827692 7.82514462,3.79138462 7.97419077,3.77009231 C8.26932923,3.728 8.55277538,3.6528 8.83080615,3.53427692 C8.83339077,3.53415385 8.83597538,3.53427692 8.83856,3.53415385 L8.83868308,3.5312 C8.83991385,3.53058462 8.84139077,3.53021538 8.84274462,3.5296 C8.84126769,3.52910769 8.84003692,3.52836923 8.83880615,3.52787692" id="Fill-78"></path>
            <path d="M5.75737846,2.68473846 C5.75700923,2.68523077 5.75676308,2.6856 5.75627077,2.68609231 C5.75700923,2.68658462 5.75787077,2.68707692 5.75873231,2.68744615 C5.75860923,2.68646154 5.75824,2.68510769 5.75811692,2.68412308 L5.75737846,2.68473846 Z" id="Fill-79"></path>
            <path d="M8.39139692,7.58425846 C8.37810462,7.53625846 8.36542769,7.48813538 8.34930462,7.44112 C8.29675077,7.29884308 8.23718154,7.15915077 8.16493538,7.02635077 C8.02204308,6.76345846 7.85219692,6.52296615 7.64407385,6.30302769 C7.64296615,6.30068923 7.64210462,6.29822769 7.64112,6.29576615 L7.63841231,6.29675077 C7.63730462,6.29564308 7.63644308,6.29453538 7.63533538,6.29342769 C7.63545846,6.29490462 7.63521231,6.29638154 7.63521231,6.29773538 L7.63336615,6.29847385 C7.63385846,6.30081231 7.63447385,6.30327385 7.63496615,6.30573538 C7.63472,6.45785846 7.60075077,6.59545846 7.56813538,6.73810462 C7.53367385,6.88321231 7.48838154,7.02561231 7.44419692,7.16813538 C7.41342769,7.26708923 7.37970462,7.36456615 7.34524308,7.46167385 C7.36961231,7.46487385 7.39435077,7.46832 7.41872,7.47139692 C7.44838154,7.37675077 7.47878154,7.28222769 7.50585846,7.18672 C7.54573538,7.04161231 7.58118154,6.89515077 7.60875077,6.74684308 C7.62253538,6.67275077 7.63348923,6.59804308 7.64038154,6.52284308 C7.64444308,6.47115077 7.64973538,6.41502769 7.64702769,6.36284308 C7.69945846,6.60702769 7.75238154,6.84850462 7.79188923,7.09330462 C7.81687385,7.23730462 7.84038154,7.38167385 7.86265846,7.52653538 C7.88862769,7.52961231 7.91361231,7.53232 7.93945846,7.53527385 C7.92505846,7.38192 7.90438154,7.22918154 7.87804308,7.07742769 C7.82770462,6.81588923 7.75115077,6.55878154 7.64825846,6.31373538 C7.92813538,6.69724308 8.17884308,7.11976615 8.31447385,7.57650462 C8.34044308,7.57908923 8.36579692,7.58167385 8.39139692,7.58425846" id="Fill-80"></path>
            <path d="M8.28862769,6.65691077 C8.28936615,6.65555692 8.29022769,6.65444923 8.29096615,6.65309538 L8.28764308,6.65248 C8.28801231,6.65395692 8.28813538,6.65543385 8.28862769,6.65691077" id="Fill-81"></path>
            <path d="M8.28478769,6.65198769 L8.28761846,6.65248 C8.28700308,6.64977231 8.28651077,6.64706462 8.28577231,6.64435692 C8.28552615,6.64681846 8.28503385,6.64940308 8.28478769,6.65198769" id="Fill-82"></path>
            <path d="M8.29283692,6.65355077 C8.29357538,6.65108923 8.29431385,6.64875077 8.29505231,6.64641231 C8.29382154,6.64875077 8.29222154,6.65084308 8.29086769,6.65318154 L8.29283692,6.65355077 Z" id="Fill-83"></path>
            <path d="M9.74752,4.98743385 C9.71182769,5.04958769 9.68548923,5.11703385 9.63822769,5.17192615 C9.61619692,5.20011077 9.59748923,5.23112615 9.57262769,5.25709538 L9.49545846,5.33303385 C9.39108923,5.43444923 9.26912,5.52737231 9.16142769,5.63063385 C9.05078154,5.73155692 8.94259692,5.83568 8.83650462,5.94177231 C8.73090462,6.04872615 8.62875077,6.15888 8.53262769,6.27457231 C8.48438154,6.33241846 8.43847385,6.39211077 8.39601231,6.45426462 C8.36721231,6.49746462 8.33521231,6.54386462 8.31219692,6.59063385 C8.38542769,6.35186462 8.45693538,6.11531077 8.54148923,5.88232615 C8.63047385,5.62829538 8.72315077,5.37512615 8.82395077,5.12380308 C8.87428923,4.99826462 8.92868923,4.87408 8.99330462,4.75518769 C9.05730462,4.63592615 9.13262769,4.52318769 9.20352,4.40823385 C9.33705846,4.18411077 9.46567385,3.95777231 9.59182769,3.72774154 L9.59195077,3.72774154 C9.73693538,3.98435692 9.82702769,4.27592615 9.83232,4.56663385 C9.83121231,4.71211077 9.80204308,4.85488 9.74752,4.98743385 M8.28733538,6.63297231 C8.21681231,6.05278769 8.21028923,5.44244923 8.40967385,4.88971077 C8.50801231,4.61254154 8.65410462,4.34608 8.86444308,4.13512615 C8.96770462,4.02854154 9.08512,3.93561846 9.21262769,3.86041846 C9.27576615,3.82164923 9.34259692,3.78915692 9.41102769,3.76232615 C9.44512,3.74866462 9.48007385,3.73746462 9.51490462,3.72823385 C9.53225846,3.72441846 9.55010462,3.71974154 9.56659692,3.71863385 C9.57361231,3.71752615 9.57816615,3.71814154 9.58296615,3.71838769 C9.41324308,3.92072615 9.26875077,4.14226462 9.14407385,4.37426462 C9.08290462,4.49586462 9.02825846,4.62066462 8.96967385,4.74288 C8.90912,4.86435692 8.84659692,4.98460308 8.78308923,5.10484923 C8.65336615,5.34411077 8.54899692,5.59654154 8.45853538,5.85377231 C8.37533538,6.10669538 8.31687385,6.36860308 8.28733538,6.63297231 M9.63022769,3.70386462 L9.62222769,3.69192615 C9.62321231,3.68971077 9.60425846,3.67494154 9.59625846,3.67494154 C9.58395077,3.67420308 9.57127385,3.67408 9.56204308,3.67604923 C9.54124308,3.67851077 9.52327385,3.68417231 9.50432,3.68921846 C9.46776615,3.70066462 9.43207385,3.71383385 9.39748923,3.72946462 C9.32856615,3.76072615 9.26173538,3.79555692 9.19773538,3.83543385 C9.06936615,3.91444923 8.95293538,4.01069538 8.84438154,4.11481846 C8.63022769,4.32626462 8.45767385,4.58251077 8.34579692,4.86571077 C8.29188923,5.00786462 8.25164308,5.15506462 8.22481231,5.30460308 C8.20130462,5.45451077 8.18530462,5.60564923 8.18358154,5.75703385 C8.18025846,6.05672615 8.21139692,6.35001846 8.28573538,6.64429538 C8.28647385,6.64700308 8.28696615,6.64971077 8.28770462,6.65254154 L8.29090462,6.65315692 C8.29225846,6.65081846 8.29373538,6.64872615 8.29496615,6.64638769 C8.36930462,6.51383385 8.46579692,6.41057231 8.56376615,6.30238769 C8.66444308,6.19260308 8.77324308,6.09081846 8.88118154,5.98829538 C9.09804308,5.78263385 9.32807385,5.59764923 9.55293538,5.39568 L9.63625846,5.31481846 C9.66296615,5.28700308 9.68388923,5.25364923 9.70813538,5.22312615 C9.75933538,5.16392615 9.78985846,5.09069538 9.82616615,5.02164923 C9.88339692,4.87604923 9.91145846,4.72060308 9.90973538,4.56564923 C9.89902769,4.25524923 9.78788923,3.96183385 9.63022769,3.70386462" id="Fill-84"></path>
            <path d="M10.1823877,7.30150154 L10.1304492,7.19750154 C10.1121108,7.16340923 10.0866338,7.13337846 10.0648492,7.10113231 C10.0238646,7.03430154 9.96355692,6.98322462 9.90878769,6.92796308 C9.78755692,6.82950154 9.64835692,6.75627077 9.50078769,6.71184 C9.20294154,6.62962462 8.89131077,6.64907077 8.59961846,6.72365538 L8.58571077,6.72759385 C8.58398769,6.72611692 8.56417231,6.73990154 8.56195692,6.74765538 C8.55752615,6.75922462 8.55371077,6.77128615 8.55284923,6.78076308 C8.54891077,6.80144 8.54891077,6.82051692 8.54816656,6.84008615 C8.54804923,6.87873231 8.54989538,6.91688615 8.55444923,6.95467077 C8.56368,7.03011692 8.57684923,7.10470154 8.59568,7.17793231 C8.63235692,7.32464 8.68909538,7.46531692 8.75555692,7.60045538 C8.75900308,7.60722462 8.76355692,7.61362462 8.76712615,7.62039385 C8.77857231,7.62150154 8.79001846,7.62248615 8.80134154,7.62359385 C8.79469538,7.61140923 8.78731077,7.59959385 8.78078769,7.58716308 C8.71051077,7.45633231 8.65709538,7.31590154 8.62374154,7.17104 C8.60577231,7.09891692 8.59481846,7.02519385 8.58977231,6.95147077 C8.58681846,6.91467077 8.58669538,6.87787077 8.58829538,6.84156308 C8.58989538,6.82384 8.59063385,6.80513231 8.59469538,6.78900923 C8.59555692,6.78199385 8.59752615,6.77793231 8.59924923,6.77325538 C8.74066462,6.99639385 8.90804923,7.20119385 9.09118769,7.38999385 C9.18829538,7.48488615 9.29057231,7.57448615 9.38915692,7.66716308 C9.39026462,7.66827077 9.39137231,7.66950154 9.39260308,7.67060923 C9.40638769,7.67159385 9.42041846,7.67257846 9.43420308,7.67356308 C9.42571077,7.66482462 9.41623385,7.65694769 9.40786462,7.64808615 C9.31358769,7.55122462 9.22903385,7.44525538 9.14103385,7.34297846 C8.96811077,7.14802462 8.79149538,6.95725538 8.61069538,6.76747077 C8.89758769,6.70457846 9.20109538,6.70494769 9.47863385,6.78630154 C9.61635692,6.83085538 9.74337231,6.90125538 9.85278769,6.99319385 C9.90128,7.04587077 9.95740308,7.09128615 9.99543385,7.15294769 C10.0156185,7.18260923 10.0396185,7.20968615 10.0567262,7.24131692 L10.1058338,7.33805538 C10.1665108,7.45904 10.2162338,7.59208615 10.2759262,7.71787077 C10.3053415,7.71897846 10.3351262,7.72008615 10.3641723,7.72107077 C10.3046031,7.58174769 10.2457723,7.44168615 10.1823877,7.30150154" id="Fill-85"></path>
            <path d="M11.8157662,7.11628308 C11.7077046,7.03406769 11.5953354,6.95763692 11.4861662,6.87776 C11.3783508,6.79616 11.2717662,6.71283692 11.1655508,6.62852923 C10.9545969,6.45745231 10.7264123,6.30889846 10.4909662,6.17351385 C10.2583508,6.04576 10.0126892,5.94114462 9.75927385,5.86471385 C10.3394585,5.89868308 10.9376123,6.00132923 11.4428431,6.29745231 C11.6963815,6.44428308 11.9309662,6.63665231 12.0997046,6.88243692 C12.1853662,7.00366769 12.2553969,7.13659077 12.3062277,7.27616 C12.3326892,7.34545231 12.3527508,7.41732923 12.3666585,7.48982154 C12.37392,7.52612923 12.3785969,7.56256 12.3814277,7.59886769 C12.3820431,7.61659077 12.38352,7.63529846 12.3815508,7.65166769 C12.3814277,7.65880615 12.3799508,7.66311385 12.3788431,7.66791385 C12.2113354,7.46385231 12.02032,7.28120615 11.8157662,7.11628308 M12.4215508,7.59542154 C12.4168738,7.55702154 12.4103508,7.51936 12.4012431,7.48243692 C12.3830277,7.40871385 12.3608738,7.33622154 12.3331815,7.26582154 C12.2790277,7.12477538 12.2055508,6.99222154 12.1230892,6.86619077 C11.9545969,6.61634462 11.7347815,6.39985231 11.4776738,6.23862154 C11.3481969,6.15972923 11.2113354,6.09363692 11.0700431,6.04034462 C10.9273969,5.99025231 10.7825354,5.94742154 10.63472,5.91874462 C10.3421662,5.86176 10.0497354,5.84009846 9.74844308,5.86114462 C9.74598154,5.86040615 9.74352,5.85942154 9.74105846,5.85868308 L9.74007385,5.86151385 C9.73847385,5.86163692 9.73712,5.86151385 9.73564308,5.86163692 C9.73675077,5.86249846 9.73761231,5.86360615 9.73884308,5.86459077 L9.73810462,5.86643692 L9.74462769,5.86988308 C9.86105846,5.96711385 9.94487385,6.08108308 10.0332431,6.19739077 C10.1224738,6.31652923 10.20272,6.44243692 10.2837046,6.56760615 C10.4461662,6.81892923 10.5859815,7.07960615 10.7432738,7.33819077 L10.80752,7.43505231 C10.82992,7.46668308 10.8589662,7.49339077 10.8844431,7.52256 C10.9331815,7.58385231 10.9992738,7.62717538 11.06032,7.67542154 C11.0940431,7.69646769 11.1288738,7.71579077 11.16432,7.73326769 C11.2384123,7.73302154 11.3104123,7.73228308 11.3811815,7.73129846 C11.2845662,7.70102154 11.1925046,7.65856 11.1079508,7.60366769 C11.0535508,7.55739077 10.9922585,7.51923692 10.9469662,7.46262154 C10.9233354,7.43579077 10.8962585,7.41166769 10.8753354,7.38249846 L10.8149046,7.29252923 C10.7342892,7.17117538 10.6652431,7.03382154 10.58352,6.90889846 C10.5045046,6.78126769 10.4220431,6.65560615 10.3372431,6.53166769 C10.2514585,6.40809846 10.1619815,6.28736 10.0658585,6.17142154 C10.0179815,6.11345231 9.96776615,6.05745231 9.91459692,6.00403692 C9.87742769,5.96797538 9.83779692,5.92809846 9.79607385,5.89683692 C10.0166277,6.01191385 10.2352123,6.12502154 10.4480123,6.25043692 C10.6808738,6.38385231 10.9117662,6.52083692 11.1397046,6.66545231 C11.2534277,6.73782154 11.3653046,6.81388308 11.4700431,6.89905231 C11.5751508,6.98360615 11.6721354,7.07837538 11.7718277,7.16908308 C11.9672738,7.34126769 12.1656738,7.50889846 12.3681354,7.67517538 L12.3681354,7.67517538 C12.3505354,7.68132923 12.3325662,7.68649846 12.3149662,7.69216 C12.3374892,7.69056 12.3606277,7.68896 12.3829046,7.68723692 C12.38672,7.68699077 12.3909046,7.68674462 12.39472,7.68637538 C12.4030892,7.68576 12.4114585,7.68514462 12.4195815,7.68452923 C12.4220431,7.67394462 12.4243815,7.66311385 12.4240123,7.65474462 C12.4253662,7.63382154 12.4230277,7.61486769 12.4215508,7.59542154" id="Fill-86"></path>
            <path d="M11.3990892,4.97031385 C11.3401354,5.10680615 11.2633354,5.23579077 11.1707815,5.35172923 C11.1254892,5.41043692 11.0746585,5.46483692 11.0201354,5.51419077 C10.9930585,5.53929846 10.9645046,5.56219077 10.9349662,5.58336 C10.9201969,5.59320615 10.9050585,5.60391385 10.8900431,5.61080615 C10.8840123,5.61437538 10.8795815,5.61536 10.8749046,5.61683692 C10.9620431,5.36711385 11.0185354,5.10828308 11.05312,4.84686769 C11.0672738,4.71136 11.0741662,4.57523692 11.0857354,4.43985231 C11.0992738,4.30483692 11.1151508,4.17006769 11.1320123,4.03492923 C11.1685662,3.76502154 11.1768123,3.49166769 11.1702892,3.21892923 C11.15872,2.95271385 11.1205662,2.68711385 11.0545969,2.42939077 C11.3257354,2.94643692 11.5478892,3.51443692 11.55712,4.10237538 C11.5632738,4.39665231 11.5209354,4.69794462 11.3990892,4.97031385 M10.3417354,4.91345231 C10.2913969,4.77708308 10.2681354,4.63320615 10.27232,4.48982154 C10.2836431,4.41892923 10.2842585,4.34656 10.3089969,4.27825231 C10.3197046,4.24403692 10.3262277,4.20834462 10.3401354,4.17511385 L10.3855508,4.07665231 C10.4470892,3.94446769 10.52832,3.81388308 10.59232,3.67899077 C10.6601354,3.54496 10.7243815,3.40896 10.7860431,3.27185231 C10.8468431,3.13425231 10.9033354,2.99468308 10.9521969,2.85216 C10.9766892,2.78089846 10.9984738,2.70865231 11.0164431,2.63529846 C11.0278892,2.58471385 11.0414277,2.52982154 11.0463508,2.47788308 C11.0625969,2.72723692 11.0793354,2.97388308 11.0826585,3.22188308 C11.0894277,3.49117538 11.0923815,3.76096 11.0870892,4.03185231 C11.0843815,4.16711385 11.0776123,4.30274462 11.0591508,4.43689846 C11.0416738,4.57129846 11.0111508,4.70372923 10.9855508,4.83640615 C10.9401354,5.09363692 10.8998892,5.35123692 10.8632123,5.61142154 L10.8632123,5.61129846 C10.6369969,5.42348308 10.4495508,5.18311385 10.3417354,4.91345231 M11.5830892,3.64846769 C11.5519508,3.49991385 11.5135508,3.35296 11.4614892,3.21092923 C11.3585969,2.92957538 11.2257969,2.66668308 11.0521354,2.41831385 C11.05152,2.41585231 11.0510277,2.41326769 11.0502892,2.41080615 L11.0474585,2.41129846 C11.0465969,2.41006769 11.0459815,2.40883692 11.0449969,2.40760615 C11.0448738,2.40896 11.0443815,2.41043692 11.0441354,2.41179077 L11.0422892,2.41216 C11.0424123,2.41462154 11.0425354,2.41708308 11.0426585,2.41966769 C11.0202585,2.57019077 10.9664738,2.70114462 10.9133046,2.83739077 C10.8580431,2.97585231 10.79232,3.11000615 10.7278277,3.24440615 C10.5978585,3.51419077 10.44832,3.76945231 10.3094892,4.03862154 L10.2603815,4.14397538 C10.24512,4.17954462 10.2374892,4.21831385 10.2256738,4.25536 C10.19872,4.32908308 10.1961354,4.40846769 10.1865354,4.48588308 C10.1845662,4.64256 10.2133662,4.79776 10.2697354,4.94200615 C10.3896123,5.22828308 10.5973662,5.46262154 10.8360123,5.64736 L10.8475815,5.65572923 C10.8475815,5.65806769 10.8704738,5.66508308 10.8781046,5.66212923 C10.8896738,5.65856 10.9014892,5.65425231 10.9094892,5.64896 C10.9280738,5.63936 10.9429662,5.62742154 10.95872,5.61609846 C10.9889969,5.59222154 11.0176738,5.56711385 11.0443815,5.54016 C11.0977969,5.48637538 11.1480123,5.42976 11.1935508,5.36969846 C11.2854892,5.24994462 11.3604431,5.11825231 11.4250585,4.98212923 C11.5503508,4.70791385 11.6209969,4.40662154 11.6253054,4.10200615 C11.6254277,3.94976 11.6109046,3.79776 11.5830892,3.64846769" id="Fill-87"></path>
            <path d="M13.8875323,5.96030769 C13.6367015,6.07833846 13.3746708,6.16843077 13.1013169,6.21052308 C12.8123323,6.25655385 12.5096862,6.25532308 12.2247631,6.17076923 C12.08224,6.13064615 11.9448862,6.07169231 11.8181169,5.99513846 C11.7539938,5.95796923 11.6936862,5.91476923 11.6375631,5.86713846 C11.6091323,5.84363077 11.5827938,5.81803077 11.5578092,5.79181538 C11.54624,5.77827692 11.5335631,5.76461538 11.5248246,5.75070769 C11.5203938,5.74516923 11.5187938,5.74073846 11.5167015,5.73630769 C11.7745477,5.78923077 12.0371938,5.8104 12.2994708,5.80941538 C12.4348554,5.80510769 12.5698708,5.79341538 12.7047631,5.78664615 C12.8396554,5.78184615 12.9746708,5.77938462 13.1100554,5.77778462 C13.3569477,5.77753846 13.6033477,5.75292308 13.8479015,5.71563077 C13.8427323,5.68695385 13.8379323,5.65803077 13.8325169,5.62935385 C13.5919015,5.66812308 13.3504246,5.70393846 13.1069785,5.73261538 C12.9733169,5.74824615 12.8389169,5.75993846 12.7041477,5.75981538 C12.5693785,5.76055385 12.4347323,5.74812308 12.3005785,5.74061538 C12.0410092,5.73027692 11.7819323,5.72523077 11.5205169,5.724 L11.52064,5.724 C11.6749785,5.47304615 11.8861785,5.25372308 12.1372554,5.1096 C12.2648862,5.04092308 12.4033477,4.99809231 12.5452554,4.98283077 C12.61664,4.98455385 12.6880246,4.97544615 12.7585477,4.99083077 C12.7937477,4.99686154 12.8298092,4.99846154 12.8645169,5.00793846 L12.9675323,5.03969231 C13.1061169,5.08301538 13.2456862,5.14627692 13.3874708,5.19181538 C13.5120246,5.23526154 13.6381785,5.27489231 13.7644554,5.31329231 C13.7585477,5.28818462 13.7533785,5.26270769 13.7471015,5.2376 C13.4949169,5.15070769 13.2495015,5.05015385 12.9947323,4.95883077 L12.8843323,4.92412308 C12.8471631,4.91378462 12.8080246,4.91132308 12.7698708,4.90467692 C12.6935631,4.88781538 12.61504,4.89593846 12.5375015,4.89704615 C12.3827938,4.91624615 12.2338708,4.96609231 12.0994708,5.04178462 C11.8336246,5.19993846 11.6309169,5.43883077 11.4813785,5.70172308 L11.4747323,5.7144 C11.4722708,5.71464615 11.4685785,5.73852308 11.4725169,5.74553846 C11.4776862,5.75673846 11.4835938,5.76793846 11.4898708,5.7752 C11.5018092,5.79230769 11.5155938,5.80547692 11.5288862,5.81975385 C11.5564554,5.84658462 11.5851323,5.87181538 11.6152862,5.89483077 C11.6754708,5.94061538 11.7381169,5.98295385 11.8034708,6.02024615 C11.9339323,6.09569231 12.0738708,6.15243077 12.2167631,6.19821538 C12.5039015,6.28596923 12.8101169,6.31538462 13.11104,6.27833846 C13.2608246,6.25790769 13.40864,6.22270769 13.5520246,6.17470769 C13.6695631,6.13249231 13.7842708,6.08326154 13.8960246,6.028 C13.8930708,6.00547692 13.8906092,5.98283077 13.8875323,5.96030769" id="Fill-88"></path>
            <path d="M13.5220431,4.50907077 C13.4712123,4.49602462 13.4205046,4.48273231 13.3693046,4.47140923 C13.2960738,4.45528615 13.2221046,4.44199385 13.1476431,4.43276308 C13.09632,4.42722462 13.0406892,4.42020923 12.9887508,4.42131692 C13.1448123,4.39239385 13.3001354,4.36494769 13.4554585,4.33934769 C13.4459815,4.31559385 13.4372431,4.29147077 13.4273969,4.26784 C13.2617354,4.30734769 13.0984123,4.35694769 12.9400123,4.41873231 C13.0798277,4.32174769 13.2250585,4.22956308 13.3743508,4.14427077 C13.3679508,4.12937846 13.3610585,4.11485538 13.3545354,4.10008615 C13.2058585,4.19559385 13.0635815,4.30144 12.9293046,4.42254769 C12.9268431,4.42353231 12.9243815,4.42427077 12.92192,4.42513231 L12.9227815,4.42796308 C12.9216738,4.42907077 12.9204431,4.42980923 12.9194585,4.43079385 C12.9208123,4.43091692 12.9222892,4.43116308 12.9237662,4.43116308 L12.9243815,4.43313231 C12.92672,4.43264 12.9291815,4.43214769 12.93152,4.43177846 C13.0827815,4.43657846 13.2185354,4.47485538 13.3593354,4.51202462 C13.4213662,4.52900923 13.4827815,4.54857846 13.5439508,4.56851692 C13.5366892,4.54870154 13.5294277,4.52888615 13.5220431,4.50907077" id="Fill-89"></path>
            <path d="M10.7208369,2.69266462 C10.5214523,2.90928 10.2722215,3.08380308 9.99849846,3.17684923 C9.86016,3.21968 9.71603692,3.23494154 9.57388308,3.22263385 C9.50422154,3.20724923 9.43234462,3.20244923 9.36600615,3.17377231 C9.33265231,3.16109538 9.29757538,3.15260308 9.26545231,3.13660308 L9.17019077,3.08552615 C9.04243692,3.01623385 8.91751385,2.92737231 8.78705231,2.85549538 C8.65782154,2.77980308 8.52649846,2.70755692 8.39394462,2.63789538 C8.26077538,2.56921846 8.12526769,2.50448 7.98656,2.44737231 C7.91726769,2.41857231 7.84662154,2.39272615 7.77486769,2.37057231 C7.72526769,2.35617231 7.67172923,2.33955692 7.62040615,2.33168 C7.86877538,2.32946462 8.11468308,2.32651077 8.36096,2.33734154 C8.62877538,2.34571077 8.89671385,2.35801846 9.16526769,2.37857231 C9.29954462,2.38891077 9.43382154,2.40343385 9.56588308,2.42952615 C9.69831385,2.45475692 9.82803692,2.49278769 9.95837538,2.52601846 C10.2111754,2.58632615 10.4645908,2.64109538 10.7208369,2.69266462 Z M9.26188308,1.91063385 C9.55443692,1.92109538 9.85117538,1.98066462 10.1146831,2.11838769 C10.2468677,2.18521846 10.37056,2.26964923 10.4804677,2.36921846 C10.5362215,2.41808 10.5871754,2.47211077 10.6332062,2.52971077 C10.6565908,2.55814154 10.6776369,2.58829538 10.6970831,2.61894154 C10.7059446,2.63444923 10.7157908,2.65020308 10.7216985,2.66571077 C10.7248985,2.67198769 10.72576,2.67654154 10.7269908,2.68121846 C10.4839138,2.57980308 10.2301292,2.50829538 9.97265231,2.45881846 C9.83886769,2.43691077 9.70409846,2.42238769 9.57043692,2.40306462 C9.43702154,2.38177231 9.30409846,2.35826462 9.17105231,2.33364923 C8.90508308,2.28183385 8.63419077,2.25795692 8.36305231,2.24909538 C8.09806769,2.24564923 7.83222154,2.26891077 7.57277538,2.32060308 C8.10139077,2.07752615 8.67776,1.88663385 9.26188308,1.91063385 L9.26188308,1.91063385 Z M10.7720369,2.68072615 C10.7692062,2.66878769 10.7655138,2.65672615 10.7607138,2.64835692 C10.7522215,2.62915692 10.7412677,2.61364923 10.7309292,2.59703385 C10.7088985,2.56528 10.6856369,2.53512615 10.6604062,2.50681846 C10.6099446,2.45020308 10.5566523,2.39654154 10.4994215,2.34743385 C10.3858215,2.24823385 10.2594215,2.16564923 10.1279754,2.09303385 C9.86262154,1.95161846 9.56772923,1.86374154 9.26545231,1.84220308 C9.11431385,1.83346462 8.96268308,1.83949538 8.81289846,1.85894154 C8.66360615,1.88171077 8.51554462,1.91211077 8.37154462,1.95629538 C8.08662154,2.04368 7.81794462,2.16208 7.56157538,2.32244923 C7.55911385,2.32306462 7.55652923,2.32331077 7.55406769,2.32380308 L7.55419077,2.32675692 C7.55308308,2.32761846 7.55172923,2.32823385 7.55049846,2.32897231 C7.55197538,2.32921846 7.55332923,2.32971077 7.55468308,2.33008 L7.55492923,2.33204923 L7.56231385,2.33204923 C7.71037538,2.36306462 7.83751385,2.42435692 7.96969846,2.48552615 C8.10409846,2.54891077 8.23357538,2.62238769 8.36342154,2.69488 C8.62385231,2.84048 8.86877538,3.00503385 9.12822154,3.15961846 L9.23000615,3.21500308 C9.26446769,3.23235692 9.30249846,3.24232615 9.33868308,3.25623385 C9.41031385,3.28749538 9.48883692,3.29451077 9.56514462,3.30841846 C9.72059077,3.31924923 9.87640615,3.29918769 10.0226215,3.25069538 C10.3136985,3.14657231 10.5582523,2.95124923 10.7549292,2.72208 L10.7640369,2.71088 C10.7663754,2.71112615 10.7746215,2.68835692 10.7720369,2.68072615 L10.7720369,2.68072615 Z" id="Fill-90"></path>
            <path d="M13.9525662,7.23293538 C13.9534277,7.21336615 13.9546585,7.19379692 13.9551508,7.17410462 C13.7478892,7.05090462 13.5302892,6.94518154 13.3078892,6.85127385 C13.0616123,6.75318154 12.8049969,6.67958154 12.5441969,6.63478154 C13.0137354,6.60438154 13.4998892,6.61915077 13.9535508,6.74825846 C13.9528123,6.72302769 13.9525662,6.69779692 13.9515815,6.67268923 C13.9231508,6.66481231 13.8950892,6.65496615 13.8664123,6.64807385 C13.7189662,6.61582769 13.5697969,6.59121231 13.4196431,6.58075077 C13.1222892,6.56032 12.8293662,6.57459692 12.5329969,6.63268923 C12.5304123,6.63219692 12.5279508,6.63158154 12.5253662,6.63108923 L12.5246277,6.63392 C12.5232738,6.63428923 12.5217969,6.63441231 12.52032,6.63465846 C12.5216738,6.63552 12.5226585,6.63650462 12.5240123,6.63724308 L12.52352,6.63921231 C12.5257354,6.64007385 12.5280738,6.64081231 12.5302892,6.64179692 C12.6576738,6.72388923 12.7547815,6.82678154 12.8566892,6.93127385 C12.9597046,7.03859692 13.0545969,7.15379692 13.1501046,7.26788923 C13.2318277,7.36548923 13.30912,7.46555077 13.3860431,7.56622769 C13.4160738,7.56105846 13.4453662,7.55576615 13.4729354,7.55059692 C13.3839508,7.44032 13.2926277,7.33201231 13.1988431,7.22567385 C13.0987815,7.11367385 12.9952738,7.00475077 12.8858585,6.90161231 C12.8313354,6.84992 12.7745969,6.80044308 12.7152738,6.75404308 C12.6740431,6.72278154 12.6298585,6.68807385 12.5846892,6.66222769 C12.8175508,6.74936615 13.04832,6.83478154 13.2746585,6.93299692 C13.5021046,7.02850462 13.7281969,7.12782769 13.9525662,7.23293538" id="Fill-91"></path>
            <path d="M12.4471631,10.2685662 C12.4188554,10.6253662 12.41504,10.9838892 12.4271015,11.3415508 C12.4524554,11.3097969 12.4778092,11.2781662 12.5025477,11.24592 C12.4839631,10.9207508 12.4667323,10.5952123 12.4552862,10.2688123 L12.4471631,10.2685662 Z" id="Fill-92"></path>
            <path d="M6.62744615,13.3641231 L6.62769231,13.3558769 C6.16258462,13.3177231 5.69476923,13.324 5.22990769,13.3594462 C4.99741538,13.3793846 4.76627692,13.4118769 4.53476923,13.4369846 L4.34793846,13.4575385 C4.3664,13.4650462 4.38436923,13.4732923 4.40307692,13.4806769 C4.67926154,13.4517538 4.95667692,13.4347692 5.23421538,13.4278769 C5.69821538,13.4048615 6.16196923,13.3818462 6.62744615,13.3641231" id="Fill-93"></path>
            <path d="M11.5909169,10.3243323 L11.5827938,10.3240862 C11.5473477,10.7681477 11.5490708,11.2145477 11.5735631,11.6592246 C11.5832862,11.8402708 11.5981785,12.0210708 11.6161477,12.2016246 C11.6419938,12.1784862 11.6668554,12.1544862 11.6923323,12.1311015 C11.68064,11.9720862 11.6687015,11.8131938 11.6583631,11.6541785 C11.6312862,11.2115938 11.6064246,10.7687631 11.5909169,10.3243323" id="Fill-94"></path>
            <path d="M10.7942769,11.7165292 C10.7669538,11.2717292 10.7419692,10.8266831 10.7264615,10.3797908 L10.7183385,10.3795446 C10.6828923,10.8260677 10.6846154,11.2746831 10.7097231,11.7216985 C10.7291692,12.0878523 10.7667077,12.4528985 10.8204923,12.8157292 C10.8393231,12.8030523 10.8587692,12.7911138 10.8776,12.7784369 L10.8417846,12.3834831 L10.7942769,11.7165292 Z" id="Fill-95"></path>
            <path d="M9.95545846,12.4662892 C9.93564308,12.2411815 9.93035077,12.0148431 9.92247385,11.7892431 L9.86204308,10.4352738 L9.85379692,10.4350277 C9.81613538,10.8870892 9.82130462,11.3416123 9.85453538,11.7934277 L9.99779692,13.1445662 L10.0120738,13.2781046 C10.0285662,13.2701046 10.0453046,13.2628431 10.0616738,13.2545969 C10.0551508,13.2159508 10.04912,13.1769354 10.0423508,13.1384123 C10.0041969,12.9156431 9.97404308,12.69152 9.95545846,12.4662892" id="Fill-96"></path>
            <path d="M8.20209231,11.9011446 C8.17390769,11.4503138 8.14855385,10.9991138 8.13304615,10.5461908 L8.12492308,10.5459446 C8.08947692,10.9984985 8.09156923,11.4533908 8.11741538,11.9063138 C8.14178462,12.3594831 8.19310769,12.8112985 8.26916923,13.2583138 C8.30129231,13.4512985 8.33181538,13.6439138 8.35409231,13.83776 C8.36356923,13.8359138 8.37292308,13.8336985 8.38227692,13.8317292 C8.35741538,13.6387446 8.33316923,13.44576 8.31372308,13.2522831 C8.26744615,12.8020677 8.23163077,12.3519754 8.20209231,11.9011446" id="Fill-97"></path>
            <path d="M7.31291077,11.9465723 C7.28164923,11.4991877 7.26355692,11.0504492 7.26872615,10.6017108 L7.26048,10.6014646 C7.24571077,11.0505723 7.25444923,11.4999262 7.27623385,11.9487877 C7.29961846,12.3975262 7.34109538,12.8454031 7.39955692,13.2911877 C7.42983385,13.51248 7.45888,13.7337723 7.48472615,13.9550646 C7.50294154,13.9538338 7.52115692,13.9527262 7.53937231,13.9512492 C7.51155692,13.72848 7.48054154,13.5062031 7.44841846,13.2844185 C7.38589538,12.8406031 7.34269538,12.39408 7.31291077,11.9465723" id="Fill-98"></path>
            <path d="M13.1855015,8.26556308 C13.1611323,8.26900923 13.13504,8.27220923 13.1096862,8.27553231 C13.1163323,8.35651692 13.1226092,8.43750154 13.1296246,8.51848615 C12.6784246,8.48414769 12.2250092,8.49374769 11.7747938,8.53017846 L10.3899323,8.69227077 C9.92888615,8.74224 9.46759385,8.78224 9.00556308,8.81350154 C8.54340923,8.84365538 8.08088615,8.86987077 7.61676308,8.88525538 L7.61651692,8.89362462 C8.08039385,8.92944 8.54673231,8.92648615 9.01085538,8.89854769 C9.47522462,8.87270154 9.93811692,8.81694769 10.3963323,8.73707077 C10.6250092,8.69817846 10.8541785,8.66100923 11.0853169,8.64094769 C11.3159631,8.61608615 11.5482092,8.61054769 11.7794708,8.59860923 C12.2295631,8.57411692 12.6792862,8.54851692 13.1307323,8.53067077 C13.1549785,8.81670154 13.1811938,9.10260923 13.2085169,9.38839385 C12.7551015,9.35565538 12.2994708,9.36144 11.8459323,9.39060923 C11.3799631,9.42039385 10.9154708,9.47787077 10.4560246,9.56020923 C9.99780923,9.64414769 9.53184,9.67910154 9.06673231,9.69079385 C8.60211692,9.71393231 8.13799385,9.73694769 7.67190154,9.75467077 L7.67165538,9.76291692 C8.13737846,9.80107077 8.60568615,9.79479385 9.07104,9.75922462 C9.30365538,9.73928615 9.53516308,9.70679385 9.76691692,9.68168615 L10.4624246,9.60500923 C10.92544,9.55245538 11.3880862,9.51073231 11.85184,9.47565538 C12.3036554,9.44427077 12.75584,9.41620923 13.2096246,9.40033231 C13.2251323,9.56107077 13.2402708,9.72205538 13.25664,9.88291692 C13.2607015,9.92205538 13.2640246,9.96131692 13.2680862,10.0005785 C13.2891323,9.95664 13.3095631,9.91245538 13.3296246,9.86814769 C13.2762092,9.33448615 13.2287015,8.80020923 13.1855015,8.26556308" id="Fill-99"></path>
            <path d="M9.06663385,11.8479015 C9.03844923,11.3963323 9.01297231,10.9443938 8.99758769,10.4908554 L8.98934154,10.4904862 C8.95389538,10.9437785 8.95611077,11.3994092 8.98208,11.8530708 C9.00644923,12.3068554 9.05789538,12.7594092 9.13432615,13.2072862 C9.15672615,13.3425477 9.17789538,13.4775631 9.19721846,13.6130708 C9.20632615,13.6098708 9.21568,13.6069169 9.22491077,13.6037169 C9.20829538,13.4696862 9.19241846,13.3355323 9.17888,13.2011323 C9.13223385,12.7504246 9.09629538,12.2994708 9.06663385,11.8479015" id="Fill-100"></path>
            <path d="M5.90834462,8.57824 L5.96816,9.92396308 L5.97652923,9.92420923 C6.01492923,9.47510154 6.01012923,9.02304 5.97628308,8.57393231 C5.95892923,8.36544 5.93062154,8.15805538 5.90772923,7.95042462 C5.89751385,7.94931692 5.88680615,7.94808615 5.87659077,7.94697846 C5.89468308,8.15694769 5.90059077,8.36790154 5.90834462,8.57824" id="Fill-101"></path>
            <path d="M5.04379077,8.63233231 L5.10372923,9.97953231 L5.11197538,9.97977846 C5.15049846,9.52993231 5.14557538,9.07762462 5.11185231,8.62802462 C5.09302154,8.40328615 5.06114462,8.17990154 5.03751385,7.95590154 L5.02816,7.86962462 C5.01831385,7.86888615 5.00859077,7.86814769 4.99874462,7.86740923 C5.02372923,8.12168615 5.03812923,8.37707077 5.04379077,8.63233231" id="Fill-102"></path>
            <path d="M4.14583385,8.02530462 C4.16675692,8.24795077 4.17168,8.47195077 4.17968,8.69521231 L4.23937231,10.0349046 L4.24749538,10.0352738 C4.28614154,9.58788923 4.28134154,9.13804308 4.24774154,8.69090462 C4.22928,8.46739692 4.19740308,8.24512 4.17414154,8.02247385 L4.15186462,7.81447385 C4.14189538,7.81398154 4.13254154,7.81361231 4.12269538,7.81324308 C4.13094154,7.88388923 4.14017231,7.95441231 4.14583385,8.02530462" id="Fill-103"></path>
            <path d="M6.77336615,8.53377231 L6.83256615,9.86841846 L6.84093538,9.86878769 C6.87933538,9.42324923 6.87465846,8.97488 6.84142769,8.52958769 L6.79010462,8.05549538 C6.77730462,8.05377231 6.76450462,8.05204923 6.75182769,8.05044923 C6.76142769,8.21143385 6.76770462,8.37266462 6.77336615,8.53377231" id="Fill-104"></path>
            <path d="M3.30786462,8.76496 C3.33740308,9.20606769 3.35611077,9.64717538 3.37900308,10.0906215 C3.40608,9.86957538 3.40780308,9.64729846 3.41051077,9.42539077 C3.41088,9.20348308 3.40657231,8.98132923 3.39241846,8.75979077 C3.37506462,8.43486769 3.34257231,8.11080615 3.29678769,7.78871385 C3.27389538,7.78834462 3.25198769,7.78834462 3.22921846,7.78822154 C3.25949538,8.11363692 3.28644923,8.43905231 3.30786462,8.76496" id="Fill-105"></path>
            <path d="M1.55533538,8.21880615 C1.57502769,8.43849846 1.57995077,8.65942154 1.58758154,8.87960615 L1.64592,10.2013292 L1.65416615,10.2016985 C1.69268923,9.76046769 1.68813538,9.31665231 1.65552,8.87554462 L1.54462769,7.84268308 C1.53416615,7.84342154 1.52308923,7.84428308 1.51275077,7.84502154 C1.53010462,7.96932923 1.54499692,8.09376 1.55533538,8.21880615" id="Fill-106"></path>
            <path d="M2.42023385,8.16724923 C2.43980308,8.38657231 2.44472615,8.60700308 2.45223385,8.82681846 L2.51032615,10.1458338 L2.51869538,10.1462031 C2.55709538,9.70583385 2.55254154,9.26288 2.52017231,8.82263385 L2.41014154,7.79592615 C2.39955692,7.79629538 2.38872615,7.79654154 2.37826462,7.79691077 C2.39524923,7.91998769 2.40989538,8.04343385 2.42023385,8.16724923" id="Fill-107"></path>
            <path d="M3.72900923,11.8204923 C4.18796308,11.7361846 4.65442462,11.7012308 5.12027077,11.6894154 C5.58562462,11.6662769 6.05036308,11.6431385 6.51707077,11.6254154 L6.51731692,11.6171692 C6.05097846,11.5790154 5.58205538,11.5854154 5.11608615,11.6209846 C4.88297846,11.6410462 4.65122462,11.6735385 4.41910154,11.6987692 L3.72260923,11.7756923 C3.25897846,11.8281231 2.79547077,11.8697231 2.33122462,11.9046769 C2.23719385,11.9110769 2.14304,11.9164923 2.04900923,11.9226462 C2.07510154,11.9487385 2.10144,11.9744615 2.12790154,12.0001846 C2.19768615,11.9968615 2.26734769,11.9941538 2.33688615,11.9897231 C2.80359385,11.9601846 3.26894769,11.9028308 3.72900923,11.8204923" id="Fill-108"></path>
            <path d="M5.17864615,12.5584738 C5.64276923,12.5354585 6.10664615,12.5124431 6.57224615,12.49472 L6.57249231,12.4864738 C6.10726154,12.44832 5.63932308,12.4545969 5.17433846,12.4901662 C4.94184615,12.5099815 4.71058462,12.5424738 4.47895385,12.5675815 L3.78406154,12.6441354 C3.52313846,12.6737969 3.26221538,12.6992738 3.00129231,12.7227815 C3.03513846,12.7464123 3.06935385,12.7696738 3.10381538,12.7926892 C3.3336,12.7645046 3.56264615,12.72992 3.79046154,12.6890585 C4.24830769,12.6049969 4.71378462,12.5701662 5.17864615,12.5584738" id="Fill-109"></path>
            <path d="M2.26338462,11.1209723 C2.73230769,11.0921723 3.19950769,11.0350646 3.66178462,10.9527262 C4.12258462,10.8679262 4.59113846,10.8326031 5.05907692,10.8204185 C5.5264,10.7970338 5.99323077,10.7736492 6.46190769,10.7560492 L6.46215385,10.7478031 C5.99384615,10.7095262 5.52270769,10.7161723 5.05476923,10.7519877 C4.82067692,10.7722954 4.58806154,10.8047877 4.35483077,10.8303877 L3.65538462,10.9080492 C3.18978462,10.9602338 2.72418462,11.0017108 2.25784615,11.0359262 C1.95236923,11.0567262 1.64652308,11.0743262 1.34030769,11.0894646 C1.35310769,11.1070646 1.36590769,11.1244185 1.37883077,11.1418954 C1.67372308,11.1466954 1.96898462,11.1394338 2.26338462,11.1209723" id="Fill-110"></path>
            <path d="M0.547766154,7.96279385 C0.571027692,8.37940923 0.600196923,8.79553231 0.634166154,9.21153231 C0.655458462,9.48451692 0.679704615,9.75737846 0.705673846,10.03024 C0.740627692,10.1023631 0.776196923,10.1739938 0.813612308,10.24464 C0.741858462,9.48070154 0.677981538,8.71602462 0.622227692,7.95048615 C0.596504615,7.95467077 0.571643077,7.95873231 0.547766154,7.96279385" id="Fill-111"></path>
        </g>
    </g>
</svg>