<svg xmlns="http://www.w3.org/2000/svg" width="180" height="180" viewBox="0 0 180 180">
    <g fill="#FFF" fill-rule="evenodd">
        <g>
            <path d="M12.997 24.277L15.034 24.277 15.034 23.922 12.997 23.922zM17.316 20.501L17.316 20.882 19.507 20.882 19.507 26.699 19.954 26.699 19.954 20.882 22.13 20.882 22.13 20.501zM22.906 26.467c.17 0 .325-.017.467-.054.14-.036.272-.088.393-.154.122-.065.235-.143.34-.234.105-.09.209-.188.312-.294v-1.134c-.415.012-.773.043-1.071.094-.3.051-.547.12-.741.208-.194.087-.338.192-.43.314-.091.12-.137.258-.137.413 0 .147.023.272.072.38.048.106.112.193.19.262.08.069.171.12.276.151.106.032.214.048.329.048zm1.752.232c-.087 0-.141-.04-.163-.122l-.06-.557c-.12.118-.239.222-.357.316-.119.093-.242.173-.37.237-.13.064-.268.113-.417.145-.148.034-.312.052-.49.052-.149 0-.294-.022-.434-.066-.14-.044-.264-.111-.372-.202-.108-.09-.195-.206-.26-.348-.067-.141-.1-.312-.1-.51 0-.185.053-.355.158-.513.105-.157.269-.294.494-.412.223-.117.51-.21.862-.28.352-.07.774-.111 1.269-.122v-.456c0-.403-.088-.713-.262-.931-.173-.217-.431-.326-.773-.326-.21 0-.39.029-.536.087-.148.06-.272.123-.375.193-.102.07-.185.134-.25.193-.063.058-.118.088-.162.088-.058 0-.102-.027-.131-.08l-.074-.127c.228-.228.468-.4.718-.516.25-.117.536-.176.854-.176.233 0 .438.038.613.112.175.074.321.181.436.32.115.139.203.307.261.504.058.196.087.416.087.659v2.838h-.166zM28.011 22.604c-.289 0-.55.074-.785.223-.234.149-.443.357-.628.622v2.3c.167.25.352.428.554.528.202.1.434.15.697.15.257 0 .482-.046.676-.14.193-.093.354-.225.485-.396.13-.17.228-.375.293-.613.066-.238.1-.5.1-.786 0-.649-.121-1.126-.36-1.43-.24-.306-.584-.458-1.032-.458zm-1.829 4.095v-6.374h.416l.005 2.778c.192-.257.416-.46.67-.609.254-.149.54-.223.858-.223.535 0 .952.184 1.251.554.3.37.45.925.45 1.667 0 .318-.042.615-.126.891-.083.276-.206.515-.368.718-.163.204-.361.364-.596.48-.236.117-.508.175-.814.175-.304 0-.566-.059-.786-.177-.219-.118-.408-.292-.565-.524l-.027.534c-.008.074-.048.11-.116.11h-.252zM31.043 26.699L31.46 26.699 31.46 20.326 31.043 20.326zM34.651 22.582c-.224 0-.426.035-.603.105-.179.07-.331.171-.462.302-.13.132-.235.289-.315.474-.08.183-.133.39-.16.617h2.87c0-.234-.032-.444-.096-.628-.064-.187-.154-.343-.272-.472-.116-.128-.256-.226-.419-.295-.163-.069-.345-.103-.543-.103m-.006-.311c.245 0 .472.042.681.127.209.085.39.208.543.37.154.162.273.362.36.598.085.236.13.508.13.814 0 .065-.011.11-.03.132-.019.024-.05.035-.09.035h-3.145v.084c0 .326.039.614.114.863.077.247.185.456.325.624.139.168.308.294.507.38.199.083.42.126.665.126.221 0 .41-.025.57-.072.16-.05.296-.103.406-.163.11-.059.196-.114.26-.161.064-.05.112-.073.141-.073.038 0 .067.014.087.044l.114.14c-.07.088-.162.169-.278.245-.116.076-.244.141-.386.195-.14.054-.293.097-.455.13-.163.031-.325.047-.489.047-.297 0-.569-.052-.814-.156-.246-.102-.456-.254-.632-.452-.176-.199-.31-.442-.408-.73-.095-.287-.143-.617-.143-.987 0-.313.045-.601.134-.866.089-.265.217-.492.385-.683.168-.191.374-.34.618-.45.244-.107.52-.161.83-.161M40.819 22.582c-.224 0-.426.035-.603.105-.179.07-.331.171-.462.302-.13.132-.235.289-.315.474-.08.183-.133.39-.16.617h2.87c0-.234-.032-.444-.096-.628-.064-.187-.154-.343-.272-.472-.116-.128-.256-.226-.419-.295-.163-.069-.345-.103-.543-.103m-.006-.311c.245 0 .472.042.681.127.209.085.39.208.543.37.154.162.273.362.36.598.085.236.13.508.13.814 0 .065-.011.11-.03.132-.019.024-.05.035-.09.035h-3.145v.084c0 .326.039.614.114.863.077.247.184.456.325.624.139.168.308.294.507.38.199.083.42.126.665.126.22 0 .41-.025.57-.072.16-.05.296-.103.406-.163.11-.059.196-.114.26-.161.064-.05.112-.073.141-.073.038 0 .067.014.087.044l.114.14c-.07.088-.162.169-.278.245-.116.076-.244.141-.386.195-.14.054-.293.097-.455.13-.163.031-.325.047-.489.047-.297 0-.569-.052-.814-.156-.246-.102-.456-.254-.632-.452-.176-.199-.31-.442-.408-.73-.095-.287-.143-.617-.143-.987 0-.313.044-.601.134-.866.089-.265.217-.492.385-.683.168-.191.373-.34.618-.45.244-.107.52-.161.83-.161M44.834 26.77c-.295 0-.524-.083-.687-.246-.164-.163-.246-.416-.246-.758v-2.979h-.626c-.032 0-.059-.008-.08-.026-.02-.017-.03-.042-.03-.075v-.161l.745-.052.104-1.56c.003-.027.013-.05.032-.07.019-.02.044-.03.076-.03h.195v1.664h1.37v.31h-1.37v2.958c0 .119.015.222.046.308.03.087.073.157.127.212.054.056.118.097.191.123.073.027.151.04.236.04.106 0 .196-.015.271-.046.076-.03.143-.064.197-.1.056-.037.102-.071.137-.101.034-.03.062-.047.083-.047.023 0 .046.015.07.044l.114.184c-.111.123-.252.222-.422.295-.172.075-.35.112-.533.112M53.174 25.657c.03 0 .054.01.075.03l.175.188c-.129.138-.268.262-.42.37-.152.11-.318.204-.498.282-.18.077-.376.137-.59.18-.216.041-.452.063-.708.063-.43 0-.823-.075-1.182-.227-.357-.15-.664-.363-.919-.638-.256-.276-.454-.61-.598-1-.143-.393-.215-.828-.215-1.306 0-.47.074-.9.222-1.29.146-.387.354-.72.622-1 .267-.278.587-.495.959-.648.372-.154.784-.23 1.233-.23.225 0 .43.016.618.05.186.034.362.082.523.145.162.063.315.141.458.234.143.094.283.202.42.324l-.135.197c-.023.035-.06.054-.11.054-.026 0-.06-.016-.1-.047l-.156-.114c-.063-.045-.138-.095-.228-.148-.09-.055-.195-.104-.318-.15-.122-.045-.264-.083-.424-.113-.161-.03-.344-.047-.548-.047-.376 0-.723.066-1.038.195-.315.13-.587.316-.814.557-.228.24-.407.533-.533.875-.127.344-.19.73-.19 1.156 0 .437.063.828.187 1.173.126.344.3.635.521.874.223.238.485.42.787.548.303.126.63.19.983.19.223 0 .42-.014.594-.044s.334-.073.48-.131c.147-.058.282-.13.407-.214.126-.086.25-.185.372-.299.015-.012.03-.021.042-.028.014-.007.03-.011.046-.011M54.624 26.7v-6.374h.416v2.759c.201-.247.432-.445.69-.593.258-.147.548-.22.87-.22.239 0 .45.037.632.112.183.077.334.186.453.33.121.142.211.315.272.516.062.201.092.43.092.684v2.785h-.416v-2.785c0-.41-.093-.73-.28-.962-.187-.233-.474-.348-.859-.348-.286 0-.552.074-.797.22-.245.149-.465.35-.657.607V26.7h-.416zM60.393 26.467c.17 0 .325-.017.467-.054.141-.036.272-.088.393-.154.122-.065.235-.143.34-.234.106-.09.209-.188.311-.294v-1.134c-.415.012-.772.043-1.07.094-.3.051-.546.12-.742.208-.193.087-.336.192-.428.314-.092.12-.138.258-.138.413 0 .147.023.272.072.38.048.106.112.193.19.262.08.069.172.12.276.151.106.032.215.048.33.048zm1.752.232c-.087 0-.141-.04-.162-.122l-.062-.557c-.119.118-.238.222-.356.316-.119.093-.241.173-.37.237s-.267.113-.417.145c-.148.034-.311.052-.49.052-.148 0-.294-.022-.434-.066-.14-.044-.264-.111-.373-.202-.107-.09-.194-.206-.26-.348-.066-.141-.099-.312-.099-.51 0-.185.054-.355.158-.513.105-.157.27-.294.494-.412.222-.117.51-.21.862-.28.352-.07.775-.111 1.268-.122v-.456c0-.403-.087-.713-.261-.931-.172-.217-.431-.326-.772-.326-.21 0-.39.029-.537.087-.148.06-.273.123-.374.193-.104.07-.186.134-.25.193-.065.058-.118.088-.163.088-.059 0-.102-.027-.131-.08l-.074-.127c.228-.228.467-.4.718-.516.25-.117.536-.176.854-.176.234 0 .438.038.614.112.175.074.32.181.436.32.115.139.201.307.26.504.058.196.087.416.087.659v2.838h-.166zM63.625 26.7v-4.36h.228c.076 0 .121.038.131.11l.04.632c.084-.12.176-.23.272-.33.096-.1.2-.184.31-.255.108-.072.226-.127.349-.167.124-.04.254-.059.392-.059.318 0 .573.092.762.279.19.184.319.442.387.772.05-.18.124-.337.22-.47.094-.13.204-.238.326-.325.122-.086.255-.15.4-.193.144-.042.293-.063.443-.063.217 0 .41.035.583.107.172.072.318.177.44.318.12.14.212.312.276.517.064.204.096.437.096.7V26.7h-.415v-2.785c0-.427-.092-.752-.277-.975-.184-.223-.446-.335-.787-.335-.153 0-.297.028-.437.082-.138.056-.26.139-.368.248-.106.11-.19.247-.254.41-.062.164-.094.354-.094.57v2.785h-.416v-2.785c0-.424-.085-.748-.254-.972-.17-.226-.416-.338-.74-.338-.236 0-.456.07-.658.212-.201.142-.38.338-.538.59v3.293h-.417zM72.467 22.604c-.288 0-.55.074-.784.223-.235.149-.444.357-.628.622v2.3c.166.25.352.428.553.528.202.1.435.15.697.15.258 0 .482-.046.676-.14.194-.093.354-.225.485-.396.13-.17.228-.375.293-.613.066-.238.1-.5.1-.786 0-.649-.12-1.126-.36-1.43-.24-.306-.583-.458-1.032-.458zm-1.828 4.095v-6.374h.416l.004 2.778c.192-.257.416-.46.67-.609.255-.149.54-.223.86-.223.533 0 .95.184 1.25.554.3.37.448.925.448 1.667 0 .318-.041.615-.124.891-.084.276-.207.515-.368.718-.163.204-.362.364-.597.48-.235.117-.507.175-.814.175-.304 0-.566-.059-.785-.177-.219-.118-.408-.292-.566-.524l-.026.534c-.008.074-.048.11-.117.11h-.25zM75.378 26.7v-4.36h.22c.05 0 .084.01.107.031.022.02.033.056.037.106l.035.92c.14-.353.327-.63.56-.83.234-.2.522-.3.863-.3.132 0 .253.014.364.04.111.029.216.069.316.12l-.057.29c-.01.047-.038.07-.088.07-.017 0-.042-.005-.074-.017-.032-.012-.072-.024-.121-.04-.048-.014-.107-.027-.178-.039-.07-.011-.15-.017-.24-.017-.33 0-.6.102-.813.307-.212.204-.383.499-.514.885v2.833h-.417zM80.505 22.582c-.224 0-.426.035-.603.105-.179.07-.331.171-.462.302-.13.132-.235.289-.315.474-.08.183-.133.39-.16.617h2.87c0-.234-.032-.444-.096-.628-.064-.187-.154-.343-.272-.472-.116-.128-.256-.226-.419-.295-.163-.069-.345-.103-.543-.103m-.006-.311c.245 0 .472.042.681.127.209.085.39.208.543.37.154.162.273.362.36.598.085.236.13.508.13.814 0 .065-.011.11-.03.132-.019.024-.05.035-.09.035h-3.145v.084c0 .326.039.614.114.863.077.247.184.456.325.624.139.168.308.294.507.38.199.083.42.126.665.126.22 0 .41-.025.57-.072.16-.05.296-.103.406-.163.11-.059.196-.114.26-.161.064-.05.112-.073.141-.073.038 0 .067.014.087.044l.114.14c-.07.088-.162.169-.278.245-.116.076-.244.141-.386.195-.14.054-.293.097-.455.13-.163.031-.325.047-.489.047-.297 0-.569-.052-.814-.156-.246-.102-.456-.254-.632-.452-.176-.199-.31-.442-.408-.73-.095-.287-.143-.617-.143-.987 0-.313.045-.601.134-.866.089-.265.217-.492.385-.683.168-.191.374-.34.618-.45.244-.107.52-.161.83-.161M86.515 26.42c.29 0 .552-.076.786-.224.233-.15.443-.357.628-.623v-2.3c-.17-.247-.357-.422-.56-.525-.203-.102-.434-.153-.691-.153-.257 0-.482.046-.676.14-.192.094-.354.226-.484.396-.13.172-.228.376-.294.614-.066.238-.098.5-.098.786 0 .648.119 1.125.359 1.43.24.306.583.458 1.03.458zm1.6.28c-.072 0-.114-.038-.125-.114l-.044-.688c-.193.263-.419.472-.678.626-.258.155-.549.232-.87.232-.536 0-.953-.185-1.253-.556-.3-.37-.45-.928-.45-1.669 0-.318.042-.616.126-.892.083-.275.206-.515.369-.717.161-.204.36-.363.596-.481.236-.116.507-.174.813-.174.296 0 .551.054.767.164.217.11.404.27.563.479v-2.584h.415v6.373h-.229zM90.15 20.23c.063.11.11.22.14.33.028.11.043.22.043.33 0 .228-.056.448-.167.657-.111.211-.255.403-.433.575l-.123-.079c-.02-.017-.03-.038-.03-.061 0-.024.009-.044.025-.062.112-.146.204-.292.277-.44.073-.147.109-.3.109-.458 0-.17-.051-.343-.154-.521-.013-.023-.02-.047-.02-.07 0-.041.02-.07.065-.087l.267-.114zM91.538 26.7v-6.374h.417v2.759c.2-.247.43-.445.69-.593.257-.147.547-.22.869-.22.239 0 .45.037.633.112.182.077.333.186.452.33.121.142.212.315.272.516.062.201.092.43.092.684v2.785h-.416v-2.785c0-.41-.093-.73-.28-.962-.187-.233-.474-.348-.859-.348-.286 0-.552.074-.797.22-.245.149-.464.35-.656.607V26.7h-.417zM99.08 21.579h-.284c-.046 0-.086-.018-.12-.052l-.682-.715c-.018-.012-.033-.028-.048-.048-.006.012-.013.021-.022.028l-.022.02-.688.715c-.014.013-.032.026-.052.036-.02.01-.043.016-.066.016h-.294l.956-1.079h.372l.95 1.079zm-1.143 4.85c.26 0 .488-.045.681-.134.195-.09.356-.218.486-.384.13-.167.227-.367.292-.603.065-.235.097-.498.097-.79 0-.289-.032-.553-.097-.789s-.162-.438-.292-.606c-.13-.168-.291-.297-.486-.388-.193-.09-.421-.136-.681-.136-.26 0-.487.045-.68.136-.195.091-.358.22-.487.388-.13.168-.228.37-.294.606-.066.236-.098.5-.098.79 0 .291.032.554.098.79.066.235.163.435.294.602.13.166.292.294.487.384.193.089.42.133.68.133zm0-4.158c.313 0 .593.053.838.16.248.106.455.257.625.453.17.196.298.432.388.708.089.276.134.584.134.926 0 .342-.045.65-.134.924-.09.274-.218.51-.388.706-.17.196-.377.346-.625.45-.245.106-.525.158-.838.158-.312 0-.592-.052-.84-.158-.246-.104-.455-.254-.625-.45-.171-.196-.3-.432-.39-.706-.088-.274-.133-.582-.133-.924 0-.342.045-.65.133-.926.09-.276.219-.512.39-.708.17-.196.38-.347.626-.454.247-.106.527-.16.839-.16zM102.203 26.77c-.294 0-.524-.083-.687-.246-.163-.163-.245-.416-.245-.758v-2.979h-.627c-.032 0-.057-.008-.079-.026-.02-.017-.03-.042-.03-.075v-.161l.744-.052.105-1.56c.003-.027.013-.05.032-.07.019-.02.043-.03.075-.03h.196v1.664h1.37v.31h-1.37v2.958c0 .119.016.222.046.308.03.087.073.157.126.212.056.056.119.097.192.123.072.027.15.04.236.04.105 0 .196-.015.272-.046.075-.03.141-.064.196-.1.056-.037.101-.071.136-.101.036-.03.063-.047.084-.047.023 0 .046.015.07.044l.114.184c-.11.123-.252.222-.423.295-.171.075-.349.112-.533.112M105.789 22.582c-.225 0-.426.035-.604.105-.178.07-.332.171-.462.302-.13.132-.234.289-.314.474-.08.183-.134.39-.16.617h2.87c0-.234-.033-.444-.097-.628-.065-.187-.154-.343-.271-.472-.117-.128-.257-.226-.42-.295-.163-.069-.345-.103-.542-.103m-.007-.311c.245 0 .473.042.682.127.208.085.39.208.542.37.155.162.274.362.36.598.086.236.13.508.13.814 0 .065-.01.11-.029.132-.02.024-.05.035-.09.035h-3.145v.084c0 .326.038.614.113.863.076.247.184.456.325.624.14.168.309.294.507.38.199.083.421.126.666.126.22 0 .41-.025.57-.072.16-.05.296-.103.405-.163.11-.059.196-.114.261-.161.064-.05.111-.073.14-.073.038 0 .067.014.087.044l.115.14c-.07.088-.163.169-.279.245-.115.076-.243.141-.385.195-.142.054-.293.097-.456.13-.162.031-.324.047-.488.047-.298 0-.57-.052-.814-.156-.246-.102-.457-.254-.632-.452-.176-.199-.312-.442-.408-.73-.095-.287-.143-.617-.143-.987 0-.313.044-.601.133-.866.09-.265.218-.492.386-.683.167-.191.373-.34.617-.45.244-.107.52-.161.83-.161M111.017 22.884c-.02.041-.052.061-.096.061-.032 0-.074-.017-.125-.054-.052-.037-.12-.078-.202-.123-.083-.045-.186-.086-.307-.123-.12-.037-.27-.054-.444-.054-.158 0-.302.022-.432.068-.13.045-.24.105-.333.18-.092.077-.163.164-.214.265-.051.1-.077.206-.077.316 0 .138.035.25.105.342.071.09.162.167.275.231.115.064.244.12.389.167l.444.14c.153.045.3.098.445.155.144.057.273.127.388.213.113.084.205.188.276.31.07.123.105.272.105.447 0 .19-.034.367-.104.53-.068.164-.167.305-.297.425-.13.12-.29.215-.48.285-.19.069-.406.104-.648.104-.307 0-.57-.049-.793-.146-.223-.098-.42-.226-.595-.383l.1-.15c.015-.022.03-.04.048-.052.018-.011.043-.018.075-.018.037 0 .085.024.14.07.056.047.128.098.217.151.09.055.2.105.332.152.133.047.298.07.493.07.184 0 .347-.026.487-.077.14-.051.256-.12.35-.208.094-.087.164-.19.213-.309.048-.117.072-.243.072-.373 0-.148-.035-.268-.106-.364-.07-.097-.161-.179-.276-.246-.113-.067-.242-.124-.386-.17-.146-.048-.294-.094-.448-.141-.153-.047-.302-.098-.447-.153-.144-.055-.273-.126-.387-.211-.113-.084-.206-.187-.276-.31-.07-.12-.105-.27-.105-.452 0-.154.033-.304.1-.447.068-.142.164-.268.288-.376.124-.108.275-.194.452-.258.179-.065.379-.097.6-.097.267 0 .502.038.708.116.206.077.396.194.568.353l-.092.144zM113.803 24.277L115.84 24.277 115.84 23.922 113.803 23.922zM7.678 12.167H0l.032-.193c.257 0 .462-.01.618-.032.156-.021.298-.08.426-.176.129-.097.222-.207.282-.33.058-.122.108-.329.152-.618.053-.375.08-1.135.08-2.281V4.554c0-1.596-.075-2.565-.224-2.907-.14-.3-.376-.471-.707-.514C.498 1.112.29 1.1.032 1.1L0 .924h4.32L4.29 1.1c-.535 0-.927.102-1.173.306-.267.224-.402 1.274-.402 3.148v4.224c0 1.156.039 1.925.113 2.305.075.38.251.635.53.763 2.763 0 4.144-.659 4.144-1.976l.177-.032v2.33z" transform="translate(25 22) translate(0 109.209)"/>
            <path d="M11.485 4.904L9.901 9.435h3.248l-1.664-4.531zm2.176 7.06c.116-.044.175-.161.175-.347 0-.188-.2-.826-.597-1.912H9.81c-.322.95-.483 1.55-.483 1.792 0 .244.062.394.186.45.123.057.346.085.668.085l.022.135h-2.53l.024-.135c.217 0 .388-.019.51-.056.126-.038.26-.137.406-.298.146-.16.287-.395.421-.703.135-.307.297-.738.484-1.293l1-2.89c.352-1.019.529-1.638.529-1.855 0-.216-.052-.357-.158-.42-.104-.064-.307-.096-.607-.096l-.022-.124h1.855l1.99 5.385c.337.892.564 1.459.68 1.698.116.24.227.393.332.46.187.129.424.192.708.192l.023.135h-2.811l.023-.135c.284 0 .485-.023.601-.067zM30.413 10.93c-1.231.932-2.707 1.398-4.425 1.398-1.72 0-3.102-.551-4.153-1.654-1.049-1.104-1.573-2.48-1.573-4.128 0-1.65.505-3.023 1.517-4.12C22.792 1.328 24.154.779 25.867.779c.793 0 1.585.107 2.378.321.79.214 1.39.434 1.798.66v2.054l-.177-.032c-.268-.964-.73-1.643-1.39-2.039-.657-.396-1.528-.594-2.609-.594-1.371 0-2.414.495-3.132 1.485-.717.99-1.076 2.284-1.076 3.88 0 1.595.38 2.885 1.14 3.87.76.986 1.826 1.478 3.197 1.478.984 0 1.806-.12 2.466-.361.658-.242 1.308-.591 1.95-1.053v.482zM35.274 12.021c.956 0 1.683-.347 2.181-1.04.499-.694.747-1.606.747-2.738s-.262-2.046-.787-2.743c-.525-.697-1.265-1.046-2.22-1.046-.956 0-1.682.345-2.18 1.035-.5.689-.749 1.602-.749 2.738 0 1.135.262 2.05.788 2.748.524.696 1.264 1.046 2.22 1.046M35.2 4.196c1.206 0 2.172.369 2.894 1.107.724.738 1.086 1.694 1.086 2.868 0 1.172-.35 2.15-1.051 2.933-.701.784-1.652 1.175-2.85 1.175-1.2 0-2.165-.393-2.896-1.18-.73-.788-1.096-1.767-1.096-2.94s.35-2.127 1.051-2.861c.701-.735 1.655-1.102 2.862-1.102M39.743 4.297h6.476v1.618l-.113-.022c0-.914-.907-1.371-2.72-1.371v5.104c0 1.11.064 1.784.19 2.024.046.09.124.168.237.236.113.068.233.108.36.124.126.015.304.022.528.022l.022.135H41.26l.023-.135c.225 0 .403-.006.535-.018.13-.01.25-.053.36-.128.108-.075.186-.153.236-.236.048-.083.09-.23.128-.438.038-.255.056-.784.056-1.586V4.522c-1.813 0-2.72.457-2.72 1.37l-.135.023V4.297zM52.616 12.167H46.95l.022-.135c.375 0 .648-.071.82-.214.188-.157.282-.888.282-2.192V6.838c0-.802-.024-1.352-.073-1.648-.05-.296-.119-.48-.208-.556-.173-.142-.446-.214-.821-.214l-.022-.123h5.25v1.619l-.134-.023c0-.502-.265-.85-.793-1.045-.53-.196-1.337-.293-2.423-.293v3.542c.719 0 1.236-.038 1.55-.113.316-.074.518-.189.608-.342.09-.154.135-.41.135-.77l.123-.022v2.732l-.123-.024c0-.367-.045-.625-.135-.775-.09-.15-.292-.26-.607-.333-.315-.07-.832-.105-1.55-.105v1.45c0 .794.027 1.323.083 1.585.056.262.182.438.376.529 2.115 0 3.17-.45 3.17-1.35l.136-.022v1.63zM55.776 4.555v3.452h.708c.57 0 1.042-.146 1.416-.438.375-.294.562-.728.562-1.305 0-1.139-.652-1.709-1.956-1.709h-.73zm3.845 7.612c-.188 0-.373-.095-.557-.287-.184-.191-.349-.429-.495-.713-.146-.286-.316-.595-.51-.928-.197-.334-.391-.647-.586-.939-.195-.293-.443-.54-.743-.742-.3-.203-.617-.311-.954-.326v1.394c0 .81.024 1.358.073 1.647.048.289.117.47.208.546.179.142.457.213.832.213l.021.135h-3.012l.023-.135c.367 0 .637-.067.809-.202.142-.113.224-.48.247-1.102.016-.248.022-.615.022-1.102V6.782c0-.832-.022-1.383-.067-1.653-.045-.27-.112-.44-.202-.506-.172-.128-.442-.19-.81-.19l-.022-.136h2.608c1.888 0 2.834.638 2.834 1.91 0 .548-.194 1.007-.58 1.378-.386.371-.853.587-1.4.647.547.323 1.054.915 1.518 1.775.18.339.372.661.574.968.442.704 1.011 1.057 1.708 1.057l.024.135h-1.563z" transform="translate(25 22) translate(0 109.209)"/>
            <path d="M63.094 6.837v2.788c0 .803.024 1.35.074 1.643.048.292.117.476.208.551.172.142.445.213.82.213l.023.135h-3.036l.023-.135c.187 0 .334-.007.438-.023.104-.015.204-.055.299-.123.093-.067.16-.145.201-.231.041-.086.077-.23.108-.433.036-.262.056-.794.056-1.597V6.837c0-.779-.023-1.322-.068-1.63-.044-.307-.112-.498-.202-.573-.18-.142-.458-.213-.832-.213l-.023-.124h3.036l-.023.124c-.375 0-.648.07-.82.213-.188.157-.282.891-.282 2.203M71.01 12.167h-5.667l.023-.135c.375 0 .648-.071.82-.214.188-.157.281-.888.281-2.192V6.838c0-.802-.024-1.352-.073-1.648-.048-.296-.118-.48-.208-.556-.172-.142-.445-.214-.82-.214l-.023-.123h5.25v1.619l-.133-.023c0-.502-.266-.85-.794-1.045-.528-.196-1.336-.293-2.422-.293v3.542c.72 0 1.236-.038 1.551-.113.315-.074.517-.189.607-.342.09-.154.136-.41.136-.77l.122-.022v2.732l-.122-.024c0-.367-.046-.625-.136-.775-.09-.15-.292-.26-.607-.333-.315-.07-.832-.105-1.551-.105v1.45c0 .794.027 1.323.083 1.585.058.262.183.438.377.529 2.114 0 3.171-.45 3.171-1.35l.135-.022v1.63zM78.612 11.897c.09.008.275.012.556.012.282 0 .59-.03.922-.09.334-.06.679-.175 1.035-.343.356-.169.664-.385.921-.647.259-.262.473-.616.642-1.063.169-.445.253-.955.253-1.528 0-.574-.083-1.082-.247-1.524-.165-.442-.38-.796-.642-1.063-.262-.265-.57-.485-.922-.657-.622-.292-1.308-.439-2.057-.439-.338 0-.63.023-.878.067v5.139c0 .81.023 1.345.068 1.608.045.262.162.438.349.528zm-.056-7.6c1.289 0 2.256.113 2.9.337.294.105.605.255.934.45.33.195.598.427.804.697.205.27.378.614.516 1.033.14.421.21.892.21 1.412 0 .521-.07.99-.21 1.406-.138.415-.31.758-.516 1.029-.206.27-.462.504-.765.702-.303.199-.59.347-.86.444-.27.098-.57.176-.9.237-.442.082-.895.123-1.36.123h-3.024l.022-.135c.375 0 .648-.071.821-.214.187-.157.28-.888.28-2.192V6.838c0-.802-.023-1.352-.072-1.648-.049-.296-.118-.48-.208-.556-.173-.142-.446-.214-.82-.214l-.023-.123h2.271zM90.54 12.167h-5.666l.023-.135c.375 0 .648-.071.82-.214.188-.157.281-.888.281-2.192V6.838c0-.802-.024-1.352-.072-1.648-.05-.296-.119-.48-.208-.556-.173-.142-.446-.214-.821-.214l-.023-.123h5.25v1.619l-.134-.023c0-.502-.264-.85-.792-1.045-.53-.196-1.337-.293-2.423-.293v3.542c.719 0 1.236-.038 1.55-.113.316-.074.518-.189.608-.342.09-.154.135-.41.135-.77l.123-.022v2.732l-.123-.024c0-.367-.045-.625-.135-.775-.09-.15-.292-.26-.607-.333-.315-.07-.832-.105-1.55-.105v1.45c0 .794.026 1.323.082 1.585.057.262.183.438.377.529 2.115 0 3.17-.45 3.17-1.35l.136-.022v1.63zM95.495.924h9.251v2.313l-.16-.032c0-1.306-1.297-1.96-3.887-1.96v7.292c0 1.585.09 2.548.273 2.891.064.129.176.241.337.338.16.096.331.155.514.176.182.022.433.033.755.033l.032.192h-4.947l.032-.192c.321 0 .575-.008.762-.025.188-.015.359-.077.515-.184.155-.107.268-.22.337-.338.069-.118.131-.326.184-.626.054-.364.082-1.12.082-2.265V1.245c-2.593 0-3.888.654-3.888 1.96l-.192.032V.924zM107.449 4.555v3.452h.708c.57 0 1.042-.146 1.417-.438.375-.294.561-.728.561-1.305 0-1.139-.651-1.709-1.955-1.709h-.731zm3.845 7.612c-.188 0-.372-.095-.557-.287-.183-.191-.348-.429-.495-.713-.145-.286-.316-.595-.51-.928-.197-.334-.391-.647-.586-.939-.195-.293-.443-.54-.742-.742-.3-.203-.618-.311-.955-.326v1.394c0 .81.024 1.358.073 1.647.048.289.118.47.208.546.18.142.457.213.832.213l.022.135h-3.014l.024-.135c.368 0 .637-.067.808-.202.144-.113.226-.48.248-1.102.016-.248.022-.615.022-1.102V6.782c0-.832-.022-1.383-.066-1.653-.045-.27-.113-.44-.204-.506-.17-.128-.44-.19-.808-.19l-.024-.136h2.61c1.888 0 2.833.638 2.833 1.91 0 .548-.193 1.007-.58 1.378-.385.371-.852.587-1.4.647.548.323 1.054.915 1.519 1.775.18.339.37.661.574.968.44.704 1.01 1.057 1.708 1.057l.023.135h-1.563zM116.674 12.021c.956 0 1.683-.347 2.182-1.04.498-.694.746-1.606.746-2.738s-.262-2.046-.786-2.743c-.526-.697-1.265-1.046-2.22-1.046-.957 0-1.683.345-2.182 1.035-.499.689-.748 1.602-.748 2.738 0 1.135.263 2.05.788 2.748.524.696 1.264 1.046 2.22 1.046m-.073-7.825c1.206 0 2.172.369 2.894 1.107.725.738 1.086 1.694 1.086 2.868 0 1.172-.35 2.15-1.051 2.933-.701.784-1.65 1.175-2.85 1.175-1.2 0-2.165-.393-2.895-1.18-.731-.788-1.096-1.767-1.096-2.94s.35-2.127 1.05-2.861c.701-.735 1.655-1.102 2.862-1.102M125.353 12.021c.956 0 1.683-.347 2.182-1.04.498-.694.746-1.606.746-2.738s-.261-2.046-.786-2.743c-.526-.697-1.265-1.046-2.22-1.046-.957 0-1.683.345-2.182 1.035-.498.689-.748 1.602-.748 2.738 0 1.135.263 2.05.788 2.748.524.696 1.265 1.046 2.22 1.046m-.073-7.825c1.206 0 2.172.369 2.894 1.107.725.738 1.086 1.694 1.086 2.868 0 1.172-.35 2.15-1.051 2.933-.701.784-1.65 1.175-2.85 1.175-1.2 0-2.165-.393-2.895-1.18-.731-.788-1.096-1.767-1.096-2.94s.35-2.127 1.05-2.861c.701-.735 1.655-1.102 2.862-1.102" transform="translate(25 22) translate(0 109.209)"/>
        </g>
        <g>
            <path d="M49.361 37.738l.011-.026-.027.01-.008-.009-.038.03c-.887.43-1.783.619-2.705.83-.942.208-1.9.345-2.853.488-1.917.287-3.827.413-5.773.649l-.743.12c-.245.048-.48.148-.721.22-.492.124-.926.4-1.374.633-.845.562-1.569 1.286-2.132 2.119-.776 1.206-1.244 2.557-1.492 3.943.122.009.24.016.363.026.301-1.317.809-2.582 1.544-3.685.545-.771 1.228-1.424 2.009-1.926.42-.198.81-.46 1.264-.576.223-.068.437-.163.666-.21l.692-.115c.93-.151 1.925-.19 2.88-.339.964-.124 1.925-.275 2.884-.444.957-.176 1.91-.381 2.85-.639.47-.128.936-.275 1.393-.447.313-.122.654-.25.95-.414-1.273 1-2.528 1.994-3.84 2.92-1.414 1.022-2.845 2.025-4.31 2.99-.733.48-1.482.94-2.266 1.331-.78.397-1.6.717-2.403 1.064-.514.233-1.026.474-1.537.713.302.026.607.054.913.082.273-.128.547-.255.816-.39.774-.42 1.527-.882 2.293-1.314.771-.422 1.549-.83 2.332-1.233 1.575-.791 3.065-1.747 4.498-2.781 1.38-1.037 2.658-2.215 3.793-3.514-1.769 3.357-3.989 6.636-7.095 8.838-.466.334-.954.643-1.456.926.21.024.42.048.633.074.366-.198.728-.403 1.074-.634.814-.556 1.572-1.19 2.267-1.888.68-.712 1.324-1.457 1.893-2.258 1.126-1.586 2.043-3.266 2.734-5.113.01-.013.023-.025.034-.037l-.013-.014zM53.158 28.553c-.452 1.864-1.32 3.646-2.585 5.044-.652.681-1.423 1.226-2.269 1.607-.444.134-.868.334-1.335.382-.23.034-.456.097-.689.108l-.701.012c-.943.012-1.932-.096-2.899-.092-.972-.02-1.944-.013-2.916.012-.973.032-1.945.094-2.913.21-.484.056-.967.133-1.443.235-.328.075-.684.151-1 .269 1.404-.8 2.792-1.598 4.225-2.318 1.548-.802 3.11-1.583 4.701-2.318.795-.367 1.603-.71 2.436-.982.831-.276 1.689-.472 2.534-.696 1.624-.46 3.237-.953 4.855-1.473zm-10.744.185c1.695-.868 3.568-1.472 5.498-1.524.962-.04 1.93.047 2.865.264.47.1.93.245 1.372.426.223.089.437.193.643.306.099.06.205.118.287.187.038.025.057.049.078.072-1.699.194-3.365.593-4.984 1.13-.829.3-1.64.644-2.46.959-.825.302-1.654.59-2.488.873-1.674.549-3.288 1.273-4.857 2.083-1.516.822-2.954 1.797-4.266 2.914 2.24-3.058 4.918-5.972 8.312-7.69zm10.998-.416c-.054-.058-.112-.116-.166-.148-.108-.081-.22-.136-.33-.196-.224-.11-.452-.208-.684-.29-.464-.162-.936-.297-1.415-.395-.956-.203-1.935-.27-2.909-.266-1.95.038-3.903.475-5.688 1.311-.886.43-1.73.945-2.52 1.532-.776.603-1.523 1.245-2.202 1.953-1.346 1.4-2.5 2.927-3.454 4.651-.012.012-.027.021-.039.032l.01.016-.014.025.027-.008.008.011.042-.024c.94-.293 1.854-.348 2.797-.42.962-.066 1.93-.06 2.893-.06 1.938.001 3.846.16 5.805.215l.752-.01c.25-.01.498-.073.747-.11.504-.05.974-.259 1.45-.422.92-.431 1.74-1.04 2.42-1.78 1.328-1.515 2.103-3.4 2.502-5.327l.017-.093c.014-.005-.01-.16-.049-.197zM30.323 24.092c-1.703-.852-3.3-2.007-4.491-3.535-.604-.752-1.11-1.587-1.495-2.472-.2-.44-.357-.898-.476-1.364-.061-.23-.106-.467-.139-.7-.011-.116-.027-.236-.02-.344-.003-.045.004-.075.01-.106 1.166 1.258 2.478 2.367 3.87 3.356.733.49 1.491.942 2.23 1.417.733.486 1.457.985 2.18 1.49 1.435 1.026 2.975 1.9 4.555 2.684 1.56.737 3.194 1.318 4.868 1.714-3.777.01-7.7-.42-11.092-2.14zm-6.545-8.571c1.76-.744 3.7-1.104 5.57-.914.933.12 1.826.42 2.635.877.371.279.784.501 1.1.851.163.166.349.31.496.492l.427.56c.57.754 1.072 1.618 1.652 2.397.563.797 1.147 1.579 1.747 2.35.603.767 1.232 1.515 1.9 2.229.335.357.682.7 1.048 1.026.255.22.528.463.81.648-1.475-.659-2.938-1.306-4.368-2.035-1.562-.773-3.115-1.571-4.65-2.419-.767-.424-1.522-.873-2.235-1.384-.716-.507-1.381-1.083-2.065-1.632-1.335-1.04-2.688-2.049-4.067-3.046zm17.77 10.704l.004-.013-.044-.02c-.794-.584-1.382-1.29-2.001-2.01-.626-.738-1.196-1.524-1.77-2.303-1.152-1.566-2.163-3.202-3.284-4.818l-.455-.603c-.158-.195-.357-.357-.533-.537-.34-.378-.787-.633-1.201-.921-.891-.485-1.867-.787-2.862-.895-2-.17-3.97.324-5.747 1.148l-.082.042c-.014-.007-.124.105-.13.158-.014.078-.025.16-.018.222-.001.136.021.258.039.384.045.247.102.489.176.725.147.471.319.933.526 1.377.407.895.935 1.726 1.52 2.51 1.19 1.554 2.703 2.872 4.433 3.817.871.46 1.786.834 2.723 1.124.945.268 1.902.489 2.872.617 1.921.252 3.827.278 5.773.021l.049.013.005-.018.03-.003c-.009-.005-.015-.013-.023-.017zM16.438 37.881l.027-.008-.012-.017-.015.025M35.691 29.489l.014-.093c.014-.007-.014-.161-.053-.195-.055-.059-.115-.114-.17-.145-.11-.08-.222-.13-.335-.189-.226-.105-.456-.198-.69-.273-.468-.151-.943-.275-1.423-.361-.961-.18-1.94-.226-2.916-.197-1.949.083-3.89.566-5.655 1.445-.876.45-1.707.985-2.484 1.59-.762.62-1.493 1.282-2.155 2.005-1.313 1.433-2.431 2.985-3.345 4.732l.057-.048c2.17-3.11 4.777-6.087 8.131-7.884 1.674-.909 3.533-1.556 5.46-1.655.96-.063 1.93.002 2.871.197.472.089.935.223 1.381.394.225.083.442.181.65.29.1.057.208.113.292.18.038.024.057.047.08.07.006 0 .01-.002.017-.003.001-.016.005-.028.003 0l.14-.023.012.053-.17.057c-.409 1.874-1.235 3.677-2.466 5.104-.636.697-1.395 1.26-2.23 1.66-.442.145-.862.355-1.327.414-.229.04-.453.108-.686.125l-.7.028c-.943.034-1.934-.051-2.9-.023-.973.003-1.945.032-2.917.08-.97.055-1.941.14-2.907.279-.482.068-.962.155-1.437.269-.325.083-.68.167-.994.293l-.325.194c.932-.316 1.846-.392 2.787-.486.96-.09 1.927-.105 2.892-.128 1.936-.045 3.848.068 5.808.076l.75-.026c.251-.017.497-.086.745-.128.504-.062.968-.282 1.441-.457.907-.453 1.715-1.08 2.376-1.836 1.292-1.546 2.024-3.45 2.378-5.385" transform="translate(25 22) translate(18.002)"/>
            <path d="M16.441 37.84l.012.016.026-.048-.038.033M35.42 29.35h-.002v.011l.003-.012zM16.839 37.665c1.386-.834 2.755-1.663 4.172-2.418 1.528-.838 3.07-1.655 4.644-2.428.787-.385 1.587-.748 2.412-1.039.825-.297 1.678-.512 2.517-.756 1.614-.498 3.214-1.029 4.82-1.588l.013-.07-.017-.014c-1.694.234-3.35.674-4.957 1.247-.821.32-1.624.683-2.436 1.018-.818.321-1.64.63-2.467.931-1.66.589-3.257 1.351-4.807 2.198-1.497.857-2.911 1.867-4.198 3.014l-.059.083c.11-.07.234-.126.363-.178M16.473 37.884l.042-.025-.05.014.008.01zM35.426 29.375l-.008-.007c0 .007.002.012.008.007" transform="translate(25 22) translate(18.002)"/>
            <path d="M16.476 37.843l.06-.083c-.018.017-.038.032-.057.048l-.026.048.012.017c.017-.005.033-.008.05-.014l.323-.194c-.128.052-.252.108-.362.178M35.418 29.361v-.011l-.017.002.016.015.001-.006zM35.418 29.361l-.001.006.001.001v-.007z" transform="translate(25 22) translate(18.002)"/>
            <path d="M35.418 29.368l.008.007c-.005.005-.007 0-.008-.007h-.001l-.014.068.169-.057-.011-.053c-.048.007-.093.016-.14.024l-.003.01v.008zM30.035 45.261c-.253-.986-.697-1.91-1.295-2.717-1.238-1.59-2.939-2.704-4.75-3.453l-.086-.033c-.004-.015-.16-.02-.202.012-.067.042-.134.09-.175.137-.1.093-.173.192-.253.29-.15.202-.286.41-.408.623-.244.43-.462.87-.646 1.326-.374.909-.62 1.863-.795 2.828-.11.671-.157 1.353-.174 2.035l.233.003c-.016-.67.02-1.342.124-2.008.138-.958.401-1.899.784-2.784.185-.447.412-.875.67-1.278.126-.204.268-.397.416-.58.076-.086.153-.18.236-.249.031-.033.058-.047.085-.065-.123 1.716-.039 3.437.188 5.136.102.633.228 1.263.35 1.892l.242.008c-.061-.65-.102-1.301-.15-1.95-.151-1.692-.337-3.376-.548-5.071 1.738.79 3.32 1.976 4.455 3.482.547.77.938 1.632 1.155 2.539.044.412.137.819.13 1.235.184.011.375.025.562.037.018-.468-.082-.932-.148-1.395M37.85.384c-.013-.05-.032-.1-.046-.15-.183.032-.366.066-.547.1.014.057.036.114.05.172.049.464.167.92.127 1.39-.008.233.012.468-.02.7l-.116.696c-.163.934-.45 1.892-.623 2.848-.198.958-.37 1.92-.524 2.887-.148.967-.265 1.94-.33 2.917-.033.49-.047.98-.035 1.47.014.338.023.704.08 1.04-.524-1.537-1.05-3.055-1.49-4.605-.5-1.677-.976-3.365-1.403-5.073-.212-.853-.4-1.715-.512-2.588-.031-.23-.047-.462-.067-.693-.077.022-.154.042-.23.065.042.218.086.436.126.655.144.87.273 1.743.396 2.619.23 1.756.641 3.485 1.145 5.184.524 1.65 1.214 3.25 2.065 4.753-2.578-2.777-4.934-5.958-5.991-9.63-.25-.853-.433-1.734-.531-2.625-.098.037-.194.078-.29.116.051.884.174 1.766.394 2.628.257.956.607 1.884 1.035 2.772.447.879.938 1.734 1.505 2.536 1.123 1.588 2.402 3.01 3.913 4.268l.023.045.017-.009.023.02c-.002-.01-.001-.019-.003-.028l.011-.006-.015-.046c-.114-.982 0-1.896.103-2.842.112-.963.296-1.918.473-2.871.357-1.915.862-3.773 1.275-5.7l.13-.745c.034-.249.018-.505.029-.758.043-.508-.075-1.01-.147-1.512M18.575 10.22c.82.598 1.748 1.026 2.72 1.264 1.963.432 3.979.2 5.847-.384l.088-.03c.012.01.136-.088.148-.139.025-.077.047-.156.048-.217.019-.136.012-.26.01-.387-.011-.251-.037-.498-.08-.741-.084-.488-.195-.968-.342-1.436-.288-.94-.703-1.833-1.18-2.688-.214-.372-.452-.73-.7-1.081l-.19.098c.263.344.51.7.73 1.077.501.826.895 1.72 1.16 2.648.141.462.238.937.295 1.414.031.237.045.477.047.713-.005.116-.004.237-.024.343-.003.046-.015.074-.025.104l.011.014c.015-.006.027-.009.001.002.027.039.058.076.086.114l-.04.035c-.045-.04-.087-.083-.13-.124-1.84.506-3.812.607-5.64.174-.91-.243-1.757-.656-2.498-1.216-.315-.308-.67-.575-.935-.931-.15.113-.293.233-.442.348.286.396.676.699 1.035 1.026" transform="translate(25 22) translate(18.002)"/>
            <path d="M27.14 10.794l-.001-.002-.01.005.01-.003zM23.418 7.264c1.189 1.206 2.4 2.385 3.637 3.555l.068-.02c.002-.006.002-.015.005-.021-.993-1.4-2.15-2.672-3.4-3.836-.424-.372-.86-.73-1.293-1.088-.078.046-.158.09-.234.136.41.42.812.85 1.217 1.274M27.12 10.811l.002-.01c-.006.004-.01.008-.002.01" transform="translate(25 22) translate(18.002)"/>
            <path d="M27.122 10.8l-.002.01c-.007-.002-.004-.006.002-.01l.001-.001-.068.02.129.124.04-.035c-.027-.039-.057-.075-.085-.114l-.01.003-.007.003z" transform="translate(25 22) translate(18.002)"/>
            <path d="M27.128 10.797l-.005.002-.001.001.006-.003z" transform="translate(25 22) translate(18.002)"/>
            <path d="M27.128 10.797l.01-.005-.01-.014c-.003.006-.004.015-.005.02h.005zM17.502 29.557c-1.124 1.543-2.527 2.93-4.226 3.852-.84.47-1.743.83-2.677 1.061-.464.123-.94.202-1.415.24-.237.023-.476.027-.711.02-.115-.009-.235-.013-.34-.038-.046-.005-.072-.018-.102-.029 1.43-.942 2.74-2.054 3.945-3.266.605-.643 1.175-1.319 1.767-1.97.6-.644 1.212-1.277 1.83-1.907 1.248-1.249 2.365-2.627 3.402-4.061.986-1.42 1.833-2.942 2.505-4.534-.631 3.746-1.717 7.56-3.978 10.632zm-9.46-.643c.277-.904.72-1.74 1.306-2.463.337-.32.625-.691 1.02-.946.19-.133.364-.292.567-.408l.62-.328c.837-.438 1.77-.788 2.63-1.23.876-.423 1.742-.87 2.6-1.333.854-.469 1.694-.965 2.506-1.506.406-.27.803-.557 1.184-.864.257-.215.542-.445.772-.694-.896 1.351-1.779 2.691-2.736 3.984-1.023 1.417-2.067 2.822-3.159 4.199-.545.688-1.113 1.36-1.734 1.98-.619.624-1.297 1.186-1.95 1.77-1.245 1.146-2.464 2.316-3.676 3.514-.43-1.87-.453-3.854.05-5.675zm13.473-10.111l.002-.03c-.007.008-.015.013-.022.02l-.01-.006-.029.04c-.706.687-1.498 1.15-2.308 1.642-.83.495-1.696.927-2.557 1.364-1.73.876-3.504 1.6-5.278 2.438l-.668.349c-.218.122-.41.292-.617.437-.429.273-.753.672-1.107 1.034-.626.8-1.087 1.716-1.362 2.684-.507 1.954-.355 3.99.152 5.891l.026.09c-.01.011.082.139.132.153.075.028.153.053.215.057.134.024.256.023.383.026.25-.003.496-.019.74-.051.487-.066.968-.159 1.44-.288.944-.252 1.848-.635 2.716-1.08 1.725-.918 3.273-2.192 4.492-3.748.598-.784 1.121-1.627 1.564-2.508.423-.89.8-1.802 1.09-2.742.575-1.86.922-3.746 1.002-5.718l.02-.045-.016-.009zM19.235 14.49c-.033-.073-.07-.147-.11-.194-.077-.113-.165-.2-.25-.294-.177-.176-.36-.343-.555-.494-.388-.304-.79-.585-1.212-.832-.756-.451-1.564-.8-2.39-1.093-.05.046-.097.094-.146.14.854.27 1.678.642 2.439 1.115.412.246.801.533 1.162.848.182.155.352.323.51.496.075.088.157.179.213.27.028.037.038.065.052.094-1.672-.366-3.378-.528-5.082-.544-.546.01-1.09.037-1.634.065-.08.087-.163.17-.243.257.623.033 1.243.082 1.863.126 1.687.09 3.37.145 5.068.176-1.024 1.618-2.416 3.024-4.061 3.939-.835.435-1.74.701-2.663.788-.463-.018-.928.036-1.385-.07-.228-.043-.463-.056-.687-.12l-.668-.217c-.308-.1-.619-.219-.93-.341-.107.15-.214.301-.32.453.354.139.708.277 1.067.41l.715.237c.24.07.495.09.742.137.494.116 1.006.07 1.51.07 1.006-.112 1.979-.422 2.859-.903 1.741-1.005 3.08-2.54 4.074-4.235l.045-.081c.015-.002.042-.157.017-.203M4.463 29.181c-.111-.835-.31-1.656-.567-2.462-.049.113-.102.224-.15.337.245.697.43 1.415.534 2.152.149.954.174 1.932.066 2.892-.045.48-.136.957-.264 1.42-.061.232-.14.457-.228.677-.048.105-.092.217-.152.308-.02.04-.041.062-.062.086-.309-1.34-.747-2.642-1.277-3.906-.073.22-.15.436-.22.657.458 1.089.927 2.175 1.415 3.26-.745-.094-1.484-.257-2.2-.484-.03.127-.057.254-.087.38.743.197 1.501.327 2.26.397l.094.006c.007.012.157-.03.189-.072.05-.061.101-.126.127-.183.068-.117.109-.235.156-.353.084-.236.154-.475.208-.716.106-.483.187-.968.229-1.458.09-.98.046-1.964-.07-2.938M19.453 40.05v-.029l-.02.02-.012-.005-.024.042c-.663.73-1.425 1.242-2.204 1.783-.796.546-1.634 1.03-2.467 1.522-1.673.982-3.398 1.815-5.117 2.762l-.645.39c-.103.066-.2.145-.295.225.375-.035.761-.068 1.158-.1l.054-.033c.808-.489 1.717-.898 2.55-1.393.847-.476 1.684-.976 2.51-1.492.824-.52 1.632-1.069 2.41-1.66.388-.294.766-.606 1.127-.936.244-.231.515-.478.728-.74-.81 1.404-1.608 2.797-2.483 4.147-.382.603-.77 1.203-1.16 1.801l.656-.016c.338-.488.67-.98.987-1.482.897-1.479 1.647-3.05 2.22-4.681-.217 2.057-.576 4.138-1.185 6.129l.443-.004c.039-.142.088-.283.122-.426.459-1.893.689-3.796.646-5.769.005-.016.013-.031.017-.047l-.016-.008zM12.08 38.696h-.027l-.006-.011-.046.014c-.98.081-1.884-.065-2.821-.201-.953-.145-1.895-.364-2.837-.573-1.852-.416-3.645-.971-5.503-1.447-.034.18-.063.363-.096.544.877.196 1.769.492 2.663.688.944.232 1.895.438 2.85.626.957.18 1.919.333 2.889.432.484.05.972.08 1.46.085.335-.002.7.002 1.034-.044-1.544.474-3.071.95-4.626 1.34-1.684.445-3.377.865-5.09 1.235-.588.127-1.18.23-1.777.317l-.014.191c.612-.075 1.225-.151 1.839-.218 1.753-.17 3.486-.524 5.191-.972 1.658-.47 3.27-1.108 4.795-1.912-2.85 2.496-6.092 4.756-9.776 5.69-.71.184-1.439.322-2.174.404 0 .106-.008.21-.008.317.767-.039 1.532-.122 2.286-.288.957-.226 1.892-.545 2.79-.944.888-.42 1.755-.884 2.571-1.426 1.617-1.074 3.073-2.31 4.376-3.786l.045-.023-.006-.017c.005-.007.012-.014.019-.02M50.48 9.543c-1.87.358-3.836.411-5.704-.08-.934-.231-1.84-.586-2.678-1.058-.423-.228-.824-.497-1.199-.795-.189-.147-.365-.307-.533-.473-.077-.085-.163-.172-.222-.26-.03-.036-.042-.064-.055-.092 1.685.29 3.397.376 5.1.316.878-.056 1.753-.16 2.629-.23.875-.06 1.75-.103 2.63-.142 1.76-.056 3.512-.299 5.242-.636 1.684-.363 3.336-.896 4.906-1.6-3 2.308-6.38 4.354-10.117 5.05zM40.11 6.705c.952-1.663 2.281-3.13 3.883-4.118.815-.472 1.706-.778 2.625-.906.464-.004.926-.078 1.387.008.23.032.465.035.692.09l.676.184c.91.254 1.83.636 2.758.902.929.293 1.864.56 2.805.81.943.24 1.893.454 2.855.616.48.08.965.142 1.451.178.335.02.7.048 1.036.024-1.572.373-3.125.75-4.702 1.038-1.71.336-3.425.646-5.157.906-.866.13-1.737.232-2.612.259-.876.032-1.752-.022-2.626-.043-1.688-.014-3.373.006-5.072.052h.001zm20.615-2.297l-.03-.001-.002-.013-.048.011c-.984.019-1.876-.185-2.803-.381-.942-.207-1.868-.485-2.794-.755-1.86-.545-3.649-1.233-5.515-1.836l-.724-.204c-.244-.059-.499-.067-.748-.103-.499-.093-1.007-.025-1.51-.001-1 .156-1.96.51-2.818 1.03-1.695 1.08-2.964 2.674-3.882 4.412l-.04.084c-.016.002-.036.158-.009.203.036.072.076.143.119.189.081.109.173.192.262.282.185.168.376.326.577.47.4.285.815.548 1.248.776.862.463 1.783.804 2.72 1.072 1.884.512 3.88.64 5.826.338.97-.163 1.923-.421 2.844-.762.914-.36 1.808-.769 2.658-1.258 1.68-.968 3.213-2.108 4.607-3.496.016-.007.032-.012.047-.02l-.007-.018.022-.02zM72.196 8.432c-.034.502-.102 1-.206 1.491-.092.475-.228.94-.4 1.387-.084.225-.184.443-.292.652-.059.1-.115.208-.182.292-.025.038-.048.057-.07.08-.222-1.706-.647-3.375-1.208-4.994-.09-.24-.19-.478-.286-.716-.15-.096-.298-.196-.45-.29.105.382.207.764.313 1.144.485 1.627 1.002 3.24 1.547 4.858-1.861-.425-3.648-1.267-5.059-2.515-.689-.643-1.243-1.41-1.637-2.255-.139-.444-.346-.867-.401-1.336-.038-.23-.104-.456-.12-.69l-.023-.704c-.013-.438 0-.885.016-1.334-.178-.08-.353-.165-.532-.243-.016.524-.03 1.05-.036 1.58l.022.755c.014.252.082.5.122.75.058.506.274.974.445 1.452.443.915 1.063 1.731 1.81 2.402 1.529 1.31 3.417 2.057 5.339 2.427l.091.014c.007.015.16-.013.196-.052.058-.056.113-.115.144-.17.08-.11.131-.223.19-.335.106-.228.2-.458.276-.692.153-.47.28-.946.37-1.43.09-.467.147-.94.18-1.414-.052-.04-.106-.076-.16-.114M83.368 24.809l-.019-.044c-.2-.969-.167-1.89-.148-2.84.016-.57.058-1.14.108-1.709-.114-.175-.222-.355-.338-.529-.036.744-.056 1.49-.04 2.236.01.49.039.98.094 1.468.044.334.085.699.17 1.027-.656-1.483-1.312-2.949-1.888-4.454-.623-1.569-1.222-3.15-1.781-4.753-.15-.172-.295-.35-.448-.52.033.144.071.285.105.428.382 1.73.944 3.415 1.596 5.062.668 1.597 1.495 3.13 2.474 4.55-2.811-2.536-5.44-5.495-6.814-9.058-.572-1.458-.95-3.018-.996-4.6-.064-.058-.13-.113-.194-.169-.025 1.666.218 3.342.775 4.926.341.928.77 1.821 1.275 2.669.522.835 1.087 1.644 1.722 2.392 1.258 1.481 2.658 2.783 4.273 3.903.01.013.019.029.028.042l.017-.01c.008.006.014.012.023.017-.003-.01-.003-.018-.005-.028l.011-.006zM51.968.6c.795.63 1.705 1.095 2.668 1.373 1.724.453 3.513.384 5.216.009-.219-.075-.434-.152-.654-.223-1.486.194-3.005.125-4.423-.273-.9-.278-1.73-.726-2.45-1.316-.016-.018-.034-.035-.052-.053C51.97.07 51.661.04 51.356 0c.196.206.41.4.612.6M37.414 17.458l.002.001.007-.008-.01.007zM37.425 17.435l.003.01c.004-.006.004-.01-.003-.01" transform="translate(25 22) translate(18.002)"/>
            <path d="M37.428 17.445l-.003-.01c.007 0 .007.004.003.01v.002l.054-.045c-.056-.02-.11-.042-.167-.063l-.024.048c.04.025.083.046.122.071l.01-.007c.001-.003.003-.004.005-.006" transform="translate(25 22) translate(18.002)"/>
            <path d="M37.423 17.45l.005-.003v-.002l-.005.006" transform="translate(25 22) translate(18.002)"/>
            <path d="M46.069 23.898c-1.868-.362-3.714-1.045-5.269-2.196-.781-.563-1.492-1.23-2.097-1.98-.31-.37-.584-.77-.821-1.185-.123-.207-.228-.422-.322-.639-.04-.108-.088-.219-.11-.324-.015-.044-.015-.074-.019-.106l-.015-.009c-.011.012-.021.02-.002 0-.04-.025-.083-.047-.123-.073l.024-.048c.056.021.11.044.168.064 1.496-1.19 3.27-2.059 5.122-2.38.93-.135 1.872-.088 2.772.136.432.17.889.272 1.286.524.202.115.419.205.61.34l.56.424c.751.574 1.464 1.272 2.23 1.865.754.617 1.524 1.213 2.308 1.795.785.576 1.59 1.128 2.424 1.636.417.254.844.492 1.284.706.304.143.63.303.952.406-1.597-.237-3.179-.467-4.75-.784-1.711-.325-3.42-.675-5.125-1.079-.851-.202-1.698-.431-2.52-.732-.825-.296-1.62-.672-2.424-1.017-1.563-.642-3.136-1.25-4.73-1.84l-.055.045c.001.006.004.015.004.021 1.459.898 3.018 1.614 4.622 2.192.837.275 1.688.506 2.527.765.835.271 1.665.557 2.495.849 1.656.602 3.372 1.03 5.105 1.36 1.698.29 3.428.41 5.146.34-3.637 1.026-7.53 1.67-11.257.924m11.383-.967v-.013l-.048-.007c-.919-.35-1.674-.872-2.462-1.398-.8-.543-1.557-1.146-2.319-1.742-1.528-1.199-2.936-2.503-4.446-3.758l-.6-.459c-.203-.145-.437-.248-.656-.374-.429-.273-.926-.398-1.402-.564-.988-.227-2.008-.256-2.996-.093-1.972.375-3.737 1.383-5.232 2.655l-.068.063c-.015-.004-.09.133-.082.185.007.08.018.161.04.22.037.13.09.243.14.36.11.225.23.443.364.65.267.415.555.813.873 1.186.63.752 1.36 1.41 2.132 2.01 1.562 1.176 3.369 2.038 5.289 2.482.96.21 1.94.324 2.922.35.982.005 1.962-.04 2.931-.178 1.919-.274 3.761-.763 5.568-1.533l.05-.001.001-.02.027-.01c-.01-.003-.018-.008-.026-.01" transform="translate(25 22) translate(18.002)"/>
            <path d="M37.423 17.45l-.007.01.016.008-.004-.021-.005.004zM54.544 49.298c-.086-.312-.169-.625-.274-.93-.341-.926-.728-1.834-1.198-2.697-.929-1.709-2.033-3.272-3.386-4.701l-.019-.048-.017.007c-.008-.007-.013-.015-.02-.022l-.001.028-.012.005.01.047c-.001.99-.222 1.883-.434 2.81-.224.944-.519 1.87-.806 2.796-.2.643-.419 1.277-.643 1.908l.478.063c.192-.615.39-1.23.566-1.85.26-.944.49-1.896.669-2.86.09-.481.16-.967.205-1.456.027-.336.061-.7.044-1.04.34 1.588.684 3.157.941 4.748.163.936.315 1.875.46 2.816l.5.057c-.094-.997-.229-1.99-.4-2.976-.327-1.7-.825-3.37-1.493-4.964 1.819 2.493 3.448 5.24 4.33 8.208l.5.05M53.876 43.27l.015-.025-.021-.004c.002.01.003.02.006.029M53.851 43.238l.019.003-.012-.053-.007.05M53.903 43.248l.015-.046c-.008.015-.019.028-.027.044l.012.002z" transform="translate(25 22) translate(18.002)"/>
            <path d="M63.359 32.418c-.232.404-.403.843-.71 1.2-.144.183-.265.384-.427.553l-.502.494c-.678.659-1.47 1.263-2.17 1.934-.72.656-1.423 1.333-2.113 2.023-.686.695-1.35 1.41-1.975 2.163-.314.376-.612.764-.888 1.168-.187.28-.395.582-.545.886.476-1.552.941-3.09 1.49-4.604.58-1.651 1.181-3.297 1.837-4.93.327-.816.68-1.623 1.1-2.396.416-.775.906-1.508 1.367-2.255.868-1.457 1.704-2.928 2.524-4.424.943 1.668 1.529 3.564 1.563 5.453-.007.946-.197 1.874-.551 2.735m-9.491 10.696c-.459-3.77-.501-7.738.795-11.33.64-1.802 1.589-3.534 2.956-4.906.671-.692 1.434-1.296 2.263-1.785.41-.252.845-.463 1.29-.638.221-.089.448-.161.675-.221.113-.025.229-.056.336-.063.045-.007.075-.003.106-.001-1.103 1.315-2.042 2.755-2.853 4.263-.397.79-.752 1.601-1.133 2.396-.394.79-.8 1.57-1.213 2.353-.843 1.555-1.522 3.196-2.11 4.868-.54 1.644-.92 3.346-1.112 5.064m8.728-19.039l-.052-.077c.007-.015-.116-.11-.168-.11-.08-.006-.163-.006-.223.006-.135.016-.252.053-.375.086-.238.074-.47.16-.694.262-.448.203-.883.43-1.299.688-.834.514-1.59 1.14-2.297 1.816-1.392 1.375-2.513 3.04-3.24 4.881-.35.924-.612 1.88-.787 2.853-.153.974-.257 1.957-.268 2.94-.021 1.949.181 3.855.664 5.768l.013.054.02.004c.01-.016.02-.03.027-.044.483-.862 1.11-1.533 1.747-2.236.655-.714 1.362-1.376 2.064-2.042 1.41-1.337 2.904-2.54 4.366-3.852l.542-.526c.173-.18.31-.397.467-.596.333-.384.531-.86.767-1.31.372-.946.554-1.956.543-2.963-.07-2.018-.792-3.925-1.817-5.602M66.186 47.46l-.338-.676c-.12-.222-.285-.417-.426-.627-.267-.434-.659-.766-1.015-1.125-.788-.64-1.693-1.116-2.652-1.405-1.936-.534-3.961-.408-5.857.077l-.09.025c-.012-.01-.14.08-.155.13-.03.076-.054.154-.06.216-.025.134-.025.258-.03.386 0 .25.011.499.04.744.06.49.147.976.269 1.452.238.953.607 1.868 1.04 2.746.022.044.051.086.074.13l.223.02c-.043-.079-.091-.156-.134-.236-.457-.85-.804-1.764-1.02-2.705-.117-.469-.189-.948-.221-1.427-.02-.24-.02-.479-.01-.715.01-.115.015-.237.042-.341.005-.046.018-.072.03-.103.918 1.45 2.006 2.782 3.197 4.009.63.617 1.296 1.2 1.937 1.802l.022.022.27.02c-.055-.058-.116-.109-.17-.166-.614-.63-1.163-1.319-1.735-1.984-1.124-1.267-2.272-2.507-3.447-3.74 1.864-.41 3.837-.407 5.641.122.895.29 1.72.747 2.432 1.345.315.342.68.637.927 1.038.132.193.288.369.399.575l.319.628c.394.787.718 1.652 1.106 2.47l.573.02c-.387-.906-.77-1.816-1.181-2.727M76.802 46.256c-.702-.535-1.432-1.031-2.142-1.55-.7-.531-1.394-1.073-2.084-1.62-1.371-1.113-2.854-2.078-4.385-2.958-1.512-.83-3.109-1.51-4.756-2.007 3.771.22 7.66.888 10.943 2.812 1.648.955 3.173 2.205 4.27 3.803.557.788 1.012 1.652 1.342 2.559.172.45.303.918.393 1.389.047.236.078.473.096.709.004.115.014.236.001.343 0 .046-.01.074-.018.105-1.088-1.326-2.33-2.513-3.66-3.585m3.938 3.114c-.03-.25-.073-.494-.132-.734-.118-.48-.262-.95-.442-1.408-.352-.917-.83-1.779-1.366-2.598-1.095-1.624-2.524-3.031-4.195-4.079-.842-.513-1.731-.942-2.65-1.289-.927-.325-1.869-.604-2.83-.79-1.9-.37-3.802-.511-5.76-.375-.016-.004-.032-.01-.048-.016l-.007.019h-.028l.02.02-.004.012.042.022c.757.632 1.302 1.373 1.876 2.129.58.774 1.102 1.593 1.628 2.406 1.056 1.634 1.965 3.328 2.987 5.01l.418.629c.145.205.334.379.5.569.317.398.746.68 1.143.993.22.137.446.263.676.376.482-.001.95-.006 1.41-.013-.628-.196-1.227-.472-1.776-.83-.354-.3-.752-.548-1.047-.916-.153-.174-.33-.331-.465-.52l-.393-.586c-.524-.788-.973-1.681-1.504-2.493-.514-.83-1.05-1.647-1.6-2.452-.559-.803-1.14-1.588-1.765-2.342-.311-.377-.638-.74-.983-1.088-.242-.234-.5-.493-.77-.697 1.433.748 2.854 1.484 4.237 2.299 1.514.867 3.014 1.757 4.496 2.697.74.47 1.466.965 2.147 1.519.683.55 1.314 1.165 1.962 1.755 1.27 1.12 2.56 2.209 3.876 3.29-.115.04-.231.073-.346.11.147-.01.297-.02.442-.032.025-.002.052-.003.077-.006l.161-.012c.016-.068.031-.139.03-.193.008-.136-.007-.26-.017-.386M74.094 32.307c-.383.887-.882 1.726-1.484 2.48-.294.38-.625.734-.98 1.055-.175.163-.36.312-.553.45-.096.064-.194.133-.292.178-.039.023-.068.03-.098.04.566-1.624.933-3.306 1.158-5.005.092-.881.137-1.766.212-2.646.088-.878.191-1.754.301-2.632.238-1.754.291-3.531.249-5.304-.075-1.73-.323-3.457-.752-5.132 1.762 3.36 3.206 7.053 3.266 10.874.04 1.913-.235 3.872-1.027 5.642m-6.873-.37c-.327-.886-.478-1.821-.45-2.753.073-.461.077-.931.237-1.375.07-.223.112-.455.203-.67l.295-.64c.4-.86.928-1.709 1.344-2.586.44-.87.858-1.755 1.26-2.646.394-.894.762-1.802 1.08-2.728.158-.463.3-.933.417-1.41.074-.328.162-.685.194-1.023.106 1.621.215 3.224.236 4.836.044 1.75.063 3.504.03 5.265-.019.88-.063 1.76-.183 2.633-.113.873-.312 1.734-.478 2.597-.295 1.672-.557 3.346-.795 5.037-1.47-1.221-2.689-2.784-3.39-4.537m8.07-8.222c-.203-.966-.453-1.92-.791-2.844-.67-1.829-1.532-3.538-2.661-5.152-.004-.016-.007-.033-.012-.049l-.019.003-.016-.024c0 .01-.004.019-.005.028l-.012.002.002.049c-.145.978-.495 1.83-.84 2.715-.36.9-.787 1.772-1.206 2.646-.845 1.753-1.817 3.412-2.72 5.162l-.319.685c-.099.231-.148.483-.225.724-.175.479-.192.995-.255 1.498-.012 1.019.175 2.027.541 2.965.78 1.86 2.13 3.384 3.681 4.585l.075.054c0 .015.15.061.199.042.075-.023.152-.051.204-.086.12-.062.217-.14.32-.213.196-.156.383-.319.556-.494.348-.35.674-.718.97-1.108.598-.778 1.085-1.634 1.505-2.52.814-1.782 1.273-3.74 1.301-5.72.001-.99-.093-1.978-.274-2.948M90.269 38.742c-1.63.767-3.334 1.353-5.11 1.626-1.879.3-3.846.292-5.698-.258-.926-.26-1.82-.644-2.643-1.142-.417-.241-.809-.522-1.174-.832-.185-.152-.356-.319-.518-.49-.075-.087-.158-.176-.215-.266-.028-.036-.039-.065-.052-.094 1.676.344 3.383.482 5.088.475.88-.028 1.757-.104 2.634-.148.877-.031 1.754-.047 2.634-.057 1.605-.002 3.207-.162 4.796-.404-.033-.187-.064-.375-.1-.561-1.564.252-3.133.485-4.716.671-.868.102-1.742.178-2.618.177-.876.005-1.751-.076-2.623-.125-1.687-.067-3.371-.1-5.07-.108 1.003-1.631 2.376-3.057 4.008-3.994.83-.446 1.73-.724 2.652-.824.464.012.928-.048 1.387.052.228.04.463.05.688.112l.67.206c.9.282 1.808.693 2.73.989.81.282 1.63.54 2.45.79-.038-.164-.072-.33-.113-.493-1.639-.564-3.234-1.218-4.89-1.812l-.718-.225c-.241-.067-.496-.083-.744-.127-.496-.11-1.006-.056-1.51-.05-1.006.126-1.974.45-2.847.942-1.728 1.028-3.046 2.58-4.018 4.29l-.043.082c-.016.001-.04.156-.015.202.034.073.072.146.113.193.078.111.167.197.254.29.179.174.365.338.561.487.392.298.799.573 1.224.816.848.49 1.757.859 2.686 1.156 1.866.57 3.857.762 5.813.521.973-.133 1.934-.361 2.866-.673.764-.275 1.51-.595 2.236-.954-.019-.146-.035-.294-.055-.44M87.893 29.309c-.33-.085-.66-.171-.993-.245-.476-.105-.956-.191-1.44-.251-.334-.036-.696-.082-1.033-.074 1.014-.188 2.024-.367 3.033-.533-.061-.155-.118-.311-.182-.465-1.077.257-2.138.58-3.168.98.909-.63 1.853-1.229 2.823-1.783-.041-.097-.086-.191-.129-.287-.966.62-1.89 1.308-2.764 2.096l-.048.016.006.019-.022.018.028.003.004.012.047-.008c.983.03 1.865.28 2.78.521.404.11.803.238 1.2.367l-.142-.386M69.685 17.502c-1.296 1.408-2.916 2.543-4.695 3.148-.899.278-1.836.377-2.76.297-.453-.1-.92-.131-1.351-.317-.217-.083-.445-.138-.654-.242l-.619-.332c-.83-.45-1.642-1.028-2.49-1.495-.84-.492-1.694-.962-2.555-1.415-.866-.446-1.747-.867-2.648-1.238-.45-.187-.91-.355-1.376-.5-.323-.093-.67-.2-1.004-.252 1.614-.014 3.212-.034 4.813.037 1.741.054 3.483.134 5.228.268.873.067 1.746.161 2.604.33.861.165 1.704.412 2.551.628 1.644.392 3.29.748 4.956 1.083zm-9.483-5.083c1.902.068 3.83.455 5.543 1.35.86.435 1.664.984 2.378 1.63.362.319.694.67.993 1.044.152.185.289.38.415.58.058.1.122.203.16.304.02.04.026.07.034.1-1.58-.658-3.23-1.123-4.903-1.445-.87-.142-1.745-.236-2.614-.362-.867-.138-1.731-.291-2.596-.451-1.729-.337-3.49-.492-5.252-.55-1.723-.022-3.45.129-5.137.465 3.436-1.58 7.182-2.82 10.98-2.665zm9.816 5.006c-.018-.078-.042-.156-.073-.21-.056-.125-.127-.226-.194-.334-.143-.207-.294-.403-.458-.587-.328-.368-.675-.716-1.047-1.036-.738-.644-1.56-1.181-2.414-1.653-1.725-.92-3.642-1.49-5.607-1.63-.982-.057-1.968-.018-2.941.108-.97.148-1.933.346-2.869.633-1.852.568-3.598 1.338-5.265 2.38-.016.004-.033.006-.049.009l.001.019c-.007.006-.016.01-.024.014l.027.008.002.012h.048c.962.202 1.789.6 2.648.998.874.412 1.715.89 2.56 1.36 1.692.947 3.284 2.017 4.97 3.022l.662.36c.224.112.471.177.706.268.466.203.976.248 1.472.339 1.01.07 2.024-.06 2.974-.375 1.892-.677 3.482-1.947 4.76-3.436l.06-.073c.014.001.068-.147.051-.196zM90.692 47.014c.005-.127.013-.254.016-.382-1.347-.801-2.761-1.488-4.207-2.099-1.6-.637-3.269-1.116-4.964-1.407 3.052-.198 6.212-.102 9.161.738-.005-.164-.006-.328-.013-.492-.185-.05-.367-.115-.553-.16-.959-.21-1.928-.37-2.904-.437-1.933-.133-3.837-.04-5.764.337l-.05-.01-.004.018c-.009.003-.018.004-.028.005.009.006.015.012.024.017l-.003.013c.014.005.03.01.044.017.828.533 1.46 1.202 2.121 1.881.67.698 1.287 1.447 1.908 2.188.53.635 1.033 1.285 1.533 1.94.195-.034.386-.069.565-.102-.578-.717-1.172-1.42-1.782-2.112-.65-.728-1.323-1.436-2.034-2.107-.354-.336-.723-.657-1.109-.959-.268-.203-.555-.429-.849-.597 1.514.567 3.014 1.122 4.485 1.76 1.479.621 2.948 1.267 4.407 1.95M80.907 66.746c-.184 2.319-.21 4.65-.13 6.974.164-.206.329-.412.49-.622-.121-2.113-.233-4.23-.308-6.35l-.052-.002zM43.078 86.867l.002-.054c-3.023-.248-6.064-.207-9.086.023-1.51.13-3.013.341-4.518.504l-1.214.134c.12.049.236.102.358.15 1.795-.188 3.598-.298 5.402-.343 3.016-.15 6.03-.299 9.056-.414M75.341 67.108l-.053-.001c-.23 2.886-.219 5.788-.06 8.678.063 1.177.16 2.352.277 3.526.168-.15.33-.307.495-.459-.076-1.033-.153-2.066-.22-3.1-.177-2.877-.338-5.755-.439-8.644M70.163 76.157c-.178-2.89-.34-5.784-.441-8.688l-.053-.002c-.23 2.902-.219 5.818-.056 8.724.127 2.38.37 4.753.72 7.111.123-.082.249-.16.371-.242l-.232-2.567-.31-4.336zM64.71 81.03c-.128-1.462-.163-2.934-.214-4.4l-.393-8.8-.053-.002c-.245 2.938-.212 5.892.004 8.83l.932 8.782.092.868c.108-.052.216-.1.323-.153-.043-.251-.082-.505-.126-.755-.248-1.448-.444-2.905-.565-4.37M53.314 77.357c-.184-2.93-.348-5.863-.45-8.807l-.052-.001c-.23 2.941-.217 5.898-.049 8.842.159 2.946.492 5.882.987 8.788.208 1.254.407 2.506.552 3.766l.183-.039c-.162-1.254-.32-2.509-.446-3.766-.3-2.927-.533-5.852-.725-8.783M47.534 77.653c-.203-2.908-.32-5.825-.287-8.742l-.054-.001c-.096 2.919-.04 5.84.103 8.757.152 2.917.421 5.828.801 8.726.197 1.438.386 2.877.554 4.315.118-.008.237-.015.355-.025-.18-1.448-.382-2.893-.591-4.334-.407-2.885-.687-5.787-.881-8.696M85.706 53.726c-.159.023-.328.043-.493.065.043.526.084 1.053.13 1.58-2.933-.224-5.88-.162-8.807.075L67.535 56.5c-2.997.325-5.996.585-8.999.788-3.004.196-6.01.366-9.027.466l-.002.055c3.016.232 6.047.213 9.064.032 3.018-.168 6.027-.53 9.005-1.05 1.487-.253 2.976-.494 4.479-.625 1.499-.161 3.008-.197 4.512-.275 2.925-.16 5.848-.326 8.783-.442.157 1.86.328 3.718.505 5.576-2.947-.213-5.908-.176-8.856.014-3.03.194-6.048.567-9.035 1.102-2.978.546-6.007.773-9.03.85-3.02.15-6.037.3-9.067.414l-.001.054c3.027.248 6.071.207 9.096-.024 1.512-.13 3.017-.34 4.523-.504l4.52-.498c3.01-.342 6.018-.613 9.032-.841 2.937-.204 5.876-.387 8.826-.49.1 1.045.199 2.091.305 3.137.027.254.048.51.075.765.136-.286.27-.573.4-.861-.348-3.469-.656-6.942-.937-10.417M58.933 77.011c-.183-2.935-.349-5.872-.449-8.82l-.053-.003c-.23 2.947-.216 5.908-.047 8.857.158 2.95.492 5.891.99 8.802.145.88.282 1.757.408 2.638l.18-.06c-.108-.872-.211-1.744-.3-2.618-.302-2.93-.536-5.86-.729-8.796M38.404 55.759l.389 8.747.054.001c.25-2.919.219-5.857-.001-8.776-.113-1.356-.297-2.704-.446-4.053l-.202-.023c.117 1.365.156 2.736.206 4.104M32.785 56.11l.39 8.757.053.002c.25-2.924.218-5.864-.001-8.787-.122-1.46-.33-2.913-.483-4.369l-.061-.56-.191-.015c.162 1.653.256 3.313.293 4.972M26.948 52.164c.136 1.448.168 2.904.22 4.355l.388 8.708.053.002c.25-2.908.22-5.832.001-8.738-.12-1.453-.327-2.898-.478-4.345l-.145-1.352-.19-.008c.054.46.114.918.15 1.378M44.027 55.47l.385 8.675.054.002c.25-2.896.22-5.81.003-8.705l-.333-3.081-.25-.033c.063 1.046.104 2.094.14 3.142M21.501 56.972c.192 2.867.314 5.735.463 8.617.176-1.437.187-2.882.204-4.324.003-1.442-.025-2.886-.117-4.326-.113-2.112-.324-4.219-.622-6.312-.149-.003-.291-.003-.44-.004.198 2.116.373 4.23.512 6.35M10.11 53.422c.128 1.428.16 2.864.21 4.295l.378 8.592.054.002c.25-2.868.22-5.753.009-8.62l-.72-6.714-.208.016c.113.808.21 1.616.277 2.43M15.732 53.087c.127 1.426.159 2.859.208 4.287l.377 8.574.055.002c.25-2.862.22-5.741.01-8.603l-.716-6.673-.207.006c.11.8.205 1.602.273 2.407M24.239 76.833c2.983-.548 6.015-.775 9.043-.852 3.025-.15 6.045-.3 9.079-.416l.002-.053c-3.032-.248-6.08-.207-9.108.024-1.516.13-3.022.342-4.53.506l-4.528.5c-3.014.34-6.026.611-9.044.838-.611.042-1.223.077-1.834.117.17.17.34.337.512.504.454-.021.907-.039 1.359-.068 3.033-.192 6.058-.565 9.049-1.1M33.661 81.63c3.017-.15 6.032-.3 9.059-.414l.001-.054c-3.024-.248-6.065-.207-9.088.024-1.511.129-3.014.34-4.52.503l-4.517.498c-1.696.193-3.392.358-5.088.511.22.154.443.305.667.454 1.493-.183 2.982-.408 4.463-.673 2.976-.547 6.002-.773 9.023-.849M14.712 72.286c3.048-.187 6.085-.558 9.09-1.093 2.995-.551 6.04-.781 9.082-.86 3.038-.152 6.072-.304 9.118-.419l.002-.053c-3.044-.25-6.106-.206-9.148.027-1.522.132-3.034.343-4.55.51l-4.546.504c-3.026.34-6.053.61-9.084.832-1.986.135-3.974.25-5.964.348l.25.34c1.917.032 3.836-.016 5.75-.136M3.56 51.758c.152 2.708.341 5.413.562 8.117.138 1.774.296 3.548.465 5.322.227.468.458.934.701 1.393-.466-4.965-.881-9.936-1.244-14.912l-.484.08" transform="translate(25 22) translate(18.002)"/>
        </g>
    </g>
</svg>
