<svg xmlns="http://www.w3.org/2000/svg" width="180" height="180" viewBox="0 0 180 180">
    <g fill="#A87D4F" fill-rule="evenodd">
        <path d="M81.365 62.205c.005-.014.011-.029.018-.043l-.045.017-.013-.015c-.022.016-.042.033-.063.05-1.461.707-2.938 1.02-4.459 1.368-1.553.343-3.13.568-4.702.804-3.16.473-6.309.68-9.516 1.07l-1.225.198c-.405.079-.792.244-1.19.362-.81.205-1.525.661-2.263 1.043-1.393.927-2.586 2.12-3.515 3.494-1.279 1.987-2.05 4.214-2.459 6.5.2.014.396.026.599.042.495-2.171 1.333-4.256 2.545-6.074.898-1.271 2.024-2.348 3.31-3.176.693-.325 1.335-.757 2.084-.948.368-.112.72-.269 1.098-.345l1.14-.191c1.535-.25 3.174-.314 4.747-.558 1.59-.206 3.175-.454 4.754-.732 1.579-.29 3.148-.63 4.699-1.054.775-.21 1.543-.453 2.296-.737.515-.202 1.078-.413 1.566-.683-2.098 1.648-4.167 3.287-6.33 4.813-2.33 1.685-4.689 3.34-7.105 4.928-1.207.793-2.442 1.55-3.734 2.196-1.287.654-2.639 1.181-3.961 1.754-.848.383-1.69.78-2.534 1.175.498.043 1 .088 1.505.134.45-.211.902-.42 1.345-.644 1.277-.692 2.518-1.451 3.78-2.165 1.27-.695 2.552-1.367 3.843-2.032 2.597-1.304 5.054-2.88 7.415-4.584 2.274-1.709 4.381-3.651 6.252-5.793-2.915 5.535-6.575 10.939-11.695 14.57-.768.55-1.572 1.06-2.4 1.526l1.044.122c.603-.326 1.199-.665 1.77-1.045 1.341-.916 2.591-1.963 3.737-3.112 1.121-1.174 2.182-2.403 3.12-3.723 1.855-2.613 3.368-5.382 4.507-8.427.017-.021.037-.041.056-.062l-.021-.023zM87.623 47.065c-.745 3.072-2.177 6.01-4.26 8.314-1.075 1.124-2.346 2.022-3.74 2.65-.733.22-1.431.55-2.201.63-.379.055-.752.16-1.135.178l-1.157.02c-1.553.02-3.185-.16-4.778-.152-1.602-.033-3.204-.022-4.807.018-1.604.053-3.206.156-4.802.347-.798.093-1.593.22-2.379.388-.54.124-1.127.25-1.648.443 2.314-1.32 4.603-2.633 6.965-3.822 2.552-1.32 5.125-2.608 7.749-3.82 1.31-.605 2.642-1.17 4.015-1.62 1.37-.454 2.784-.776 4.176-1.146 2.679-.759 5.337-1.57 8.004-2.428h-.002zm-17.71.306c2.795-1.432 5.882-2.427 9.064-2.514 1.585-.065 3.179.078 4.722.436.775.164 1.533.404 2.261.702.367.147.72.318 1.06.504.163.1.338.195.473.309.063.04.095.08.129.118-2.801.32-5.548.979-8.215 1.862-1.367.495-2.704 1.063-4.057 1.582-1.358.498-2.725.973-4.1 1.44-2.76.904-5.42 2.098-8.005 3.433-2.5 1.355-4.87 2.962-7.033 4.803 3.693-5.041 8.106-9.844 13.701-12.675zm18.13-.686c-.09-.096-.186-.191-.275-.244-.178-.134-.361-.224-.544-.324-.37-.182-.744-.343-1.127-.478-.766-.266-1.542-.489-2.332-.651-1.576-.335-3.19-.446-4.795-.438-3.216.062-6.434.782-9.377 2.162-1.46.708-2.851 1.557-4.153 2.523-1.28.995-2.51 2.054-3.63 3.22-2.218 2.31-4.12 4.824-5.694 7.668-.02.018-.044.034-.063.052l.017.025-.024.043c.015-.006.03-.008.045-.014l.013.019c.023-.015.046-.027.069-.04 1.548-.484 3.055-.573 4.61-.692 1.586-.11 3.18-.099 4.77-.099 3.193.001 6.338.262 9.568.353l1.24-.014c.41-.019.82-.123 1.231-.182.83-.083 1.605-.427 2.39-.696 1.515-.711 2.869-1.715 3.988-2.934 2.19-2.498 3.467-5.606 4.125-8.781l.028-.153c.022-.01-.017-.266-.08-.325zM49.983 39.712c-2.808-1.405-5.44-3.309-7.403-5.826-.996-1.241-1.83-2.617-2.463-4.076-.33-.726-.59-1.48-.785-2.247-.102-.381-.175-.77-.23-1.155-.018-.19-.044-.388-.034-.566-.004-.075.008-.124.017-.176 1.923 2.073 4.086 3.902 6.379 5.532 1.209.809 2.46 1.552 3.678 2.336 1.207.801 2.4 1.623 3.592 2.456 2.365 1.69 4.904 3.13 7.508 4.425 2.57 1.214 5.266 2.171 8.024 2.824-6.225.016-12.69-.69-18.283-3.527zM39.195 25.583c2.9-1.226 6.099-1.818 9.18-1.506 1.538.198 3.011.691 4.344 1.446.612.46 1.292.826 1.813 1.403.27.273.575.511.818.81l.704.923c.94 1.244 1.767 2.669 2.723 3.952.927 1.313 1.891 2.603 2.879 3.873.994 1.264 2.032 2.498 3.133 3.675.551.588 1.124 1.155 1.726 1.69.42.363.87.764 1.337 1.07-2.433-1.087-4.844-2.154-7.201-3.355-2.574-1.275-5.135-2.59-7.665-3.988-1.264-.699-2.509-1.438-3.684-2.281-1.18-.836-2.277-1.786-3.403-2.69-2.2-1.714-4.43-3.377-6.704-5.022zm29.29 17.644l.007-.02-.073-.034c-1.308-.962-2.277-2.127-3.298-3.312-1.03-1.217-1.971-2.512-2.917-3.797-1.9-2.58-3.565-5.277-5.414-7.94l-.75-.995c-.26-.322-.587-.588-.877-.885-.562-.624-1.298-1.044-1.981-1.52-1.469-.798-3.076-1.297-4.717-1.475-3.298-.28-6.543.536-9.473 1.894l-.136.068c-.023-.011-.203.173-.214.26-.022.13-.04.264-.03.367-.001.224.036.424.065.633.073.407.168.806.29 1.195.242.776.526 1.537.867 2.27.672 1.475 1.542 2.845 2.505 4.138 1.963 2.561 4.455 4.733 7.308 6.29 1.436.759 2.943 1.376 4.488 1.853 1.558.442 3.135.806 4.734 1.017 3.167.417 6.308.459 9.516.035l.08.022.008-.03c.018-.003.033-.003.05-.005-.014-.009-.024-.02-.038-.029zM27.095 62.442c.016-.006.03-.008.045-.014l-.02-.029-.025.043M58.831 48.608l.024-.153c.022-.01-.024-.265-.088-.322-.091-.096-.19-.187-.28-.239-.18-.13-.367-.215-.552-.311-.374-.173-.752-.326-1.138-.45-.772-.249-1.554-.453-2.345-.596-1.585-.296-3.2-.372-4.807-.324-3.212.137-6.412.934-9.321 2.381-1.444.743-2.815 1.625-4.095 2.622-1.255 1.023-2.46 2.113-3.552 3.305-2.164 2.361-4.008 4.92-5.514 7.8.032-.028.063-.052.094-.08 3.576-5.127 7.874-10.033 13.403-12.995 2.759-1.498 5.823-2.565 9.001-2.727 1.581-.104 3.18.002 4.732.324.778.147 1.541.368 2.276.649.37.137.728.3 1.072.479.165.093.341.186.48.296.063.04.095.078.132.116.01 0 .018-.003.029-.005 0-.026.007-.046.004-.001v.001c.077-.012.153-.027.23-.038l.02.087-.278.094c-.675 3.09-2.038 6.06-4.067 8.413-1.047 1.15-2.298 2.077-3.676 2.737-.728.238-1.42.585-2.187.682-.377.065-.746.178-1.13.206l-1.154.046c-1.555.057-3.188-.084-4.781-.038-1.603.005-3.206.053-4.808.132-1.6.09-3.2.232-4.791.46-.795.112-1.586.256-2.37.443-.535.137-1.12.276-1.637.483-.178.108-.357.212-.536.32 1.536-.52 3.042-.646 4.594-.802 1.583-.146 3.176-.172 4.766-.21 3.193-.075 6.343.111 9.574.126l1.238-.044c.413-.027.818-.142 1.226-.21.831-.102 1.596-.465 2.377-.754 1.494-.746 2.826-1.781 3.916-3.026 2.13-2.549 3.336-5.687 3.92-8.877" transform="translate(15 15)"/>
        <path d="M27.1 62.375l.02.025c.013-.027.03-.053.044-.08-.021.02-.042.036-.064.055M58.386 48.378h-.004c-.002.006 0 .013 0 .02l.004-.02zM27.756 62.085c2.285-1.374 4.541-2.742 6.877-3.985 2.518-1.382 5.062-2.728 7.656-4.002 1.296-.636 2.615-1.233 3.976-1.713 1.36-.49 2.765-.844 4.148-1.246 2.66-.822 5.298-1.696 7.944-2.618l.023-.115-.028-.023c-2.793.386-5.523 1.11-8.17 2.055-1.355.528-2.678 1.127-4.017 1.678-1.348.53-2.704 1.038-4.066 1.535-2.737.97-5.37 2.227-7.924 3.623-2.467 1.413-4.798 3.077-6.919 4.968-.032.046-.066.09-.097.137.18-.115.385-.208.597-.294M27.153 62.445l.069-.04c-.028.009-.053.014-.082.023l.013.017zM58.395 48.42l-.014-.012c.002.012.004.02.014.012" transform="translate(15 15)"/>
        <path d="M27.158 62.379c.032-.047.066-.091.098-.138-.03.028-.062.053-.092.08l-.044.079.02.029c.029-.01.054-.015.082-.024.179-.108.356-.212.534-.32-.213.085-.417.179-.598.294M58.382 48.397c0-.006-.002-.012 0-.018l-.03.004c.007.008.02.017.027.023l.003-.009zM58.382 48.397l-.003.01.003.002v-.012z" transform="translate(15 15)"/>
        <path d="M58.382 48.409c.004.002.009.008.013.012-.01.008-.012 0-.013-.012-.002 0-.002-.002-.003-.002l-.022.114.278-.094-.019-.087c-.077.01-.153.027-.23.038l-.004.019v.012zM49.508 74.607c-.417-1.626-1.149-3.15-2.135-4.48-2.04-2.622-4.844-4.457-7.828-5.691l-.144-.055c-.005-.025-.262-.031-.332.02-.11.07-.22.15-.289.226-.163.153-.285.316-.416.478-.247.333-.472.674-.673 1.028-.402.708-.762 1.434-1.065 2.185-.616 1.498-1.022 3.07-1.31 4.661-.182 1.107-.26 2.23-.287 3.355l.385.004c-.027-1.104.031-2.211.204-3.31.227-1.578.66-3.13 1.292-4.589.305-.736.68-1.441 1.104-2.106.209-.336.442-.654.686-.956.125-.142.252-.297.389-.41.051-.055.095-.078.14-.107-.202 2.829-.064 5.665.31 8.465.168 1.044.375 2.082.576 3.118.132.006.266.01.4.014-.1-1.071-.168-2.145-.247-3.215-.25-2.788-.555-5.564-.904-8.358v.001c2.865 1.302 5.474 3.256 7.344 5.74.9 1.266 1.546 2.69 1.903 4.183.073.68.226 1.35.214 2.036.304.019.62.043.927.062.03-.772-.135-1.536-.244-2.3M62.39.632c-.022-.083-.052-.163-.076-.246-.302.052-.602.108-.902.163.024.095.06.189.082.285.082.765.277 1.515.21 2.29-.012.386.02.773-.032 1.156l-.193 1.146c-.267 1.54-.74 3.118-1.026 4.696-.327 1.578-.61 3.164-.863 4.757-.244 1.595-.437 3.198-.544 4.81-.055.807-.079 1.614-.058 2.423.023.555.037 1.16.132 1.712-.865-2.532-1.73-5.035-2.458-7.59-.823-2.764-1.607-5.545-2.311-8.36-.35-1.408-.66-2.828-.844-4.267-.052-.38-.077-.762-.111-1.143-.127.037-.253.07-.379.108.069.359.142.719.207 1.079.238 1.434.451 2.873.655 4.317.377 2.895 1.056 5.744 1.887 8.545.863 2.72 2 5.358 3.403 7.834-4.25-4.577-8.134-9.82-9.876-15.872-.41-1.408-.713-2.86-.875-4.327-.161.06-.32.128-.479.19.086 1.458.289 2.911.652 4.333.423 1.574 1 3.104 1.705 4.57.737 1.447 1.547 2.857 2.481 4.178 1.85 2.618 3.96 4.961 6.45 7.037l.038.073.028-.014.037.032c-.003-.015-.001-.03-.004-.047l.018-.009c-.006-.025-.015-.05-.025-.075-.188-1.62 0-3.125.17-4.685.184-1.588.488-3.161.78-4.733.588-3.157 1.42-6.219 2.1-9.394l.214-1.23c.058-.41.03-.831.049-1.248.071-.839-.123-1.667-.241-2.494M30.619 16.846c1.35.985 2.88 1.69 4.483 2.084 3.235.712 6.558.328 9.638-.633l.145-.05c.02.015.223-.144.244-.229.041-.126.077-.257.078-.358.032-.223.02-.428.019-.637-.02-.414-.062-.822-.132-1.223-.14-.803-.323-1.594-.565-2.367-.474-1.55-1.159-3.02-1.946-4.43-.352-.612-.745-1.203-1.153-1.782-.105.053-.208.108-.313.162.433.567.84 1.155 1.204 1.775.825 1.361 1.474 2.834 1.912 4.365.232.762.391 1.544.485 2.33.051.392.074.787.078 1.176-.008.192-.007.39-.04.565-.005.076-.025.122-.04.171.005.01.011.016.018.024.023-.01.043-.015.001.003.045.064.095.125.141.188l-.067.058c-.073-.067-.142-.137-.212-.204-3.035.833-6.284 1-9.298.286-1.498-.4-2.895-1.081-4.117-2.005-.52-.507-1.104-.946-1.54-1.534-.247.187-.485.385-.73.574.472.653 1.115 1.152 1.707 1.691" transform="translate(15 15)"/>
        <path d="M44.735 17.792l-.001-.003-.017.008.018-.005zM38.601 11.974c1.96 1.988 3.955 3.93 5.995 5.86l.112-.034c.003-.01.004-.024.008-.035-1.636-2.307-3.543-4.404-5.604-6.321-.7-.615-1.416-1.204-2.131-1.795-.128.076-.26.148-.387.224.677.694 1.34 1.402 2.007 2.1M44.703 17.82l.004-.017c-.01.007-.016.013-.004.017" transform="translate(15 15)"/>
        <path d="M44.707 17.803l-.004.017c-.012-.004-.007-.01.004-.017l.001-.003-.112.033c.071.069.14.137.212.205l.068-.057c-.045-.065-.095-.124-.141-.189l-.018.006-.01.005z" transform="translate(15 15)"/>
        <path d="M44.717 17.798l-.01.002v.003l.01-.005z" transform="translate(15 15)"/>
        <path d="M44.717 17.798c.005-.003.01-.007.017-.008-.006-.01-.013-.016-.018-.024-.004.01-.005.025-.008.034l.01-.002zM28.85 48.72c-1.854 2.543-4.165 4.83-6.966 6.35-1.385.776-2.873 1.37-4.412 1.75-.765.202-1.55.331-2.333.395-.392.037-.785.043-1.172.031-.19-.013-.388-.02-.56-.062-.076-.008-.12-.029-.17-.047 2.36-1.554 4.517-3.386 6.504-5.383.997-1.06 1.937-2.174 2.912-3.25.99-1.06 1.998-2.103 3.016-3.142 2.058-2.058 3.899-4.33 5.61-6.693 1.624-2.34 3.02-4.849 4.128-7.473-1.04 6.174-2.83 12.461-6.558 17.524zm-15.593-1.06c.455-1.49 1.187-2.867 2.152-4.06.555-.527 1.03-1.139 1.682-1.558.312-.22.6-.483.933-.673l1.023-.542c1.38-.72 2.916-1.298 4.335-2.028 1.444-.696 2.87-1.432 4.284-2.195 1.409-.773 2.793-1.592 4.132-2.483.67-.446 1.324-.918 1.951-1.425.425-.354.894-.733 1.274-1.143-1.477 2.227-2.932 4.436-4.51 6.567-1.686 2.336-3.407 4.651-5.207 6.92-.898 1.135-1.834 2.244-2.859 3.266-1.02 1.027-2.138 1.954-3.215 2.915-2.052 1.891-4.06 3.82-6.058 5.795-.708-3.082-.746-6.354.083-9.355zm22.207-16.666l.004-.049c-.012.012-.025.021-.037.032l-.017-.01-.047.067c-1.164 1.132-2.47 1.896-3.804 2.707-1.367.815-2.796 1.527-4.214 2.248-2.853 1.444-5.778 2.638-8.701 4.018l-1.101.575c-.36.202-.677.481-1.017.72-.707.451-1.242 1.108-1.825 1.705-1.031 1.319-1.792 2.829-2.246 4.424-.834 3.222-.584 6.577.25 9.711l.044.148c-.015.018.135.23.218.253.124.046.252.087.355.094.22.04.422.037.63.042.413-.004.819-.03 1.221-.085.802-.108 1.596-.26 2.372-.473 1.558-.417 3.048-1.047 4.479-1.781 2.843-1.513 5.394-3.614 7.403-6.177.986-1.294 1.849-2.682 2.578-4.136.697-1.467 1.32-2.97 1.798-4.519.947-3.066 1.52-6.174 1.65-9.424l.033-.075-.026-.015zM31.706 23.885c-.054-.121-.115-.242-.181-.32-.127-.186-.272-.329-.412-.484-.292-.292-.594-.566-.916-.815-.638-.501-1.303-.964-1.998-1.371-1.246-.744-2.576-1.32-3.94-1.802-.08.075-.158.154-.24.231 1.408.444 2.767 1.058 4.02 1.837.68.406 1.322.88 1.917 1.398.299.256.58.532.841.819.123.145.257.294.35.444.046.06.063.107.085.156-2.756-.604-5.567-.87-8.376-.897-.9.016-1.796.06-2.693.107-.133.142-.269.28-.4.423 1.025.054 2.049.136 3.07.207 2.78.149 5.555.24 8.354.29-1.689 2.668-3.983 4.986-6.695 6.493-1.376.718-2.868 1.157-4.388 1.3-.764-.03-1.531.059-2.284-.116-.376-.07-.762-.092-1.133-.199l-1.101-.356c-.508-.166-1.02-.361-1.531-.563-.178.248-.353.497-.527.748.582.228 1.165.456 1.757.676l1.178.39c.397.115.816.148 1.224.225.815.191 1.657.116 2.488.115 1.659-.184 3.262-.695 4.713-1.488 2.87-1.656 5.077-4.185 6.716-6.98l.074-.134c.025-.003.068-.259.028-.334M7.357 48.101c-.183-1.377-.512-2.73-.935-4.059-.08.186-.167.37-.248.555.405 1.149.708 2.333.88 3.548.246 1.573.288 3.184.11 4.767-.075.792-.225 1.578-.435 2.34-.101.383-.23.755-.376 1.116-.079.174-.153.359-.251.508-.033.067-.068.103-.102.142-.509-2.209-1.232-4.354-2.105-6.438-.12.362-.248.719-.364 1.083.756 1.795 1.529 3.584 2.333 5.372-1.228-.154-2.445-.423-3.625-.796-.051.208-.095.418-.144.625 1.224.325 2.474.54 3.726.655l.154.01c.012.02.26-.05.311-.12.085-.1.168-.206.21-.3.112-.194.18-.388.257-.581.138-.39.254-.784.343-1.18.175-.797.308-1.598.377-2.405.15-1.614.076-3.237-.116-4.842M32.065 66.016v-.047c-.01.012-.023.021-.033.033l-.02-.01-.038.07c-1.093 1.203-2.35 2.047-3.633 2.94-1.314.9-2.694 1.698-4.067 2.508-2.757 1.62-5.602 2.992-8.436 4.554l-1.062.642c-.17.11-.329.238-.486.372.617-.058 1.254-.113 1.908-.165l.09-.056c1.332-.805 2.83-1.48 4.201-2.295 1.398-.785 2.778-1.61 4.14-2.46 1.358-.858 2.689-1.762 3.97-2.735.641-.486 1.265-1 1.86-1.544.402-.381.848-.788 1.2-1.221-1.336 2.316-2.65 4.611-4.094 6.837-.629.995-1.268 1.982-1.91 2.969.354-.01.718-.017 1.08-.027.557-.804 1.103-1.615 1.627-2.442 1.478-2.438 2.715-5.03 3.66-7.717-.36 3.39-.95 6.822-1.954 10.103.243-.003.486-.004.73-.006.064-.234.145-.466.201-.703.756-3.12 1.136-6.257 1.064-9.509.01-.026.022-.051.03-.077l-.028-.014zM19.913 63.785l-.046.001-.009-.02-.076.024c-1.615.133-3.106-.107-4.65-.332-1.57-.239-3.124-.599-4.676-.944-3.053-.686-6.008-1.601-9.071-2.385-.057.297-.105.598-.159.896 1.446.324 2.916.812 4.39 1.135 1.556.381 3.124.721 4.699 1.031 1.576.298 3.162.549 4.76.712.8.082 1.602.134 2.407.14.552-.002 1.154.004 1.705-.072-2.545.782-5.063 1.565-7.626 2.208-2.775.734-5.566 1.426-8.388 2.037-.97.21-1.948.38-2.93.522l-.024.315c1.009-.124 2.019-.25 3.032-.359 2.889-.28 5.745-.865 8.556-1.603 2.733-.776 5.391-1.827 7.903-3.15-4.695 4.112-10.04 7.838-16.114 9.378-1.17.303-2.37.531-3.583.666 0 .175-.013.347-.013.522 1.265-.063 2.525-.2 3.767-.475 1.579-.372 3.12-.898 4.599-1.556 1.465-.69 2.894-1.457 4.24-2.35 2.664-1.77 5.064-3.81 7.212-6.241l.074-.037-.01-.029c.009-.012.02-.022.031-.034M83.207 15.73c-3.08.59-6.321.678-9.4-.13-1.54-.383-3.032-.968-4.414-1.745-.698-.377-1.36-.82-1.977-1.31-.31-.243-.602-.507-.878-.781-.128-.14-.269-.283-.367-.429-.048-.058-.068-.104-.09-.15 2.778.478 5.599.618 8.406.52 1.448-.093 2.89-.263 4.333-.38 1.443-.098 2.887-.17 4.336-.233 2.901-.093 5.79-.493 8.641-1.048 2.776-.599 5.498-1.477 8.087-2.637-4.946 3.803-10.517 7.176-16.677 8.323zm-17.09-4.679c1.57-2.74 3.76-5.16 6.401-6.787 1.343-.778 2.812-1.283 4.327-1.494.765-.006 1.526-.128 2.286.013.38.053.767.058 1.14.148l1.115.305c1.498.418 3.015 1.048 4.546 1.487 1.53.483 3.072.922 4.623 1.333 1.555.399 3.121.75 4.707 1.017.79.133 1.59.235 2.392.294.552.033 1.152.078 1.707.038-2.59.616-5.152 1.236-7.75 1.712-2.819.554-5.646 1.065-8.501 1.494-1.427.212-2.863.381-4.306.426-1.444.053-2.888-.036-4.329-.07-2.782-.024-5.56.01-8.359.084h.001zm33.98-3.785l-.047-.002-.006-.02-.077.018c-1.622.03-3.094-.306-4.621-.63-1.553-.34-3.08-.799-4.606-1.244-3.066-.898-6.015-2.032-9.09-3.027l-1.195-.335c-.4-.097-.821-.11-1.231-.17-.823-.154-1.66-.04-2.491-.002-1.649.257-3.228.84-4.643 1.697-2.795 1.783-4.886 4.408-6.4 7.274l-.067.138c-.025.003-.058.26-.013.335.059.119.125.235.195.311.134.18.286.317.432.464.305.279.62.538.951.775.66.47 1.344.904 2.057 1.28 1.422.763 2.94 1.325 4.485 1.767 3.104.844 6.394 1.056 9.603.558 1.6-.27 3.17-.695 4.688-1.257 1.506-.595 2.98-1.267 4.38-2.073 2.77-1.595 5.296-3.475 7.595-5.764l.077-.031-.011-.03.035-.032zM119.004 13.899c-.056.827-.167 1.648-.339 2.458-.151.782-.377 1.548-.66 2.286-.139.37-.304.73-.482 1.074-.096.166-.188.343-.299.481-.04.063-.08.095-.116.132-.365-2.811-1.065-5.562-1.99-8.231-.149-.397-.312-.787-.472-1.18-.248-.159-.49-.324-.742-.48.174.631.341 1.262.517 1.888.799 2.68 1.65 5.34 2.55 8.007-3.069-.7-6.013-2.089-8.34-4.146-1.135-1.06-2.049-2.324-2.698-3.716-.229-.733-.57-1.43-.661-2.202-.062-.38-.172-.753-.197-1.138l-.04-1.16c-.02-.722.002-1.46.027-2.2-.293-.132-.582-.272-.877-.4-.025.864-.049 1.73-.058 2.603l.036 1.246c.023.416.135.823.201 1.235.095.836.451 1.607.733 2.394.731 1.509 1.752 2.854 2.983 3.96 2.52 2.158 5.632 3.39 8.801 4l.15.024c.011.023.266-.021.324-.086.095-.092.186-.19.237-.28.13-.182.216-.367.314-.552.174-.376.33-.756.453-1.142.254-.774.463-1.559.61-2.355.149-.772.242-1.551.299-2.333-.087-.065-.177-.124-.264-.187M137.42 40.894c-.01-.025-.022-.049-.031-.073-.33-1.597-.276-3.114-.244-4.682.026-.94.095-1.878.178-2.816-.189-.288-.367-.585-.558-.871-.058 1.226-.093 2.455-.066 3.685.017.807.064 1.614.155 2.419.073.551.14 1.152.281 1.693-1.082-2.445-2.164-4.86-3.113-7.341-1.026-2.586-2.014-5.192-2.935-7.834-.247-.284-.487-.577-.739-.857.055.236.117.469.173.705.63 2.85 1.556 5.628 2.63 8.343 1.102 2.632 2.465 5.159 4.08 7.501-4.635-4.18-8.966-9.058-11.232-14.931-.943-2.403-1.565-4.976-1.642-7.583-.105-.095-.213-.186-.32-.278-.041 2.745.36 5.508 1.278 8.119.561 1.53 1.27 3.003 2.1 4.4.861 1.376 1.792 2.709 2.84 3.942 2.074 2.442 4.38 4.588 7.043 6.434.017.022.031.047.046.07l.027-.016.039.028c-.004-.016-.006-.03-.008-.047l.018-.01zM85.66.988c1.312 1.039 2.812 1.806 4.399 2.264 2.843.748 5.791.633 8.597.014-.36-.122-.714-.25-1.077-.366-2.449.319-4.953.205-7.291-.45-1.482-.459-2.851-1.197-4.036-2.17-.028-.03-.059-.057-.088-.087-.5-.077-1.008-.127-1.512-.193.324.339.675.658 1.009.988M61.67 28.777c.002.002.003.002.005.002.005-.004.008-.008.012-.014l-.016.012zM61.69 28.739l.004.017c.007-.01.008-.017-.004-.017" transform="translate(15 15)"/>
        <path d="M61.694 28.756l-.004-.017c.012-.002.01.006.004.017v.003l.09-.074c-.093-.035-.182-.07-.276-.104l-.04.079c.068.04.138.076.202.117l.016-.012.008-.009" transform="translate(15 15)"/>
        <path d="M61.686 28.765l.008-.007v-.002l-.008.01" transform="translate(15 15)"/>
        <path d="M75.938 39.393c-3.08-.597-6.123-1.724-8.685-3.621-1.288-.927-2.46-2.027-3.457-3.264-.51-.61-.962-1.267-1.353-1.953-.202-.34-.376-.695-.53-1.052-.068-.178-.146-.361-.182-.536-.026-.07-.026-.12-.03-.174-.01-.004-.02-.009-.026-.014-.018.02-.035.032-.004-.001-.066-.041-.136-.077-.203-.12l.041-.078c.092.034.182.071.276.104 2.466-1.96 5.39-3.393 8.443-3.922 1.534-.223 3.086-.145 4.57.223.711.28 1.464.45 2.12.864.332.19.69.339 1.003.562l.923.698c1.24.946 2.415 2.096 3.677 3.074 1.243 1.017 2.513 2 3.804 2.958 1.295.95 2.623 1.86 3.997 2.697.687.42 1.391.81 2.115 1.164.501.236 1.04.5 1.57.67-2.633-.392-5.24-.77-7.83-1.294-2.82-.535-5.637-1.111-8.447-1.777-1.403-.334-2.8-.71-4.155-1.207-1.36-.488-2.67-1.107-3.994-1.676-2.577-1.059-5.17-2.06-7.796-3.034l-.091.075c0 .01.005.025.006.034 2.404 1.481 4.974 2.66 7.618 3.614 1.38.453 2.783.833 4.166 1.26 1.377.447 2.744.918 4.113 1.4 2.73.992 5.558 1.697 8.414 2.241 2.799.477 5.65.675 8.482.56-5.995 1.692-12.411 2.753-18.555 1.525m18.763-1.594v-.023l-.079-.01c-1.515-.577-2.76-1.438-4.059-2.305-1.317-.894-2.566-1.889-3.821-2.871-2.519-1.977-4.84-4.126-7.33-6.195l-.987-.756c-.336-.24-.721-.41-1.083-.617-.706-.45-1.527-.657-2.31-.93-1.629-.374-3.31-.422-4.94-.153-3.25.617-6.16 2.279-8.623 4.376l-.113.104c-.024-.007-.149.22-.135.306.012.132.03.265.068.361.06.216.147.401.23.594.18.371.378.73.6 1.072.44.684.914 1.34 1.438 1.955 1.039 1.24 2.243 2.325 3.514 3.311 2.576 1.94 5.553 3.362 8.718 4.094 1.584.344 3.2.534 4.817.577 1.618.007 3.235-.067 4.832-.295 3.162-.451 6.199-1.257 9.178-2.527l.083-.001.001-.032c.013-.006.03-.01.044-.017-.016-.005-.03-.013-.043-.018" transform="translate(15 15)"/>
        <path d="M61.686 28.765c-.004.005-.006.01-.012.015.008.005.017.01.027.014-.002-.01-.006-.025-.007-.036l-.008.007zM89.908 81.26c-.143-.514-.278-1.03-.451-1.534-.563-1.524-1.201-3.02-1.976-4.444-1.53-2.816-3.35-5.393-5.58-7.75-.012-.025-.021-.051-.032-.077l-.029.01c-.012-.012-.021-.024-.033-.035.001.015-.001.031-.001.046l-.02.008.017.077c-.002 1.63-.366 3.105-.716 4.633-.37 1.555-.854 3.08-1.328 4.607-.33 1.06-.69 2.105-1.06 3.146l.787.104c.318-1.014.644-2.027.934-3.05.427-1.555.807-3.124 1.102-4.713.148-.794.265-1.595.34-2.4.043-.554.1-1.156.07-1.715.562 2.617 1.13 5.204 1.553 7.827.267 1.543.52 3.09.758 4.641.278.033.546.062.823.094-.155-1.643-.376-3.28-.658-4.905-.54-2.803-1.36-5.557-2.462-8.183 2.998 4.11 5.684 8.636 7.138 13.53l.824.083M88.807 71.324l.025-.04-.036-.007c.004.015.005.031.01.047M88.766 71.271l.03.006c-.007-.03-.012-.058-.02-.087-.003.026-.008.054-.01.081" transform="translate(15 15)"/>
        <path d="M88.852 71.288l.024-.076c-.014.025-.03.047-.045.072l.02.004z" transform="translate(15 15)"/>
        <path d="M104.438 53.437c-.383.666-.665 1.388-1.171 1.976-.236.302-.437.635-.703.913l-.827.814c-1.118 1.086-2.425 2.082-3.579 3.188-1.185 1.082-2.344 2.197-3.481 3.334-1.132 1.146-2.226 2.326-3.256 3.566-.517.62-1.009 1.259-1.464 1.925-.308.463-.651.96-.898 1.46.785-2.557 1.551-5.092 2.457-7.588.953-2.722 1.946-5.434 3.026-8.127.54-1.345 1.123-2.676 1.815-3.95.686-1.277 1.493-2.485 2.252-3.717 1.43-2.401 2.809-4.826 4.16-7.29h.002c1.553 2.749 2.519 5.872 2.575 8.987-.012 1.559-.324 3.089-.908 4.509m-15.645 17.63c-.756-6.216-.826-12.755 1.31-18.677 1.054-2.97 2.62-5.825 4.873-8.085 1.107-1.142 2.365-2.138 3.73-2.943.677-.416 1.393-.764 2.126-1.051.366-.147.74-.267 1.113-.366.186-.04.378-.09.554-.102.075-.012.124-.006.176-.003-1.819 2.168-3.367 4.541-4.703 7.027-.655 1.303-1.24 2.64-1.868 3.95-.65 1.301-1.319 2.59-2 3.878-1.39 2.563-2.508 5.268-3.477 8.024-.891 2.71-1.518 5.516-1.834 8.349m14.388-31.384l-.086-.128c.01-.023-.192-.182-.278-.182-.132-.008-.268-.009-.367.012-.222.027-.415.087-.618.141-.392.123-.774.264-1.145.432-.738.334-1.454.708-2.14 1.135-1.375.847-2.623 1.878-3.786 2.993-2.294 2.266-4.143 5.011-5.342 8.046-.577 1.523-1.009 3.1-1.296 4.702-.252 1.606-.423 3.226-.442 4.848-.035 3.21.298 6.353 1.095 9.506.008.029.013.058.02.088l.035.007.044-.073c.796-1.42 1.83-2.526 2.88-3.685 1.078-1.177 2.244-2.267 3.4-3.366 2.324-2.203 4.789-4.185 7.198-6.35l.893-.866c.286-.298.51-.655.77-.982.548-.634.875-1.419 1.264-2.159.614-1.56.914-3.225.896-4.885-.115-3.326-1.306-6.47-2.995-9.234M109.097 78.23l-.556-1.114c-.197-.365-.47-.687-.703-1.032-.44-.716-1.086-1.264-1.672-1.856-1.3-1.055-2.79-1.84-4.372-2.315-3.191-.881-6.53-.673-9.655.126l-.15.042c-.018-.015-.23.132-.254.215-.047.124-.088.253-.097.355-.043.222-.043.426-.05.636-.002.414.018.822.067 1.227.099.809.24 1.608.442 2.392.393 1.572 1 3.08 1.713 4.527.036.073.085.142.123.214l.367.034c-.071-.13-.15-.257-.22-.39-.753-1.402-1.325-2.906-1.683-4.458-.192-.773-.31-1.563-.364-2.353-.031-.394-.033-.789-.016-1.178.018-.19.026-.39.069-.563.01-.075.03-.118.049-.168 1.515 2.39 3.308 4.585 5.27 6.608 1.041 1.016 2.137 1.976 3.193 2.97l.037.036.446.032c-.091-.094-.193-.178-.282-.273-1.01-1.038-1.916-2.173-2.86-3.27-1.852-2.088-3.744-4.132-5.682-6.165 3.074-.674 6.326-.67 9.3.201 1.475.478 2.836 1.232 4.009 2.217.52.564 1.12 1.051 1.528 1.712.216.318.473.608.657.947l.526 1.036c.65 1.296 1.183 2.722 1.822 4.07l.946.034c-.639-1.493-1.269-2.994-1.948-4.496M126.597 76.246c-1.157-.881-2.361-1.7-3.53-2.556-1.156-.874-2.298-1.767-3.436-2.67-2.26-1.833-4.705-3.425-7.228-4.875-2.492-1.369-5.124-2.49-7.84-3.309 6.217.364 12.626 1.464 18.039 4.637 2.716 1.573 5.23 3.634 7.038 6.267.917 1.3 1.668 2.723 2.212 4.219.284.742.499 1.512.648 2.29.078.388.128.778.158 1.167.007.19.023.39.001.566 0 .077-.017.123-.029.174-1.794-2.186-3.84-4.143-6.033-5.91m6.491 5.134c-.05-.412-.12-.815-.218-1.211-.195-.79-.432-1.567-.729-2.32-.58-1.512-1.367-2.932-2.25-4.283-1.806-2.677-4.161-4.996-6.916-6.724-1.387-.845-2.854-1.553-4.367-2.124-1.529-.537-3.08-.996-4.665-1.303-3.134-.61-6.267-.843-9.495-.617l-.08-.026-.01.03-.048.001.035.032-.008.02.07.037c1.247 1.041 2.145 2.262 3.092 3.509.956 1.276 1.816 2.625 2.684 3.966 1.74 2.693 3.238 5.486 4.924 8.256l.688 1.038c.24.34.551.625.824.938.522.657 1.23 1.12 1.884 1.638.362.225.735.432 1.115.62.794-.003 1.565-.011 2.323-.022-1.035-.324-2.021-.779-2.927-1.367-.583-.496-1.24-.905-1.725-1.511-.253-.288-.543-.546-.768-.859l-.647-.964c-.864-1.3-1.604-2.772-2.48-4.11-.846-1.368-1.73-2.714-2.638-4.042-.919-1.324-1.878-2.617-2.908-3.86-.512-.62-1.05-1.22-1.62-1.793-.398-.386-.823-.814-1.27-1.149 2.363 1.233 4.705 2.445 6.985 3.789 2.495 1.43 4.969 2.897 7.411 4.447 1.218.775 2.417 1.59 3.54 2.502 1.125.906 2.165 1.922 3.233 2.894 2.094 1.844 4.22 3.64 6.389 5.422-.189.066-.381.121-.57.182.241-.017.49-.034.728-.053.04-.002.086-.005.127-.009l.266-.02c.026-.113.051-.23.047-.319.015-.224-.01-.427-.026-.635M122.133 53.253c-.632 1.463-1.454 2.845-2.446 4.087-.485.629-1.03 1.212-1.614 1.74-.29.27-.596.515-.913.742-.158.105-.32.22-.481.294-.065.038-.112.049-.162.064.933-2.675 1.539-5.448 1.91-8.25.15-1.451.225-2.91.349-4.36.145-1.447.315-2.89.496-4.339.391-2.891.48-5.82.41-8.742-.124-2.853-.533-5.698-1.24-8.46 2.905 5.54 5.285 11.626 5.384 17.925.066 3.153-.387 6.381-1.693 9.3m-11.329-.61c-.539-1.461-.788-3.003-.743-4.539.12-.76.127-1.535.393-2.267.114-.366.184-.749.333-1.105l.487-1.055c.66-1.416 1.53-2.815 2.215-4.26.727-1.436 1.415-2.893 2.076-4.362.651-1.475 1.256-2.97 1.78-4.497.262-.764.496-1.538.688-2.324.123-.542.268-1.13.32-1.686.175 2.671.354 5.314.39 7.971.072 2.885.104 5.776.047 8.678-.029 1.45-.101 2.903-.3 4.34-.186 1.44-.513 2.86-.788 4.28-.486 2.757-.917 5.517-1.31 8.304-2.424-2.013-4.433-4.589-5.588-7.478m13.3-13.553c-.333-1.592-.745-3.166-1.302-4.688-1.103-3.015-2.526-5.831-4.386-8.492-.007-.027-.012-.055-.02-.08l-.03.004c-.01-.013-.016-.026-.027-.04-.001.015-.006.031-.009.046l-.02.004.004.08c-.24 1.613-.816 3.016-1.386 4.476-.592 1.483-1.296 2.92-1.987 4.36-1.393 2.891-2.995 5.626-4.482 8.51l-.526 1.129c-.164.38-.246.796-.372 1.193-.289.79-.317 1.64-.42 2.47-.02 1.679.288 3.342.892 4.887 1.284 3.067 3.51 5.578 6.067 7.557l.124.09c0 .025.245.1.327.069.124-.039.25-.085.336-.141.2-.103.36-.231.528-.353.324-.255.632-.524.918-.813.572-.576 1.11-1.183 1.598-1.827.985-1.283 1.788-2.694 2.48-4.152 1.343-2.938 2.1-6.166 2.146-9.43.001-1.631-.154-3.26-.452-4.86M148.795 63.86c-2.687 1.265-5.495 2.23-8.424 2.681-3.096.494-6.339.48-9.391-.426-1.527-.43-3-1.061-4.357-1.881-.687-.399-1.334-.861-1.935-1.372-.304-.252-.587-.526-.854-.807-.124-.145-.26-.291-.354-.44-.047-.06-.064-.107-.087-.155 2.763.567 5.577.794 8.387.784 1.45-.046 2.897-.172 4.342-.244 1.446-.052 2.892-.078 4.343-.095 2.645-.003 5.285-.267 7.905-.666-.055-.307-.106-.617-.164-.924-2.578.415-5.166.799-7.774 1.106-1.432.167-2.872.293-4.316.291-1.444.008-2.887-.125-4.324-.205-2.781-.111-5.557-.165-8.358-.178h.001c1.654-2.69 3.917-5.04 6.607-6.583 1.367-.736 2.851-1.195 4.371-1.359.765.019 1.53-.079 2.286.086.377.065.763.082 1.135.183l1.104.34c1.485.465 2.98 1.143 4.5 1.63 1.334.466 2.685.89 4.038 1.302-.063-.269-.118-.542-.186-.81-2.702-.932-5.331-2.01-8.06-2.988l-1.184-.372c-.398-.11-.817-.137-1.226-.208-.818-.18-1.659-.094-2.49-.082-1.657.206-3.253.74-4.693 1.551-2.848 1.695-5.02 4.254-6.622 7.07l-.071.137c-.027.002-.066.258-.024.333.055.12.119.24.186.318.128.183.275.325.418.478.295.287.602.557.925.804.645.49 1.317.944 2.017 1.344 1.398.808 2.897 1.416 4.428 1.906 3.076.94 6.357 1.256 9.581.859 1.605-.219 3.189-.596 4.725-1.11 1.26-.453 2.489-.98 3.686-1.572-.032-.242-.058-.484-.091-.726M144.879 48.311c-.545-.14-1.088-.282-1.636-.403-.785-.173-1.578-.315-2.375-.414-.55-.06-1.146-.135-1.703-.123 1.672-.31 3.336-.604 5-.878-.1-.254-.195-.513-.3-.766-1.775.423-3.525.955-5.222 1.617 1.498-1.04 3.054-2.027 4.654-2.941-.069-.16-.143-.315-.213-.474-1.593 1.024-3.117 2.158-4.556 3.455-.026.011-.052.019-.079.028l.01.03c-.012.012-.026.02-.036.03.014.002.03.005.046.005l.007.02.076-.014c1.62.052 3.075.462 4.584.86.664.182 1.322.392 1.978.605l-.235-.637M114.866 28.85c-2.136 2.32-4.806 4.19-7.74 5.188-1.481.459-3.026.622-4.549.49-.746-.165-1.516-.216-2.227-.523-.357-.136-.733-.227-1.077-.399l-1.021-.547c-1.369-.742-2.707-1.694-4.105-2.464-1.385-.811-2.792-1.585-4.212-2.332-1.427-.736-2.879-1.43-4.365-2.041-.742-.309-1.5-.586-2.268-.823-.531-.154-1.105-.332-1.655-.417 2.661-.023 5.296-.055 7.935.06 2.87.09 5.74.222 8.617.443 1.439.11 2.878.266 4.293.546 1.419.27 2.808.677 4.205 1.033 2.708.647 5.424 1.233 8.17 1.786zm-15.632-8.379c3.135.112 6.314.75 9.138 2.226 1.416.716 2.741 1.62 3.919 2.687.597.524 1.143 1.103 1.636 1.72.25.305.476.628.685.956.095.166.2.335.263.501.035.067.044.116.057.166-2.604-1.086-5.323-1.852-8.082-2.383-1.434-.234-2.878-.39-4.31-.597-1.43-.228-2.853-.48-4.279-.744-2.85-.555-5.752-.81-8.657-.906-2.839-.036-5.687.213-8.467.767 5.664-2.605 11.839-4.65 18.097-4.393zm16.18 8.251c-.03-.128-.07-.257-.12-.347-.092-.205-.209-.372-.32-.55-.236-.34-.485-.663-.755-.966-.541-.607-1.112-1.182-1.725-1.708-1.217-1.063-2.572-1.948-3.98-2.726-2.843-1.515-6.003-2.456-9.241-2.687-1.62-.094-3.244-.03-4.85.18-1.599.243-3.185.569-4.728 1.042-3.053.937-5.931 2.205-8.678 3.923-.026.007-.054.01-.08.015v.032c-.011.009-.026.015-.039.023.016.003.03.008.045.012l.003.021h.079c1.586.333 2.948.99 4.365 1.645 1.44.679 2.827 1.466 4.218 2.243 2.79 1.56 5.415 3.323 8.194 4.98l1.09.592c.37.186.778.293 1.165.442.768.335 1.61.41 2.427.56 1.665.115 3.335-.1 4.901-.62 3.119-1.115 5.74-3.207 7.846-5.663l.098-.12c.025.003.113-.241.086-.323zM149.492 77.496c.009-.21.022-.42.027-.63-2.22-1.32-4.552-2.453-6.934-3.46-2.64-1.05-5.389-1.84-8.183-2.32 5.03-.325 10.24-.167 15.1 1.217-.008-.27-.01-.54-.02-.81-.305-.084-.606-.19-.913-.264-1.58-.345-3.178-.609-4.787-.721-3.186-.219-6.325-.066-9.5.557l-.082-.018-.008.03c-.014.005-.03.006-.046.009.015.009.025.02.04.027l-.005.021.072.028c1.365.88 2.405 1.982 3.497 3.102 1.104 1.15 2.12 2.384 3.144 3.606.876 1.046 1.704 2.118 2.528 3.197.322-.056.635-.112.93-.168-.953-1.181-1.931-2.342-2.936-3.481-1.072-1.2-2.18-2.367-3.353-3.472-.584-.554-1.192-1.084-1.828-1.581-.442-.335-.915-.707-1.399-.984 2.495.934 4.967 1.849 7.392 2.901 2.437 1.023 4.86 2.088 7.264 3.214M133.362 110.02c-.303 3.823-.344 7.665-.214 11.497.271-.34.543-.68.808-1.025-.2-3.484-.384-6.972-.507-10.469l-.087-.003zM71.008 143.187l.003-.088c-4.983-.41-9.996-.342-14.976.038-2.491.214-4.968.562-7.448.83l-2.002.22c.198.081.39.17.59.249 2.96-.31 5.932-.492 8.906-.566 4.971-.246 9.94-.493 14.927-.683M124.188 110.618l-.087-.003c-.38 4.758-.361 9.54-.099 14.305.105 1.94.264 3.877.457 5.812.277-.248.543-.505.816-.756-.125-1.704-.253-3.406-.364-5.11-.29-4.742-.556-9.486-.723-14.248M115.653 125.534c-.293-4.765-.56-9.534-.727-14.322l-.087-.003c-.38 4.785-.361 9.591-.092 14.38.208 3.924.61 7.835 1.187 11.722.202-.135.41-.263.612-.4l-.384-4.23-.509-7.147zM106.666 133.567c-.213-2.411-.27-4.837-.354-7.254l-.647-14.506-.089-.003c-.403 4.843-.348 9.713.008 14.554l1.535 14.477.153 1.43c.177-.085.356-.163.532-.251-.07-.415-.135-.833-.207-1.245-.41-2.387-.732-4.788-.931-7.202M87.88 127.512c-.302-4.83-.574-9.664-.74-14.517l-.087-.003c-.38 4.85-.358 9.723-.08 14.576.26 4.855.81 9.696 1.625 14.485.344 2.068.671 4.132.91 6.209.102-.02.202-.044.302-.065-.266-2.068-.526-4.135-.734-6.208-.496-4.824-.88-9.646-1.196-14.477M78.353 127.999c-.335-4.793-.53-9.601-.474-14.41l-.088-.002c-.158 4.812-.065 9.626.169 14.436.25 4.808.695 9.606 1.321 14.383.324 2.37.636 4.742.912 7.113.196-.014.39-.026.586-.041-.298-2.387-.63-4.769-.975-7.145-.67-4.755-1.132-9.54-1.451-14.334M141.273 88.56c-.26.037-.54.07-.812.106.071.868.138 1.736.214 2.603-4.835-.367-9.693-.265-14.516.126L111.32 93.13c-4.94.536-9.882.964-14.833 1.3-4.951.322-9.907.603-14.88.768l-.002.09c4.97.384 9.966.352 14.939.053 4.975-.277 9.935-.875 14.844-1.73 2.45-.417 4.906-.815 7.382-1.03 2.471-.267 4.96-.326 7.438-.454 4.822-.262 9.64-.537 14.477-.728.26 3.065.541 6.128.834 9.19-4.858-.35-9.74-.289-14.6.024-4.992.319-9.969.935-14.891 1.817-4.91.9-9.902 1.274-14.885 1.399-4.978.248-9.951.494-14.945.684l-.003.089c4.99.408 10.008.341 14.994-.04 2.492-.214 4.972-.562 7.456-.83l7.451-.822c4.961-.563 9.918-1.01 14.887-1.386 4.84-.336 9.686-.637 14.548-.807.166 1.722.328 3.447.503 5.17.044.42.08.84.123 1.261.226-.47.444-.944.66-1.419-.573-5.718-1.082-11.442-1.545-17.17M97.143 126.942c-.302-4.838-.575-9.68-.74-14.54l-.089-.004c-.38 4.857-.356 9.739-.077 14.6.26 4.861.812 9.71 1.63 14.509.24 1.449.468 2.895.675 4.347.097-.034.197-.066.296-.1-.178-1.436-.348-2.873-.493-4.313-.5-4.83-.885-9.661-1.202-14.5M63.304 91.91l.64 14.418.09.003c.412-4.812.36-9.656-.002-14.467-.186-2.234-.49-4.456-.735-6.68l-.334-.038c.194 2.25.258 4.51.34 6.764M54.04 92.49l.643 14.434.088.002c.413-4.82.36-9.666-.001-14.483-.202-2.408-.543-4.801-.797-7.201l-.1-.925-.315-.023c.268 2.724.422 5.46.483 8.195M44.42 85.985c.224 2.386.277 4.786.362 7.178l.64 14.354.087.004c.414-4.794.363-9.613.003-14.404-.198-2.395-.54-4.776-.79-7.162l-.238-2.228c-.107-.006-.207-.01-.312-.014.088.757.187 1.513.248 2.272M72.572 91.433l.634 14.3.09.004c.411-4.774.361-9.578.005-14.349l-.55-5.08-.41-.053c.103 1.725.17 3.452.23 5.178M35.441 93.91c.317 4.726.517 9.453.763 14.204.29-2.369.308-4.75.337-7.128.004-2.377-.042-4.757-.194-7.131-.186-3.481-.534-6.954-1.024-10.404-.246-.004-.48-.004-.724-.006.324 3.487.613 6.973.842 10.465M16.664 88.059c.211 2.353.264 4.72.346 7.08l.625 14.161.088.004c.413-4.728.364-9.483.015-14.209L16.55 84.03l-.342.025c.186 1.332.346 2.665.456 4.005M25.931 87.506c.21 2.35.262 4.712.343 7.067l.622 14.132.09.004c.411-4.718.363-9.464.016-14.18l-1.18-11.001-.34.01c.181 1.319.338 2.642.45 3.968M39.954 126.648c4.917-.903 9.915-1.278 14.906-1.404 4.986-.248 9.965-.496 14.966-.686l.002-.088c-4.996-.41-10.02-.34-15.013.04-2.497.215-4.98.564-7.467.834l-7.463.824c-4.967.562-9.934 1.008-14.908 1.382-1.007.069-2.016.127-3.023.193.28.28.561.555.845.83.748-.035 1.494-.064 2.24-.112 5-.316 9.985-.93 14.915-1.813M55.485 134.555c4.973-.247 9.943-.493 14.932-.683l.003-.088c-4.985-.41-9.999-.342-14.98.04-2.492.212-4.97.56-7.451.829l-7.445.82c-2.796.318-5.592.59-8.387.843.362.253.729.502 1.098.749 2.462-.302 4.916-.673 7.357-1.11 4.906-.901 9.893-1.275 14.873-1.4M24.25 119.153c5.025-.308 10.03-.92 14.983-1.802 4.938-.909 9.958-1.287 14.971-1.418 5.007-.25 10.01-.501 15.03-.69l.003-.088c-5.017-.41-10.065-.339-15.079.045-2.508.217-5 .566-7.5.84l-7.493.832c-4.989.56-9.977 1.003-14.974 1.37-3.273.223-6.55.411-9.83.574l.412.561c3.16.052 6.323-.026 9.478-.224M5.869 85.316c.25 4.463.562 8.922.926 13.379.228 2.925.488 5.848.766 8.772.374.773.755 1.54 1.156 2.297-.769-8.185-1.453-16.378-2.05-24.58-.276.045-.542.088-.798.132" transform="translate(15 15)"/>
    </g>
</svg>
