<svg xmlns="http://www.w3.org/2000/svg" width="24" height="24" viewBox="0 0 24 24">
    <g fill="#F7F7F7">
        <path d="M11.976 2.162c3.199 0 3.574.015 4.838.072 1.17.052 1.801.247 2.224.413.561.219.96.475 1.379.894.418.418.68.817.893 1.378.162.423.361 1.055.414 2.224.057 1.264.07 1.64.07 4.838 0 3.198-.013 3.574-.07 4.838-.053 1.17-.248 1.801-.414 2.224-.219.561-.475.96-.893 1.378-.419.419-.818.68-1.379.894-.423.161-1.055.361-2.224.413-1.264.057-1.64.072-4.838.072-3.198 0-3.574-.015-4.838-.072-1.169-.052-1.801-.247-2.224-.413-.56-.219-.96-.475-1.378-.894-.418-.418-.68-.817-.894-1.378-.161-.423-.36-1.055-.413-2.224-.057-1.264-.071-1.64-.071-4.838 0-3.198.014-3.574.07-4.838.053-1.17.248-1.801.414-2.224.219-.561.476-.96.894-1.378.418-.419.817-.68 1.378-.894.423-.161 1.055-.361 2.224-.413 1.264-.062 1.64-.072 4.838-.072m0-2.157c-3.25 0-3.66.014-4.938.071-1.273.057-2.143.261-2.903.556-.79.304-1.455.718-2.12 1.383S.941 3.35.632 4.135c-.295.76-.499 1.63-.556 2.908C.019 8.317.005 8.726.005 11.976s.014 3.66.071 4.938c.057 1.274.261 2.143.556 2.909.304.788.718 1.454 1.383 2.12.665.665 1.335 1.073 2.12 1.382.76.295 1.63.5 2.908.556 1.279.057 1.683.071 4.938.071s3.66-.014 4.938-.07c1.273-.058 2.143-.262 2.908-.557.79-.304 1.455-.717 2.12-1.383.665-.665 1.074-1.335 1.383-2.12.295-.76.499-1.63.556-2.908.057-1.278.071-1.682.071-4.938 0-3.255-.014-3.66-.071-4.938-.057-1.273-.261-2.143-.556-2.908-.304-.789-.718-1.454-1.383-2.12-.665-.665-1.336-1.074-2.12-1.383-.76-.294-1.63-.499-2.908-.556C15.636.02 15.227.005 11.976.005z"/>
        <path d="M11.976 5.827c-3.393 0-6.15 2.751-6.15 6.15 0 3.397 2.757 6.149 6.15 6.149 3.394 0 6.15-2.756 6.15-6.15 0-3.393-2.756-6.15-6.15-6.15zm0 10.141c-2.205 0-3.992-1.787-3.992-3.992s1.787-3.992 3.992-3.992 3.992 1.787 3.992 3.992-1.787 3.992-3.992 3.992z"/>
        <circle cx="18.368" cy="5.584" r="1.435"/>
    </g>
</svg>
