<?xml version="1.0" encoding="UTF-8"?>
<svg width="16px" height="16px" viewBox="0 0 16 16" version="1.1" xmlns="http://www.w3.org/2000/svg" xmlns:xlink="http://www.w3.org/1999/xlink">
    <!-- Generator: Sketch 64 (93537) - https://sketch.com -->
    <title>favicon-coterie-de-troo</title>
    <desc>Created with Sketch.</desc>
    <g id="favicon-coterie-de-troo" stroke="none" stroke-width="1" fill="none" fill-rule="evenodd">
        <path d="M11.2479899,7.17107075 C11.0826011,7.46319498 10.9605556,7.78019315 10.741558,8.03818801 C10.6394732,8.17065622 10.5527867,8.3164291 10.4375848,8.43848497 L10.0800029,8.79539714 C9.5963832,9.27205132 9.03120976,9.7087915 8.53219184,10.1941226 C8.01948657,10.668463 7.51818743,11.1578434 7.02658349,11.6564792 C6.53726077,12.1591642 6.06390663,12.6768893 5.6184975,13.2206453 C5.39493747,13.4925233 5.18221326,13.7730783 4.98545762,14.0652025 C4.85200597,14.2682433 4.70372636,14.4863241 4.5970791,14.7061404 C4.93641129,13.5839206 5.26775919,12.4721131 5.65955954,11.3770811 C6.07189092,10.1831318 6.50133148,8.99323176 6.96841226,7.81200866 C7.20166749,7.22197557 7.45374283,6.63830558 7.75315358,6.07950954 C8.0497128,5.5189781 8.39874019,4.98910525 8.72723656,4.44882005 C9.34601878,3.39543744 9.94198876,2.33164249 10.5265526,1.25049362 L10.5271229,1.25049362 C11.1989436,2.45659068 11.6164077,3.82697145 11.6409309,5.19330298 C11.6357982,5.8770472 11.5006356,6.54806523 11.2479899,7.17107075 M4.48187725,14.9051319 C4.1550918,12.1782535 4.12486557,9.30965147 5.04876161,6.71177048 C5.50443626,5.40906998 6.18138971,4.15669582 7.156043,3.16520885 C7.63452989,2.66425918 8.178602,2.22751901 8.76943922,1.87407762 C9.0620063,1.69186151 9.37168256,1.53914707 9.68877281,1.41304196 C9.84674762,1.34883247 10.0087146,1.29619227 10.1701112,1.25280748 C10.2505244,1.2348751 10.3332188,1.21289348 10.4096398,1.2076873 C10.4421473,1.20248113 10.4632486,1.20537345 10.4854906,1.20653038 C9.69903832,2.15752488 9.02949884,3.19875975 8.45177867,4.28916404 C8.16833649,4.86068628 7.91512054,5.44724859 7.64365479,6.02166316 C7.36306414,6.59260694 7.0733486,7.15776608 6.7790706,7.72292523 C6.17796787,8.84745888 5.69434822,10.0338882 5.27517317,11.2428775 C4.88964618,12.4316207 4.61875074,13.6625917 4.48187725,14.9051319 M10.7044881,1.13827165 L10.6674182,1.08216066 C10.6719807,1.07174831 10.5841535,1.00233265 10.5470836,1.00233265 C10.490053,0.998861866 10.4313115,0.998283402 10.3885385,1.00753882 C10.2921568,1.0191081 10.2088921,1.04571743 10.1210649,1.06943445 C9.95168396,1.12323159 9.78629516,1.18512721 9.62603912,1.25859212 C9.30666765,1.40552193 8.99699139,1.56922719 8.70043217,1.75664946 C8.10560281,2.12802323 7.56609315,2.58038193 7.06308309,3.06976232 C6.07075031,4.06356315 5.27118102,5.26792481 4.75277269,6.59897004 C4.50297858,7.26709575 4.31648845,7.95893847 4.1921617,8.661772 C4.08323322,9.36634092 4.00909341,10.0766945 4.00110913,10.788205 C3.98571086,12.1967644 4.12999833,13.5752436 4.47446327,14.9583506 C4.47788511,14.9710768 4.48016633,14.983803 4.48358817,14.9971077 L4.49841613,15 C4.5046895,14.9890092 4.51153317,14.9791753 4.51723623,14.9681845 C4.86170117,14.345179 5.30882123,13.8598478 5.76278496,13.3513781 C6.22929543,12.8353884 6.73344611,12.3569988 7.23360464,11.8751385 C8.23848415,10.9085254 9.30438643,10.0390943 10.3463358,9.08983522 L10.7324331,8.7097845 C10.8561896,8.57905167 10.9531416,8.42228798 11.065492,8.27882895 C11.3027393,8.00058786 11.4441753,7.65640189 11.6124156,7.33188369 C11.877608,6.647561 12.0076378,5.91696121 11.9996535,5.18867526 C11.9500369,3.72978953 11.4350504,2.3507318 10.7044881,1.13827165" id="Fill-84" fill="#034F4A" transform="translate(8.000000, 8.000000) rotate(-180.000000) translate(-8.000000, -8.000000) "></path>
    </g>
</svg>